<?xml version="1.0" encoding="UTF-8"?>
<svg id="Layer_2" data-name="Layer 2" xmlns="http://www.w3.org/2000/svg" viewBox="0 0 170 251">
  <defs>
    <style>
      .cls-1, .cls-2, .cls-3 {
        isolation: isolate;
      }

      .cls-1, .cls-2, .cls-4 {
        opacity: .35;
      }

      .cls-1, .cls-5 {
        fill: #371a45;
      }

      .cls-6, .cls-3 {
        fill: #fff;
      }

      .cls-2, .cls-7 {
        fill: #c7c7c7;
      }

      .cls-3, .cls-8 {
        opacity: .7;
      }

      .cls-9 {
        fill: #220f2d;
      }
    </style>
  </defs>
  <g class="cls-4">
    <path class="cls-2" d="M16.09,99.55c6.31,4.79,13.51,8.3,21.15,10.32l.03-14.42s-12.04.32-21.18,4.1Z"/>
  </g>
  <path class="cls-6" d="M124.18,76.13c-3.2,8.94-8.64,17.13-16.12,23.63-1.53,1.33-3.13,2.58-4.82,3.76-.82.57-1.66,1.13-2.53,1.67-2.61,1.62-5.3,3.01-8.04,4.16-2.37,1-4.77,1.83-7.2,2.48-2.93.8-5.91,1.35-8.88,1.65-1.09.11-2.17.19-3.26.24-19.87.91-39.63-8.65-50.89-26.74C5.86,60.35,14.02,25.31,40.64,8.72c5.13-3.19,10.58-5.48,16.14-6.88.65-.17,1.3-.32,1.96-.45,1.76-.38,3.52-.67,5.3-.88,4.1-.48,8.2-.51,12.26-.09,4.05.4,8.06,1.24,11.92,2.5,1.23.39,2.44.84,3.65,1.32,1.8.73,3.57,1.54,5.31,2.45,8.63,4.53,16.2,11.35,21.73,20.23,9.54,15.34,10.9,33.43,5.26,49.21Z"/>
  <path class="cls-7" d="M70.74,113.94c.87,0,1.73-.02,2.61-.06,1.09-.05,2.19-.14,3.27-.24,3.02-.32,6.02-.87,8.91-1.65,2.47-.67,4.9-1.51,7.22-2.49,2.77-1.17,5.49-2.56,8.06-4.18.94-.59,1.77-1.14,2.54-1.68,1.65-1.16,3.28-2.43,4.83-3.77,7.3-6.36,12.89-14.55,16.15-23.69,5.9-16.49,3.97-34.47-5.27-49.32-5.35-8.59-12.88-15.6-21.78-20.28-1.68-.89-3.47-1.72-5.31-2.46-1.18-.47-2.41-.92-3.66-1.33-3.87-1.26-7.9-2.1-11.95-2.5-4.09-.41-8.23-.38-12.29.09-1.77.21-3.56.51-5.31.88-.7.15-1.35.3-1.97.46-5.67,1.42-11.12,3.75-16.18,6.89C13.92,25.22,5.74,60.42,22.34,87.08c10.41,16.73,28.78,26.86,48.4,26.86ZM70.6.29c1.89,0,3.8.09,5.69.28,4.04.4,8.03,1.24,11.89,2.49,1.24.4,2.47.85,3.64,1.32,1.83.74,3.62,1.56,5.29,2.45,8.86,4.65,16.36,11.62,21.68,20.17,9.2,14.77,11.11,32.66,5.25,49.07-3.25,9.1-8.81,17.25-16.07,23.57-1.54,1.34-3.15,2.6-4.8,3.75-.75.53-1.59,1.08-2.52,1.67-2.56,1.6-5.26,2.99-8.02,4.15-2.31.98-4.72,1.81-7.18,2.48-2.88.78-5.85,1.34-8.86,1.65-1.08.11-2.17.19-3.25.24-.87.04-1.73.06-2.59.06-19.53,0-37.8-10.07-48.17-26.73C6.07,60.4,14.21,25.37,40.74,8.85c5.03-3.13,10.45-5.43,16.1-6.86.62-.16,1.26-.31,1.95-.45,1.75-.38,3.52-.67,5.28-.87,2.16-.25,4.35-.38,6.53-.38Z"/>
  <g class="cls-4">
    <path class="cls-1" d="M22.45,87c11.26,18.09,31.02,27.65,50.89,26.74,1.09-.05,2.17-.13,3.26-.24,2.97-.31,5.95-.86,8.88-1.65,2.43-.66,4.84-1.48,7.2-2.48,2.74-1.15,5.43-2.54,8.04-4.16.86-.55,1.71-1.1,2.53-1.67,1.69-1.18,3.29-2.43,4.82-3.76,7.48-6.51,12.92-14.69,16.12-23.63,1.76-4.91,2.84-10.06,3.2-15.27-3.24,8.47-8.53,16.19-15.66,22.41-1.53,1.33-3.13,2.58-4.82,3.76-.82.57-1.66,1.13-2.53,1.67-2.61,1.62-5.3,3.01-8.04,4.17-2.37.99-4.77,1.82-7.2,2.48-2.93.8-5.91,1.34-8.88,1.65-1.09.11-2.18.19-3.26.24-19.87.91-39.62-8.65-50.89-26.74-6.58-10.55-9.26-22.42-8.45-33.93-6.16,16.05-4.99,34.69,4.8,50.41Z"/>
  </g>
  <path class="cls-7" d="M78.54,112.74c4.86,0,9.78-.58,14.64-1.76.07-.02.15-.04.21-.07,2.83-1.19,5.62-2.62,8.25-4.26.97-.61,1.82-1.17,2.59-1.71,1.69-1.18,3.36-2.48,4.94-3.85,7.48-6.5,13.2-14.87,16.55-24.22,6.04-16.86,4.06-35.23-5.4-50.41-5.48-8.78-13.19-15.94-22.31-20.72-.09-.04-.18-.08-.27-.11-7.22-2.05-15.3-2.43-24.02-1.12-15.52,2.31-30.37,11.76-39.72,25.27-8.6,12.41-11.7,26.77-8.74,40.42,3.21,14.84,11.33,26.69,23.47,34.28,8.73,5.45,19.12,8.28,29.81,8.28ZM92.4,108.26c-14.78,3.57-30.14,1.33-42.17-6.18-11.48-7.17-19.16-18.4-22.21-32.48-2.79-12.88.16-26.46,8.3-38.23,8.91-12.88,23.05-21.88,37.81-24.09,8.25-1.23,15.89-.9,22.69,1.01,8.61,4.54,15.9,11.34,21.09,19.64,9.01,14.44,10.88,31.93,5.14,47.97-3.19,8.9-8.62,16.86-15.74,23.05-1.5,1.31-3.09,2.55-4.71,3.67-.75.52-1.56,1.05-2.47,1.64-2.47,1.53-5.08,2.88-7.75,4Z"/>
  <path class="cls-6" d="M7.33,71.21c-1.62-11.1,3.61-21.06,11.68-22.23,8.07-1.17,15.92,6.88,17.53,17.98,1.62,11.1-3.61,21.06-11.68,22.23-8.07,1.17-15.92-6.88-17.53-17.98Z"/>
  <path class="cls-6" d="M5.52,73.34c-1.58-8.76,2.43-16.83,8.97-18.01,6.54-1.18,13.12,4.97,14.7,13.73,1.58,8.76-2.43,16.83-8.97,18.01-6.54,1.18-13.12-4.97-14.7-13.73Z"/>
  <path class="cls-7" d="M18.65,87.37c1.77,0,3.49-.51,5.07-1.53,5.81-3.77,7.72-13.41,4.23-21.47-1.95-4.52-5.23-7.76-9.01-8.9-2.78-.84-5.51-.46-7.92,1.11-5.82,3.77-7.72,13.41-4.23,21.47,1.95,4.52,5.23,7.76,9.01,8.9.97.28,1.92.43,2.86.43ZM16.08,55.33c.91,0,1.83.14,2.77.42,3.69,1.11,6.9,4.3,8.82,8.74,3.43,7.94,1.58,17.4-4.12,21.11-2.33,1.51-4.98,1.88-7.67,1.07-3.69-1.11-6.9-4.3-8.82-8.74-3.43-7.94-1.58-17.4,4.12-21.11,1.52-.99,3.18-1.49,4.9-1.49Z"/>
  <path class="cls-5" d="M120.68,89.32c-30.52,28.51-79.7,18.89-88.52-21.05-6.01-27.17,16.59-53.89,43.68-57.86,24.85-3.63,45.8,8.42,53.2,31.38,2.79,8.68,2.71,14.29,1.35,23.3-1.16,7.69-2.64,12.04-6.37,18.85-1.18,2.16-3.33,5.36-3.33,5.36Z"/>
  <path class="cls-9" d="M32.45,68.38c8.49,39.31,55.77,48.79,85.12,20.72l.65-1.07c-35.2,12.05-74.61-4.05-83.94-43.63-2.78,7.52-3.61,15.73-1.83,23.99Z"/>
  <g class="cls-8">
    <path class="cls-3" d="M66.14,23.31s25.72-2.19,41.93,10.37c.02.02.03.03.05.04,3.41,2.65,6.04,6.17,7.65,10.18,2.12,5.3,2.8,9.27,3.28,12.77,1.42,10.68.09,15.95.09,15.95,5.32-6.45,7.9-13.31,6.8-22.22-.11-.87-.26-1.78-.44-2.7-.04-.21-.09-.42-.14-.63,0,0,0,0,0,0-.5-1.83-1.24-4.23-2.3-6.86-3.19-7.93-9.28-18.01-20.23-21.61-20.47-6.74-37.7,3.72-36.67,4.71Z"/>
  </g>
  <g class="cls-8">
    <path class="cls-3" d="M45.89,60.92c-4.16-.54-7.02-4.91-6.39-9.75.63-4.85,4.51-8.33,8.67-7.79,4.16.54,7.02,4.91,6.39,9.75-.63,4.85-4.51,8.33-8.67,7.79Z"/>
  </g>
  <g class="cls-8">
    <path class="cls-3" d="M44.19,71.65c-1.69-.37-2.72-2.26-2.29-4.23.43-1.97,2.15-3.27,3.84-2.9,1.69.37,2.72,2.26,2.29,4.23-.43,1.97-2.15,3.27-3.84,2.9Z"/>
  </g>
  <path class="cls-7" d="M18.56,88.68c.11,0,.22,0,.33,0,2.63-.1,5.05-1.32,6.98-3.52,3.03-3.47,4.52-9.04,3.95-14.91-.94-9.81-7.3-17.58-14.21-17.32-2.63.1-5.05,1.32-6.98,3.52-3.03,3.47-4.52,9.04-3.95,14.91l1.41-.14-1.41.14c.93,9.65,7.12,17.33,13.88,17.33ZM15.97,55.72c5.33,0,10.26,6.56,11.06,14.78.49,5.1-.73,9.88-3.27,12.78-1.41,1.61-3.13,2.49-4.96,2.56-.08,0-.16,0-.24,0-5.33,0-10.26-6.56-11.06-14.78-.49-5.1.73-9.88,3.27-12.78,1.41-1.61,3.13-2.49,4.96-2.56.08,0,.16,0,.24,0Z"/>
</svg>