<?xml version="1.0" encoding="utf-8"?>
<!-- Generator: Adobe Illustrator 27.3.1, SVG Export Plug-In . SVG Version: 6.00 Build 0)  -->
<svg version="1.1" id="Layer_2_00000178185999590546423880000012979967699987991211_"
	 xmlns="http://www.w3.org/2000/svg" xmlns:xlink="http://www.w3.org/1999/xlink" x="0px" y="0px" viewBox="0 0 73.9 73.9"
	 style="enable-background:new 0 0 73.9 73.9;" xml:space="preserve">
<style type="text/css">
	.st0{fill:#C5EBEC;}
	.st1{fill:#00A4B1;}
	.st2{fill:#99CB4F;}
	.st3{fill:#F1F1F2;}
	.st4{fill:#A2529F;}
	.st5{fill:#DBDCDD;}
	.st6{fill:#FFFFFF;}
	.st7{fill:#883483;}
	.st8{fill:#B174B0;}
	.st9{fill:#BBBDBF;}
	.st10{fill:#ABE0F9;}
	.st11{fill:#9C9EA1;}
	.st12{fill:#D3EEFB;}
	.st13{fill:#F7941D;}
</style>
<g id="Icons">
	<path class="st0" d="M18.2,16.1c-1.1,0-2.1,0.6-2.6,1.5c0-0.2,0-0.3,0-0.5c0-2.7-2.2-4.9-4.9-4.9c-0.4,0-0.9,0.1-1.2,0.2
		c-1.4,1.5-2.6,3.2-3.7,4.9c0,0.1,0,0.2,0,0.4c0-0.1-0.1-0.1-0.1-0.2c-0.9,1.5-1.8,3-2.5,4.6c0,0,0,0,0,0c0,0,0.1,0,0.1,0l0,0h15
		l0,0c1.6-0.1,2.9-1.4,2.9-3S19.8,16.1,18.2,16.1L18.2,16.1z M6.1,19.2c0,0,0-0.1,0-0.1C6.2,19.1,6.2,19.1,6.1,19.2L6.1,19.2z
		 M15.1,19.2c0,0,0-0.1,0.1-0.1C15.2,19.1,15.2,19.1,15.1,19.2L15.1,19.2z"/>
	<path class="st0" d="M71.8,24.7c-0.4-0.1-0.8-0.2-1.2-0.2c-1.5,0-2.9,0.7-3.8,1.8c-1.2-2.4-3.6-4.1-6.5-4.1c-4,0-7.2,3.2-7.2,7.2
		c0,0.3,0,0.6,0.1,0.9c-0.7-0.7-1.6-1.1-2.6-1.1c-2,0-3.7,1.6-3.7,3.7s1.7,3.7,3.7,3.7c0.1,0,0.2,0,0.2,0c0.1,0,0.1,0,0.2,0h22.9
		C73.8,32.4,73.1,28.4,71.8,24.7L71.8,24.7z"/>
	<path class="st1" d="M72.5,46.9l-7-6.4l-10.7,9.2l-7.9-6.5l-8,6.5L26.5,39.5l-12,9.2L6.2,42l-4.9,4.8c1.3,4.7,3.5,9,6.3,12.7h58.5
		C69.1,55.8,71.2,51.5,72.5,46.9z"/>
	<path class="st2" d="M7.6,59.4c6.8,8.8,17.4,14.5,29.3,14.5s22.6-5.7,29.3-14.5H7.6z"/>
	<polygon class="st3" points="40.5,55.4 33.5,55.4 34.6,39.7 39.4,39.7 	"/>
	<path class="st4" d="M33.6,11.6c0.6,0.3,1.6,0.8,3.1,0.8c1.7,0.1,3.1-0.6,3.8-1.2c-1-4-2.4-6.6-3.3-6.6
		C36.2,4.6,34.6,7.4,33.6,11.6"/>
	<path class="st4" d="M33.6,11.6c0.6,0.3,1.6,0.8,3.1,0.8c1.7,0.1,3.1-0.6,3.8-1.2c-1-4-2.4-6.6-3.3-6.6
		C36.2,4.6,34.6,7.4,33.6,11.6"/>
	<path class="st3" d="M39.2,16.5c0.8,1.2,0.5,2.8-0.7,3.6c-1.2,0.8-2.8,0.5-3.7-0.7c-0.8-1.2-0.5-2.8,0.7-3.6
		C36.8,15,38.4,15.3,39.2,16.5 M33.6,11.6c-0.8,3.4-1.4,7.6-1.4,12c0,4.6,0.6,9,1.5,12.5c0.2,0.7,0.6,2.2,0.9,3.2
		c0.9,2.6,1.8,4.2,2.5,4.2c0.8,0,1.8-1.9,2.7-4.9c0.3-0.9,0.5-2,0.8-3.2c0.7-3.3,1.3-7.4,1.3-11.6c0-4.6-0.6-9-1.4-12.6
		c-0.7,0.6-2,1.3-3.8,1.2C35.1,12.4,34.1,12,33.6,11.6"/>
	<path class="st5" d="M39.2,16.5c0.8,1.2,0.5,2.8-0.7,3.6c-1.2,0.8-2.8,0.5-3.7-0.7c-0.8-1.2-0.5-2.8,0.7-3.6
		C36.8,15,38.4,15.3,39.2,16.5 M33.6,11.6c-0.8,3.4-1.4,7.6-1.4,12c0,4.6,0.6,9,1.5,12.5c0.2,0.7,0.6,2.2,0.9,3.2
		c0.9,2.6,1.8,4.2,2.5,4.2c0.8,0,1.8-1.9,2.7-4.9c0.3-0.9,0.5-2,0.8-3.2c0.7-3.3,1.2-7.5,1.2-11.7c0-4.6-0.5-8.9-1.3-12.5
		c-0.7,0.6-2,1.3-3.8,1.2C35.1,12.4,34.1,12,33.6,11.6"/>
	<path class="st6" d="M33.6,11.6c-0.8,3.4-1.4,7.6-1.4,12.1c0,1,0,2,0.1,3c0.2-2,1-8.2,2.5-14.5C34.3,12,33.9,11.8,33.6,11.6"/>
	<path class="st3" d="M33.6,11.6c-0.8,3.4-1.4,7.6-1.4,12.1c0,1,0,2,0.1,3c0.2-2,1-8.2,2.5-14.5C34.3,12,33.9,11.8,33.6,11.6"/>
	<path class="st5" d="M40.5,35.4c0.7-3.3,1.3-7.4,1.3-11.6c0-4.5-0.6-9-1.4-12.6c-0.1,0-0.7,0.5-0.8,0.5c1.6,14.1-0.4,20.5-2.3,22.6
		c-1.6,1.8-3.4,1.5-3.9,1.4c0,0.2,0.1,0.3,0.1,0.5c0.2,0.7,0.6,2.2,0.9,3.2c0.9,2.6,1.8,4.2,2.5,4.2c0.8,0,1.8-1.9,2.7-4.9
		C40,37.7,40.2,36.6,40.5,35.4"/>
	<path class="st7" d="M40.2,36.5c2.3,0.5,4.2,1.8,3.4,5.2c-0.8,3.4-1,0.2-2.8-1.5c-0.4-0.3-1.1-0.5-1.5-0.5
		C39.2,38.6,39.7,37.1,40.2,36.5"/>
	<path class="st8" d="M33.7,36.5c-2.3,0.5-4.2,1.8-3.4,5.2c0.8,3.4,1,0.2,2.8-1.5c0.4-0.3,1.1-0.5,1.5-0.5
		C34.8,38.6,34.3,37.1,33.7,36.5"/>
	<path class="st4" d="M37,36.5c0.3,0,1,0.3,1,1.9s-0.4,6-1,6s-1-4.4-1-6S36.7,36.5,37,36.5"/>
	<path class="st9" d="M34,12.8c0.2,0,0.3-0.1,0.3-0.3s-0.1-0.3-0.3-0.3s-0.3,0.1-0.3,0.3S33.9,12.8,34,12.8"/>
	<path class="st9" d="M34,12.8c0.2,0,0.3-0.1,0.3-0.3s-0.1-0.3-0.3-0.3s-0.3,0.1-0.3,0.3S33.9,12.8,34,12.8"/>
	<path class="st9" d="M35.2,13.1c0.2,0,0.3-0.1,0.3-0.3s-0.1-0.3-0.3-0.3s-0.3,0.1-0.3,0.3S35,13.1,35.2,13.1"/>
	<path class="st9" d="M35.2,13.1c0.2,0,0.3-0.1,0.3-0.3s-0.1-0.3-0.3-0.3s-0.3,0.1-0.3,0.3S35,13.1,35.2,13.1"/>
	<path class="st9" d="M36.6,13.3c0.2,0,0.3-0.1,0.3-0.3s-0.1-0.3-0.3-0.3s-0.3,0.1-0.3,0.3S36.4,13.3,36.6,13.3"/>
	<path class="st9" d="M36.6,13.3c0.2,0,0.3-0.1,0.3-0.3s-0.1-0.3-0.3-0.3s-0.3,0.1-0.3,0.3S36.4,13.3,36.6,13.3"/>
	<path class="st9" d="M37.9,13.3c0.2,0,0.3-0.1,0.3-0.3s-0.1-0.3-0.3-0.3s-0.3,0.1-0.3,0.3S37.7,13.3,37.9,13.3"/>
	<path class="st9" d="M37.9,13.3c0.2,0,0.3-0.1,0.3-0.3s-0.1-0.3-0.3-0.3s-0.3,0.1-0.3,0.3S37.7,13.3,37.9,13.3"/>
	<path class="st9" d="M39.1,13c0.2,0,0.3-0.1,0.3-0.3s-0.1-0.3-0.3-0.3s-0.3,0.1-0.3,0.3S39,13,39.1,13"/>
	<path class="st9" d="M39.1,13c0.2,0,0.3-0.1,0.3-0.3s-0.1-0.3-0.3-0.3s-0.3,0.1-0.3,0.3S39,13,39.1,13"/>
	<path class="st9" d="M40.2,12.5c0.2,0,0.3-0.1,0.3-0.3s-0.1-0.3-0.3-0.3S40,12,40,12.2S40.1,12.5,40.2,12.5"/>
	<path class="st10" d="M37,20.4c1.3,0,2.3-1,2.3-2.3s-1-2.3-2.3-2.3s-2.3,1-2.3,2.3S35.8,20.4,37,20.4"/>
	<path class="st10" d="M37.1,20c1.1,0,2-0.9,2-2s-0.9-2-2-2s-2,0.9-2,2S36,20,37.1,20"/>
	<path class="st11" d="M37.1,20.6c-1.5,0-2.6-1.2-2.6-2.6s1.2-2.6,2.6-2.6s2.6,1.2,2.6,2.6S38.5,20.6,37.1,20.6z M37.1,16
		c-1.1,0-2,0.9-2,2s0.9,2,2,2s2-0.9,2-2S38.2,16,37.1,16z"/>
	<path class="st12" d="M36,18.2C36,18.2,36,18.2,36,18.2c-0.2-0.1-0.2-0.2-0.1-0.2l1-1c0.1-0.1,0.1-0.1,0.2,0s0.1,0.1,0,0.2l-1,1
		C36.1,18.2,36.1,18.2,36,18.2z"/>
	<path class="st12" d="M36.2,18.9C36.2,18.9,36.1,18.8,36.2,18.9c-0.2-0.1-0.2-0.2-0.1-0.2l1.5-1.5c0.1-0.1,0.1-0.1,0.2,0
		s0.1,0.1,0,0.2l-1.5,1.5C36.3,18.8,36.2,18.9,36.2,18.9z"/>
	<path class="st7" d="M39.7,11.8c0.3-0.2,0.6-0.3,0.8-0.5c-0.7-2.7-1.5-4.8-2.3-5.8C38.5,6.4,39.3,9.1,39.7,11.8"/>
	<path class="st7" d="M39.7,11.8c0.3-0.2,0.6-0.3,0.8-0.5c-0.7-2.7-1.5-4.8-2.3-5.8C38.5,6.4,39.3,9.1,39.7,11.8"/>
	<path class="st13" d="M39.4,39.7c0,5.7-2.4,8.8-2.4,8.8s-2.4-2.9-2.4-8.8c0-1.3,1.1-2.4,2.4-2.4S39.4,38.3,39.4,39.7z"/>
	<path class="st8" d="M37.1,4.6L37.1,4.6c-1,0-2.5,2.8-3.6,7c0.3,0.2,0.7,0.4,1.2,0.5C35.5,8.2,36.3,5.1,37.1,4.6"/>
	<path class="st8" d="M37.1,4.6L37.1,4.6c-1,0-2.5,2.8-3.6,7c0.3,0.2,0.7,0.4,1.2,0.5C35.5,8.2,36.3,5.1,37.1,4.6"/>
	<circle class="st3" cx="32.4" cy="55.4" r="4"/>
	<circle class="st3" cx="44.9" cy="58.7" r="4.9"/>
	<circle class="st3" cx="40.5" cy="56.5" r="5.2"/>
	<circle class="st3" cx="36.8" cy="60.9" r="7.2"/>
	<circle class="st3" cx="29.8" cy="60.9" r="6.2"/>
	<circle class="st3" cx="42.8" cy="63.8" r="3.8"/>
	<path class="st9" d="M40.5,35.4c0.7-3.3,1.3-7.4,1.3-11.6c0-4.5-0.6-9-1.4-12.6c-0.1,0-0.7,0.5-0.8,0.5c1.6,14.1-0.4,20.5-2.3,22.6
		c-1.6,1.8-3.4,1.5-3.9,1.4c0,0.2,0.1,0.3,0.1,0.5c0.2,0.7,0.6,2.2,0.9,3.2c0.9,2.6,1.8,4.2,2.5,4.2c0.8,0,1.8-1.9,2.7-4.9
		C40,37.7,40.2,36.6,40.5,35.4"/>
	<path class="st7" d="M40.2,36.5c2.3,0.5,4.2,1.8,3.4,5.2c-0.8,3.4-1,0.2-2.8-1.5c-0.4-0.3-1.1-0.5-1.5-0.5
		C39.2,38.6,39.7,37.1,40.2,36.5"/>
	<path class="st8" d="M33.7,36.5c-2.3,0.5-4.2,1.8-3.4,5.2c0.8,3.4,1,0.2,2.8-1.5c0.4-0.3,1.1-0.5,1.5-0.5
		C34.8,38.6,34.3,37.1,33.7,36.5"/>
	<path class="st4" d="M37,36.5c0.3,0,1,0.3,1,1.9s-0.4,6-1,6s-1-4.4-1-6S36.7,36.5,37,36.5"/>
	<path class="st11" d="M40.2,12.5c0.2,0,0.3-0.1,0.3-0.3s-0.1-0.3-0.3-0.3S40,12,40,12.2S40.1,12.5,40.2,12.5"/>
</g>
</svg>
