<svg xmlns="http://www.w3.org/2000/svg" viewBox="0 0 114.96 101.05"><defs><style>.cls-1{fill:#ffc20e;}.cls-2{fill:#e9513d;}.cls-3{fill:#85c446;}.cls-4{fill:#9d3f97;}.cls-5{fill:#00a7b8;}.cls-6{fill:#0878ac;}</style></defs><g id="Layer_2" data-name="Layer 2"><g id="Icons"><path class="cls-1" d="M18.67,70.65l3.19-.08.3,12.7L19,83.35,19,82a5.46,5.46,0,0,1-3.88,1.77A5.64,5.64,0,0,1,10.77,82a6.67,6.67,0,0,1-1.91-4.72,6.8,6.8,0,0,1,1.6-4.85A5.62,5.62,0,0,1,18.71,72Zm-3.28,2.69A3.24,3.24,0,0,0,13,74.45a3.79,3.79,0,0,0-.91,2.7,3.9,3.9,0,0,0,1,2.7,3.42,3.42,0,0,0,5-.12A3.77,3.77,0,0,0,19,77,3.46,3.46,0,0,0,15.39,73.34Z"/><path class="cls-1" d="M25.24,70.49l3.18-.08,0,1.3A5.54,5.54,0,0,1,32.19,70a4.3,4.3,0,0,1,3.23,1.24,4.54,4.54,0,0,1,1.21,3.29l.2,8.4L33.68,83l-.14-5.57a13.28,13.28,0,0,0-.29-3,1.89,1.89,0,0,0-2-1.48,2.74,2.74,0,0,0-2.57,2.5A15.13,15.13,0,0,0,28.6,78l.12,5.09-3.18.08Z"/><path class="cls-1" d="M49,65l3.18-.08.43,17.6-3.18.08,0-1.34A5.48,5.48,0,0,1,45.51,83a5.65,5.65,0,0,1-4.3-1.81,6.7,6.7,0,0,1-1.91-4.71,6.82,6.82,0,0,1,1.61-4.85,5.53,5.53,0,0,1,4.18-2,5.47,5.47,0,0,1,4.06,1.62ZM45.84,72.6a3.24,3.24,0,0,0-2.44,1.11,3.84,3.84,0,0,0-.92,2.7,4,4,0,0,0,1.05,2.71,3.34,3.34,0,0,0,2.49,1A3.29,3.29,0,0,0,48.48,79a3.87,3.87,0,0,0,.94-2.78A3.47,3.47,0,0,0,45.84,72.6Z"/><path class="cls-2" d="M78.83,6.47l1,.27c.42-1.53.67-2.43.79-2.7.48-1.25,1.61-1.8,3.3-1.37a6.18,6.18,0,0,1,1.93.94L85.3,5.85a3.72,3.72,0,0,0-1-.47,1.12,1.12,0,0,0-.8,0,.93.93,0,0,0-.34.61L82.8,7.49,84.64,8,84,10.44,82.16,10,79.8,19.13l-2.94-.76,2.36-9.16-1-.26Z"/><path class="cls-2" d="M91.79,9.48a6.33,6.33,0,1,1-3.16,12.25,6,6,0,0,1-3.81-2.88,6.26,6.26,0,0,1-.64-4.79,6.29,6.29,0,0,1,7.61-4.58Zm-.67,2.77a3.13,3.13,0,0,0-2.52.36,3.44,3.44,0,0,0-1.52,2.18,3.54,3.54,0,0,0,.26,2.7,3.08,3.08,0,0,0,2,1.53,3.3,3.3,0,0,0,4.08-2.6A3.23,3.23,0,0,0,91.12,12.25Z"/><path class="cls-2" d="M100,11.92l2.49.64L102.1,14a2.91,2.91,0,0,1,3-1.12,3,3,0,0,1,1.1.61l-1.54,2.27a2.5,2.5,0,0,0-.79-.46,1.38,1.38,0,0,0-1.36.54,7.89,7.89,0,0,0-1.3,3.14l-.15.57L99.87,24.3,97,23.55Z"/><path class="cls-3" d="M46.61,35l3.67-.4.16,1.49a6.43,6.43,0,0,1,4.16-2.35,5,5,0,0,1,3.86,1.12,5.29,5.29,0,0,1,1.72,3.69l1,9.69-3.64.4-.7-6.43a15.21,15.21,0,0,0-.62-3.46,2.19,2.19,0,0,0-2.46-1.52c-1.51.17-2.51,1.34-2.73,3.15a16.11,16.11,0,0,0,.16,3l.64,5.88-3.68.39Z"/><path class="cls-3" d="M70.15,32.06a7.76,7.76,0,1,1,1.67,15.43,7.41,7.41,0,0,1-5.62-1.66,7.64,7.64,0,0,1-2.8-5.22,7.69,7.69,0,0,1,6.75-8.55Zm.44,3.47A3.84,3.84,0,0,0,67.84,37a4.28,4.28,0,0,0-.8,3.15,4.41,4.41,0,0,0,1.47,3,3.76,3.76,0,0,0,3,.88,4,4,0,0,0,3.57-4.74A4,4,0,0,0,70.59,35.53Z"/><path class="cls-3" d="M80.62,31.31,83.76,31l.2,1.85a3.38,3.38,0,0,1,4.52-2.36l-.79,3.27a3,3,0,0,0-1.11-.19,1.71,1.71,0,0,0-1.32,1.21,9.74,9.74,0,0,0-.13,4.17l.07.72.65,5.94L82.2,46Z"/><path class="cls-4" d="M7,33.46,5.43,38.58a4.68,4.68,0,0,1,3.7-.39,4.65,4.65,0,0,1,2.95,2.59,5.74,5.74,0,0,1,.22,4.35,5.77,5.77,0,0,1-2.66,3.43A4.79,4.79,0,0,1,5.7,49,4.62,4.62,0,0,1,2.92,46.7l-.33,1.09L0,47,4.42,32.66Zm.84,6.95a3,3,0,0,0-3.78,2.15A3.34,3.34,0,0,0,4.18,45,2.89,2.89,0,0,0,6,46.53a2.76,2.76,0,0,0,2.25-.25,3.21,3.21,0,0,0,1.5-2,3.26,3.26,0,0,0-.12-2.43A2.79,2.79,0,0,0,7.85,40.41Z"/><path class="cls-4" d="M16,40.61l2.62.81-1.53,5a7,7,0,0,0-.43,2.06,1.8,1.8,0,0,0,1.36,1.74,1.86,1.86,0,0,0,2.15-.68A7.49,7.49,0,0,0,21,47.67l1.56-5.06,2.6.81L23.76,47.8a10.9,10.9,0,0,1-1.56,3.56,4.28,4.28,0,0,1-4.91,1.26c-2.28-.7-3.35-2.2-3.34-4.18a13.24,13.24,0,0,1,.75-3.52Z"/><path class="cls-4" d="M29.41,40.57l2.59.79-1.18,3.82,1.54.47-.68,2.22-1.54-.47-2.5,8.11-2.59-.8,2.5-8.11-1.32-.41L26.91,44l1.33.41Z"/><path class="cls-5" d="M72.89,79.66A9.34,9.34,0,1,1,69,97.91a8.87,8.87,0,0,1-5.8-4,9.19,9.19,0,0,1-1.21-7,9.27,9.27,0,0,1,11-7.2Zm-.82,4.13a4.63,4.63,0,0,0-3.7.67,5.08,5.08,0,0,0-2.11,3.3,5.25,5.25,0,0,0,.54,4,4.49,4.49,0,0,0,3.06,2.13,4.86,4.86,0,0,0,5.86-4.06A4.77,4.77,0,0,0,72.07,83.79Z"/><path class="cls-5" d="M85.12,82.78l3.72.81-.47,2.18A4.3,4.3,0,0,1,92.76,84a4.38,4.38,0,0,1,1.67.84l-2.15,3.44a3.43,3.43,0,0,0-1.19-.64,2,2,0,0,0-2,.88c-.63.71-1.21,2.3-1.74,4.71L87.2,94l-1.52,7-4.31-.93Z"/><path class="cls-6" d="M84.05,55.75l2.85.42,1.86,7.37L93,57.07l2.86.42L86.63,71.58l-2.88-.42,3-4.55Z"/><path class="cls-6" d="M107,65.62l-9-1.32a3,3,0,0,0,2.81,3,3.75,3.75,0,0,0,2.83-.69l2.17,1.45a5.62,5.62,0,0,1-5.34,1.7,5.81,5.81,0,0,1-4-2.27,5.66,5.66,0,0,1-1-4.38,5.81,5.81,0,0,1,2.25-3.95,5.55,5.55,0,0,1,4.36-1.08,5.69,5.69,0,0,1,4,2.32,6,6,0,0,1,1,4.66ZM104.53,63a3,3,0,0,0-2.66-2.52,3.33,3.33,0,0,0-2.14.34,3.83,3.83,0,0,0-1.23,1.29Z"/><path class="cls-6" d="M111.15,55.58l2.77.41-.6,4.09,1.64.24-.35,2.38L113,62.46l-1.28,8.7-2.78-.41,1.29-8.7-1.42-.21.35-2.38,1.42.21Z"/><path class="cls-5" d="M30.22,3.9l-3,2a4.28,4.28,0,0,0-2.49-2.05c-1-.19-1.56.14-1.68.72s0,.77,1.21,1.64l1.35,1.07c2.86,2.19,3.52,3.85,3.09,6a4.85,4.85,0,0,1-2.31,3.34,6.34,6.34,0,0,1-4.56.6,7,7,0,0,1-5.16-3.92l3.06-2.26a5.36,5.36,0,0,0,3,2.57c1.1.22,1.94-.29,2.06-.93s-.33-1.38-1.41-2.23l-1.25-.94c-2.38-1.85-3.37-3.79-3-5.79a4.35,4.35,0,0,1,2.12-3A5.55,5.55,0,0,1,25.38.14,6.75,6.75,0,0,1,30.22,3.9Z"/><path class="cls-5" d="M41.84,3.38a8.75,8.75,0,1,1-3.38,17.16A8.34,8.34,0,0,1,33,16.88a8.69,8.69,0,0,1-1.26-6.57,8.4,8.4,0,0,1,4.05-5.83A8.32,8.32,0,0,1,41.84,3.38Zm-.7,3.88A4.33,4.33,0,0,0,37.69,8a4.82,4.82,0,0,0-1.93,3.13,5,5,0,0,0,.58,3.72,4.23,4.23,0,0,0,2.9,1.94,4.56,4.56,0,0,0,5.43-3.91A4.47,4.47,0,0,0,41.14,7.26Z"/></g></g></svg>