<?xml version="1.0" encoding="utf-8"?>
<!-- Generator: Adobe Illustrator 21.1.0, SVG Export Plug-In . SVG Version: 6.00 Build 0)  -->
<svg version="1.1" id="Layer_1" xmlns="http://www.w3.org/2000/svg" xmlns:xlink="http://www.w3.org/1999/xlink" x="0px" y="0px"
	 viewBox="0 0 140.4 140.4" style="enable-background:new 0 0 140.4 140.4;" xml:space="preserve">
<style type="text/css">
	.st0{fill:#FAAF40;}
	.st1{fill:none;stroke:#F79527;stroke-width:1.8153;stroke-miterlimit:10;}
	.st2{fill:#F6921E;}
	.st3{fill:#FFCB49;}
	.st4{fill:#F37928;}
	.st5{fill:none;stroke:#F79527;stroke-width:1.6113;stroke-miterlimit:10;}
	.st6{fill:#FFC20E;}
</style>
<path class="st0" d="M54.3,86.1c6,10.1,3.1,24.6,3.1,24.6c13.5,0.2,30.3,3.7,40,16.3l14.3-47.6L54.3,86.1z"/>
<path class="st1" d="M61.7,113.4c1.9-10.1,1.9-21.6-3.1-31.4"/>
<path class="st1" d="M67.2,108.6c1.1-8.6,0.7-17.8-3-26.1"/>
<path class="st1" d="M72.4,105.1c1-8.4,0.4-17.3-3.3-25.3"/>
<path class="st1" d="M77.6,101.2c0.5-6.7-0.1-13.7-2.6-20.2"/>
<path class="st1" d="M82.1,96.5c0.4-5.7,0-11.6-1.7-17.2"/>
<path class="st1" d="M87.2,93.5c0.1-4.6-0.2-9.3-1.4-13.8"/>
<path class="st1" d="M68.5,107.5c10.2,1.1,21.2,4.4,29.2,12.1"/>
<path class="st1" d="M74.7,103.6c8.5,1.4,17.3,4.5,24.1,10.4"/>
<path class="st1" d="M79.6,99.6c8.3,1.5,16.7,4.6,23.3,10.4"/>
<path class="st1" d="M84.8,95.8c6.6,1.5,13.1,4.1,18.5,8.3"/>
<path class="st1" d="M90.6,92.8c5.6,1.3,11.1,3.4,16,6.6"/>
<path class="st1" d="M94.9,88.9c4.5,1.2,8.8,2.9,12.8,5.4"/>
<path class="st2" d="M102.7,127.3l18.7-51.5c0-0.1,0-0.2,0.1-0.2c0-0.1,0.1-0.2,0.1-0.4c0-0.1,0-0.2,0.1-0.3c0-0.1,0-0.2,0.1-0.4
	c0-0.1,0-0.2,0-0.3c0-0.1,0-0.2,0-0.2l0-47.6c-3.4-2.7-7-5-10.9-7l0,45.6c0,2.5-1.8,4.7-4.3,5.1l-50.3,9.2c-3,0.5-4.9,3.4-4.4,6.3
	c0.5,3,3.4,4.9,6.3,4.4l27.6-5c0.7-0.1,1.1,0.8,0.5,1.2l-28.9,18.1c-2.6,1.6-3.3,5-1.7,7.5c1.2,1.9,3.3,2.8,5.3,2.5
	c0.8-0.1,1.5-0.4,2.2-0.8l41-25.6c0.5-0.3,1.2,0.2,1,0.8l-12.7,34.8c-1,2.8,0.4,6,3.3,7c0.8,0.3,1.7,0.4,2.5,0.3
	C100.2,130.6,101.9,129.3,102.7,127.3z"/>
<path class="st3" d="M56.6,85.7c-3.5,0.5-8.3-2-8.3-2s3.8-3.7,7.4-4.2c1.9-0.3,3.6,0.9,3.9,2.6C59.8,83.9,58.5,85.5,56.6,85.7z"/>
<path class="st3" d="M60.9,111.8c-3.1,1.9-8.6,1.2-8.6,1.2s1.9-5.2,5-7.1c1.6-1,3.8-0.5,4.7,1.2C63,108.7,62.5,110.9,60.9,111.8z"/>
<path class="st3" d="M100.4,127.8c-1.3,3.3-6.1,6.1-6.1,6.1s-1.6-5.2-0.3-8.7c0.7-1.8,2.7-2.6,4.5-1.9
	C100.3,124,101.1,126,100.4,127.8z"/>
<path class="st4" d="M115.9,67.1c-1.1,1.5-3,2.3-4.9,1.9l0,0.1c-0.4,2.2,0.7,4.6,2.7,5.5c3,1.4,6.3-0.5,6.9-3.5l0-0.2
	c-1.9-0.4-3.4-1.8-3.8-3.6C116.8,66.9,116.2,66.8,115.9,67.1z"/>
<path class="st4" d="M113.8,78.6c-1.1,1.5-3,2.3-4.9,1.9l0,0.1c-0.4,2.2,0.7,4.6,2.7,5.5c3,1.4,6.3-0.5,6.9-3.5l0-0.2
	c-1.9-0.4-3.4-1.8-3.8-3.6C114.7,78.4,114.1,78.3,113.8,78.6z"/>
<path class="st4" d="M111.6,90.6c-0.1-0.4-0.6-0.6-0.9-0.3c-1.2,1.4-3.2,2-5.1,1.4l0,0.1c-0.7,2.2,0.2,4.6,2.2,5.7
	c2.1,1.2,4.5,0.7,6-0.8l0.9-2.4C113,93.8,111.8,92.3,111.6,90.6z"/>
<path class="st4" d="M108.2,102.3c-0.1-0.4-0.6-0.6-0.9-0.3c-1.2,1.4-3.2,2-5.1,1.4l0,0.1c-0.7,2.2,0.2,4.6,2.2,5.7
	c1.6,0.9,3.4,0.9,4.8,0.1l1.3-3.6C109.3,105,108.4,103.7,108.2,102.3z"/>
<path class="st4" d="M93.9,87.4c-1.8,0.2-3.7-0.6-4.8-2.2L89,85.2c-1.9,1.2-2.8,3.6-2.1,5.8c1.1,3.1,4.7,4.2,7.3,2.5l0.1-0.1
	c-1.1-1.7-1-3.7,0-5.3C94.6,87.8,94.3,87.3,93.9,87.4z"/>
<path class="st4" d="M84,93.7c-1.8,0.2-3.7-0.6-4.8-2.2l-0.1,0.1c-1.9,1.2-2.8,3.6-2.1,5.8c1.1,3.1,4.7,4.2,7.3,2.5l0.1-0.1
	c-1.1-1.7-1-3.7,0-5.3C84.7,94.1,84.4,93.6,84,93.7z"/>
<path class="st4" d="M74.1,99.8c-1.8,0.2-3.7-0.6-4.8-2.2l-0.1,0.1c-1.9,1.2-2.8,3.6-2.1,5.8c1.1,3.1,4.7,4.2,7.3,2.5l0.1-0.1
	c-1.1-1.7-1-3.7,0-5.3C74.8,100.3,74.5,99.8,74.1,99.8z"/>
<path class="st4" d="M109.5,71.7c-1.1,1.5-3,2.3-4.9,1.9l0,0.1c-0.4,2.2,0.7,4.6,2.7,5.5c3,1.4,6.3-0.5,6.9-3.5l0-0.2
	c-1.9-0.4-3.4-1.8-3.8-3.6C110.3,71.5,109.8,71.4,109.5,71.7z"/>
<path class="st4" d="M72,79.3c-0.2,3.3,2.8,5.7,5.8,5.1l0.2,0c-0.4-1.9,0.5-3.8,2-4.9c0.4-0.3,0.2-0.8-0.2-0.9
	c-1.5-0.4-2.7-1.5-3.3-2.9l-3.2,0.6C72.6,77.1,72.1,78.2,72,79.3z"/>
<path class="st4" d="M98.4,80.3c-1.8-0.5-3.2-1.9-3.6-3.9l-0.1,0c-2.3,0.4-4,2.3-4.1,4.6c-0.2,3.3,2.8,5.7,5.8,5.1l0.2,0
	c-0.4-1.9,0.5-3.8,2-4.9C98.9,80.9,98.8,80.4,98.4,80.3z"/>
<path class="st4" d="M103.2,82.9c-1.5-0.8-1.8-2.4-1.8-2.4c-3.2,1.2-4.1,4-3.5,5.6c0.9,2.3,3.8,2.7,5.7,1.4l0.1-0.1
	c-0.8-1.2-0.8-2.7-0.1-3.9C103.8,83.2,103.5,83,103.2,82.9z"/>
<path class="st4" d="M116.1,56.7c-0.8,1.7-2.5,2.8-4.5,2.8l0,0.1c0,2.3,1.5,4.4,3.8,4.9c3.2,0.7,6.1-1.7,6.1-4.8l0-0.2
	c-2,0-3.7-1.2-4.5-2.8C116.9,56.3,116.3,56.3,116.1,56.7z"/>
<path class="st4" d="M116.1,44.9c-0.8,1.7-2.5,2.8-4.5,2.8l0,0.1c0,2.3,1.5,4.4,3.8,4.9c3.2,0.7,6.1-1.7,6.1-4.8l0-0.2
	c-2,0-3.7-1.2-4.5-2.8C116.9,44.5,116.3,44.5,116.1,44.9z"/>
<path class="st4" d="M116.1,33.1c-0.8,1.7-2.5,2.8-4.5,2.8l0,0.1c0,2.3,1.5,4.4,3.8,4.9c3.2,0.7,6.1-1.7,6.1-4.8l0-0.2
	c-2,0-3.7-1.2-4.5-2.8C116.9,32.7,116.3,32.7,116.1,33.1z"/>
<path class="st4" d="M121,46.8c0.2,0.1,0.5,0.1,0.7,0.1l0-7.9c0,0,0,0,0,0c-0.8,1.7-2.5,2.8-4.5,2.8l0,0.1
	C117.2,44.2,118.8,46.3,121,46.8z"/>
<path class="st4" d="M117.3,30l0,0.1c0,2.3,1.5,4.4,3.8,4.9c0.2,0.1,0.5,0.1,0.7,0.1l0-7.9c0,0,0,0,0,0
	C120.9,28.9,119.2,30,117.3,30z"/>
<path class="st4" d="M121,58.6c0.2,0.1,0.5,0.1,0.7,0.1l0-7.9c0,0,0,0,0,0c-0.8,1.7-2.5,2.8-4.5,2.8l0,0.1
	C117.2,56,118.8,58.1,121,58.6z"/>
<path class="st4" d="M108.9,99.1L108.9,99.1c-0.7,2.2,0.1,4.5,1.9,5.7l2.3-6.4C112,99.2,110.4,99.5,108.9,99.1z"/>
<path class="st4" d="M105,113.7c-0.1-0.4-0.6-0.6-0.9-0.3c-1.2,1.4-3.2,2-5.1,1.4l0,0.1c-0.7,2.2,0.2,4.6,2.2,5.7
	c1.2,0.7,2.6,0.8,3.7,0.5l1.7-4.6C105.7,115.8,105.2,114.8,105,113.7z"/>
<path class="st4" d="M121.7,62.4c-0.8,1.7-2.5,2.8-4.5,2.8l0,0.1c0,2.3,1.5,4.4,3.8,4.9c0.2,0.1,0.5,0.1,0.7,0.1L121.7,62.4
	C121.7,62.4,121.7,62.4,121.7,62.4z"/>
<path class="st4" d="M117.4,86c-1.2,1.4-3.2,2-5.1,1.4l0,0.1c-0.7,2.2,0.2,4.6,2.2,5.7c0.2,0.1,0.3,0.2,0.5,0.2l2.8-7.6
	C117.6,85.9,117.5,85.9,117.4,86z"/>
<path class="st4" d="M105.7,110.5L105.7,110.5c-0.6,1.9-0.1,3.8,1.2,5.1l1.9-5.2C107.8,110.7,106.8,110.8,105.7,110.5z"/>
<path class="st4" d="M120.3,73.9c-1.1,1.5-3,2.3-4.9,1.9l0,0.1c-0.4,2.2,0.7,4.6,2.7,5.5c0.4,0.2,0.8,0.3,1.2,0.4l2.2-5.9
	c0-0.1,0-0.2,0.1-0.2c0-0.1,0.1-0.2,0.1-0.4c0,0,0-0.1,0-0.1c-0.2-0.3-0.3-0.7-0.4-1C121.1,73.7,120.5,73.6,120.3,73.9z"/>
<path class="st4" d="M116.1,53.6c-2,0-3.7-1.2-4.5-2.8c-0.1-0.3-0.5-0.4-0.8-0.2l0,8.1c2.9,0.2,5.2-2.1,5.2-4.9L116.1,53.6z"/>
<path class="st4" d="M111.6,39c-0.1-0.3-0.5-0.4-0.8-0.2l0,8.1c2.9,0.2,5.2-2.1,5.2-4.9l0-0.2C114.1,41.8,112.4,40.7,111.6,39z"/>
<path class="st4" d="M111.6,27.2c-0.1-0.3-0.5-0.4-0.8-0.2l0,8.1c2.9,0.2,5.2-2.1,5.2-4.9l0-0.2C114.1,30,112.4,28.9,111.6,27.2z"/>
<path class="st4" d="M72,107.7c-1.8,0.2-3.7-0.6-4.8-2.2l-0.1,0.1c-1.9,1.2-2.8,3.6-2.1,5.8c0.1,0.3,0.2,0.5,0.4,0.8l6.9-4.3
	C72.2,107.8,72.1,107.7,72,107.7z"/>
<path class="st4" d="M77.1,99.3L77.1,99.3c-2,1.3-2.9,3.7-2.1,5.9c0.1,0.3,0.2,0.5,0.4,0.8l6.9-4.3c-0.1-0.1-0.2-0.1-0.4-0.1
	C80,101.8,78.1,101,77.1,99.3z"/>
<path class="st4" d="M76.6,98.4l0.1-0.1c-1.1-1.7-1-3.7,0-5.3c0.1-0.2,0.1-0.5-0.1-0.7l-6.9,4.3C71,99.2,74.2,99.9,76.6,98.4z"/>
<path class="st4" d="M66.7,104.6l0.1-0.1c-1.1-1.7-1-3.7,0-5.3c0.1-0.2,0.1-0.5-0.1-0.7l-6.9,4.3C61.1,105.4,64.3,106.1,66.7,104.6z
	"/>
<path class="st4" d="M77.5,75.5c1,1.7,3,2.7,5.1,2.3l0.2,0c-0.2-1.2,0-2.4,0.6-3.4L77.5,75.5z"/>
<path class="st4" d="M86.5,86.1c0,0.1-0.1,0.1-0.2,0.1l-6.7,4.2c1.4,2.4,4.6,3.2,6.9,1.6l0.1-0.1c-1.1-1.7-1-3.7,0-5.3
	C86.7,86.5,86.6,86.3,86.5,86.1z"/>
<path class="st4" d="M106.6,70.2l-5.1,0.9c0.5,0.6,1,1.1,1.8,1.4c3,1.4,6.3-0.5,6.9-3.5l0-0.2c-0.3-0.1-0.5-0.1-0.8-0.2
	C108.7,69.4,107.7,70,106.6,70.2z"/>
<path class="st4" d="M96.1,113.4l-1.7,4.8c1.7-0.3,3.2-1.6,3.8-3.4l0-0.2C97.4,114.4,96.7,113.9,96.1,113.4z"/>
<path class="st4" d="M91.5,77.1c0.4-0.3,0.2-0.8-0.2-0.9c-1.3-0.4-2.5-1.3-3.1-2.6l-3.7,0.7c-0.6,0.7-0.9,1.6-1,2.6
	c-0.2,3.3,2.8,5.7,5.8,5.1l0.2,0C89.2,80,90,78.2,91.5,77.1z"/>
<path class="st4" d="M101.9,89.1c-1.8,0.3-3.7-0.4-4.9-2.1L97,87.1c-1.9,1.3-2.7,3.7-1.8,5.9c0.1,0.2,0.2,0.3,0.2,0.5l6.9-4.3
	C102.2,89.1,102.1,89,101.9,89.1z"/>
<path class="st4" d="M111.5,87.4l0-0.2c-1.9-0.6-3.2-2.2-3.5-4c-0.1-0.4-0.5-0.5-0.9-0.3c-1.3,0.8-2.7,0.5-2.7,0.5
	c-1.4,1.6,0.2,4.4,0.3,4.4c0.3,0.1,0.5,0.5,0.4,0.8l-0.6,1.6C107.3,91.8,110.6,90.3,111.5,87.4z"/>
<path class="st4" d="M108.1,99l0-0.2c-1.9-0.6-3.2-2.2-3.5-4c-0.1-0.4-0.6-0.6-0.9-0.3c-0.3,0.4-0.7,0.7-1.2,0.9l-2.2,6
	c0.1,0.1,0.3,0.2,0.4,0.3C103.8,103.5,107.2,102,108.1,99z"/>
<path class="st4" d="M101.4,103.3l0-0.2c-0.5-0.1-0.9-0.4-1.3-0.6l-1.4,3.8C99.9,105.7,100.9,104.7,101.4,103.3z"/>
<path class="st4" d="M95.3,74.4c-0.2,3.3,2.8,5.7,5.8,5.1l0.2,0c-0.4-1.9,0.5-3.8,2-4.9c0.4-0.3,0.2-0.8-0.2-0.9
	c-1.3-0.3-2.3-1.2-3-2.3l-4,0.7C95.6,72.8,95.3,73.6,95.3,74.4z"/>
<path class="st4" d="M75.3,86.1c0.4-0.3,0.2-0.8-0.2-0.9c-1.8-0.5-3.2-1.9-3.6-3.9l-0.1,0c-2.3,0.4-4,2.3-4.1,4.6
	c0,0.9,0.2,1.7,0.5,2.5l6.4-1.2C74.5,86.8,74.9,86.4,75.3,86.1z"/>
<path class="st4" d="M104.9,110.4l0-0.2c-1.9-0.6-3.2-2.2-3.5-4c-0.1-0.4-0.6-0.6-0.9-0.3c-0.6,0.7-1.4,1.2-2.3,1.4l-1.8,4.9
	c0.3,0.4,0.7,0.7,1.1,1C100.5,114.9,104,113.4,104.9,110.4z"/>
<path class="st4" d="M91.8,95.3c-1.8,0.2-3.7-0.6-4.8-2.2l-0.1,0.1c-1.9,1.2-2.8,3.6-2.1,5.8c0.1,0.3,0.3,0.6,0.4,0.9l6.9-4.3
	C92.1,95.3,92,95.2,91.8,95.3z"/>
<path class="st4" d="M71,80.3l0.2,0c-0.3-1.4,0.1-2.7,0.9-3.8l-6.3,1.2C66.7,79.6,68.8,80.7,71,80.3z"/>
<path class="st4" d="M94.3,75.4l0.2,0c-0.2-1.1,0-2.1,0.5-3.1l-5.6,1C90.4,74.9,92.3,75.8,94.3,75.4z"/>
<path class="st4" d="M60.3,81.8c-0.2,3.3,2.8,5.7,5.8,5.1l0.2,0c-0.4-1.9,0.5-3.8,2-4.9c0.4-0.3,0.2-0.8-0.2-0.9
	c-1.6-0.4-2.9-1.6-3.4-3.2L62,78.3C61,79.2,60.3,80.4,60.3,81.8z"/>
<path class="st4" d="M86.6,82.7c-1.8-0.5-3.2-1.9-3.6-3.9l-0.1,0c-2.3,0.4-4,2.3-4.1,4.6c0,0.9,0.2,1.7,0.5,2.5
	c-0.1,0.1-0.1,0.3-0.2,0.4l6.3-1.1c0.3-0.6,0.8-1.1,1.3-1.5C87.2,83.4,87.1,82.8,86.6,82.7z"/>
<path class="st4" d="M102.3,80.5c1.1,2.3,4.5,2.3,5.5,0c-2.7-1.1-3.7-2.2-4-4.4C103.2,76.4,101.4,78.6,102.3,80.5z"/>
<path class="st4" d="M115.2,65.7c-1.2,0-3.4-1.2-4.4-3.7l0,3.1c0,1-0.3,1.9-0.8,2.7C111.9,68.1,114.2,68.3,115.2,65.7z"/>
<path class="st0" d="M18.2,34.7c5.3,9,2.7,21.8,2.7,21.8c12,0.2,26.9,3.3,35.5,14.5l12.7-42.3L18.2,34.7z"/>
<path class="st5" d="M24.7,59c1.7-9,1.7-19.2-2.8-27.9"/>
<path class="st5" d="M29.6,54.8c1-7.6,0.6-15.8-2.7-23.1"/>
<path class="st5" d="M34.3,51.6c0.9-7.4,0.4-15.4-2.9-22.5"/>
<path class="st5" d="M38.9,48.2c0.4-6-0.1-12.2-2.3-17.9"/>
<path class="st5" d="M42.9,44c0.3-5.1,0-10.3-1.5-15.3"/>
<path class="st5" d="M47.3,41.3c0.1-4.1-0.2-8.3-1.3-12.3"/>
<path class="st5" d="M30.8,53.8c9.1,1,18.9,3.9,25.9,10.7"/>
<path class="st5" d="M36.2,50.3c7.6,1.2,15.3,4,21.4,9.2"/>
<path class="st5" d="M40.6,46.8c7.4,1.3,14.8,4.1,20.7,9.3"/>
<path class="st5" d="M45.3,43.4c5.8,1.3,11.6,3.6,16.5,7.4"/>
<path class="st5" d="M50.4,40.8c5,1.1,9.9,3,14.2,5.8"/>
<path class="st5" d="M54.2,37.2c4,1.1,7.8,2.6,11.4,4.8"/>
<path class="st2" d="M68.4,1l0,15.1c0,2.2-1.6,4.2-3.8,4.6l-44.6,8.2c-2.6,0.5-4.4,3-3.9,5.6c0.5,2.6,3,4.4,5.6,3.9l24.5-4.5
	c0.6-0.1,1,0.7,0.4,1.1L20.9,51c-2.3,1.4-3,4.4-1.5,6.7c1,1.6,2.9,2.5,4.7,2.2c0.7-0.1,1.3-0.3,2-0.7l36.4-22.7
	c0.5-0.3,1,0.2,0.9,0.7L52,68c-0.9,2.5,0.4,5.3,2.9,6.2c0.7,0.3,1.5,0.3,2.2,0.3c1.7-0.2,3.3-1.4,3.9-3.1l16.6-45.7
	c0-0.1,0-0.1,0.1-0.2c0-0.1,0.1-0.2,0.1-0.3c0-0.1,0-0.2,0.1-0.3c0-0.1,0-0.2,0-0.3c0-0.1,0-0.2,0-0.3c0-0.1,0-0.1,0-0.2l0-22.5
	C74.8,1.1,71.6,1,68.4,1z"/>
<path class="st3" d="M20.2,34.4c-3.1,0.5-7.4-1.7-7.4-1.7s3.4-3.3,6.6-3.7c1.7-0.2,3.2,0.8,3.4,2.3S21.9,34.2,20.2,34.4z"/>
<path class="st3" d="M24,57.6c-2.7,1.6-7.6,1.1-7.6,1.1s1.6-4.6,4.4-6.3c1.4-0.9,3.3-0.4,4.2,1S25.5,56.7,24,57.6z"/>
<path class="st3" d="M59.1,71.8c-1.2,3-5.4,5.5-5.4,5.5s-1.5-4.6-0.3-7.7c0.6-1.6,2.4-2.3,4-1.7C59,68.4,59.7,70.2,59.1,71.8z"/>
<path class="st4" d="M72.9,17.9c-1,1.3-2.7,2-4.4,1.7l0,0.1c-0.4,2,0.6,4.1,2.4,4.9c2.7,1.2,5.6-0.4,6.2-3.1l0-0.1
	c-1.7-0.3-3-1.6-3.4-3.2C73.6,17.7,73.1,17.6,72.9,17.9z"/>
<path class="st4" d="M71,28.1c-1,1.3-2.7,2-4.4,1.7l0,0.1c-0.4,2,0.6,4.1,2.4,4.9c2.7,1.2,5.6-0.4,6.2-3.1l0-0.1
	c-1.7-0.3-3-1.6-3.4-3.2C71.8,27.9,71.2,27.8,71,28.1z"/>
<path class="st4" d="M69,38.8c-0.1-0.4-0.6-0.5-0.8-0.2c-1.1,1.2-2.8,1.7-4.5,1.2l0,0.1c-0.6,1.9,0.2,4.1,2,5.1
	c1.9,1.1,4,0.6,5.3-0.7l0.8-2.1C70.2,41.6,69.2,40.3,69,38.8z"/>
<path class="st4" d="M66,49.1c-0.1-0.4-0.6-0.5-0.8-0.2c-1.1,1.2-2.8,1.7-4.5,1.2l0,0.1c-0.6,1.9,0.2,4.1,2,5.1
	c1.4,0.8,3,0.8,4.3,0.1l1.2-3.2C67,51.5,66.2,50.4,66,49.1z"/>
<path class="st4" d="M53.3,35.9c-1.6,0.2-3.3-0.5-4.2-2L49,34c-1.7,1.1-2.5,3.2-1.8,5.1c1,2.8,4.2,3.7,6.5,2.3l0.1-0.1
	c-0.9-1.5-0.9-3.3,0-4.7C54,36.3,53.7,35.8,53.3,35.9z"/>
<path class="st4" d="M44.5,41.5c-1.6,0.2-3.3-0.5-4.2-2l-0.1,0c-1.7,1.1-2.5,3.2-1.8,5.1c1,2.8,4.2,3.7,6.5,2.3l0.1-0.1
	c-0.9-1.5-0.9-3.3,0-4.7C45.2,41.9,44.9,41.4,44.5,41.5z"/>
<path class="st4" d="M35.7,47c-1.6,0.2-3.3-0.5-4.2-2l-0.1,0c-1.7,1.1-2.5,3.2-1.8,5.1c1,2.8,4.2,3.7,6.5,2.3l0.1-0.1
	c-0.9-1.5-0.9-3.3,0-4.7C36.4,47.4,36.1,46.9,35.7,47z"/>
<path class="st4" d="M67.2,22c-1,1.3-2.7,2-4.4,1.7l0,0.1c-0.4,2,0.6,4.1,2.4,4.9c2.7,1.2,5.6-0.4,6.2-3.1l0-0.1
	c-1.7-0.3-3-1.6-3.4-3.2C67.9,21.8,67.4,21.7,67.2,22z"/>
<path class="st4" d="M33.9,28.8c-0.1,2.9,2.5,5.1,5.2,4.6l0.1,0c-0.3-1.7,0.4-3.4,1.7-4.3c0.3-0.2,0.2-0.7-0.2-0.8
	c-1.3-0.4-2.4-1.3-2.9-2.6l-2.8,0.5C34.4,26.8,33.9,27.7,33.9,28.8z"/>
<path class="st4" d="M57.3,29.6c-1.6-0.4-2.9-1.7-3.2-3.4l-0.1,0c-2,0.4-3.6,2-3.6,4.1c-0.1,2.9,2.5,5.1,5.2,4.6l0.1,0
	c-0.3-1.7,0.4-3.4,1.7-4.3C57.8,30.2,57.7,29.7,57.3,29.6z"/>
<path class="st4" d="M61.6,31.9c-1.3-0.7-1.6-2.1-1.6-2.1c-2.9,1.1-3.7,3.5-3.1,4.9c0.8,2.1,3.4,2.4,5.1,1.2l0.1-0.1
	c-0.7-1.1-0.7-2.4-0.1-3.5C62.1,32.2,61.8,32.1,61.6,31.9z"/>
<path class="st4" d="M73,8.7c-0.7,1.5-2.2,2.5-4,2.5l0,0.1c0,2,1.4,3.9,3.3,4.3c2.9,0.7,5.4-1.5,5.4-4.3l0-0.1c-1.7,0-3.3-1-4-2.5
	C73.7,8.3,73.2,8.3,73,8.7z"/>
<path class="st4" d="M77.4,10.4c0.2,0.1,0.4,0.1,0.6,0.1l0-7c0,0,0,0,0,0C77.3,5,75.8,6,74,6l0,0.1C74,8.1,75.4,9.9,77.4,10.4z"/>
<path class="st4" d="M66.6,46.3L66.6,46.3c-0.6,2,0.1,4,1.7,5l2.1-5.7C69.4,46.4,68,46.7,66.6,46.3z"/>
<path class="st4" d="M63.1,59.3c-0.1-0.4-0.6-0.5-0.8-0.2c-1.1,1.2-2.8,1.7-4.5,1.2l0,0.1c-0.6,1.9,0.2,4.1,2,5.1
	c1.1,0.6,2.3,0.7,3.3,0.4l1.5-4.1C63.8,61.2,63.3,60.2,63.1,59.3z"/>
<path class="st4" d="M78,13.8c-0.7,1.5-2.2,2.5-4,2.5l0,0.1c0,2,1.4,3.9,3.3,4.3c0.2,0.1,0.4,0.1,0.6,0.1L78,13.8
	C78,13.7,78,13.7,78,13.8z"/>
<path class="st4" d="M74.1,34.7c-1.1,1.2-2.8,1.7-4.5,1.2l0,0.1c-0.6,1.9,0.2,4.1,2,5.1c0.1,0.1,0.3,0.1,0.4,0.2l2.5-6.8
	C74.4,34.6,74.2,34.6,74.1,34.7z"/>
<path class="st4" d="M63.8,56.4L63.8,56.4c-0.5,1.7-0.1,3.4,1.1,4.5l1.7-4.6C65.7,56.7,64.7,56.7,63.8,56.4z"/>
<path class="st4" d="M76.7,24c-1,1.3-2.7,2-4.4,1.7l0,0.1c-0.4,2,0.6,4.1,2.4,4.9c0.3,0.2,0.7,0.3,1.1,0.3l1.9-5.3
	c0-0.1,0-0.1,0.1-0.2c0-0.1,0.1-0.2,0.1-0.3c0,0,0-0.1,0-0.1c-0.2-0.3-0.3-0.6-0.4-0.9C77.4,23.7,76.9,23.6,76.7,24z"/>
<path class="st4" d="M73,6c-1.7,0-3.3-1-4-2.5c-0.1-0.3-0.5-0.3-0.7-0.2l0,7.2c2.5,0.1,4.6-1.9,4.7-4.4L73,6z"/>
<path class="st4" d="M33.8,54c-1.6,0.2-3.3-0.5-4.2-2l-0.1,0c-1.7,1.1-2.5,3.2-1.8,5.1c0.1,0.3,0.2,0.5,0.3,0.7l6.1-3.8
	C34.1,54,34,54,33.8,54z"/>
<path class="st4" d="M38.4,46.5L38.4,46.5c-1.8,1.1-2.6,3.3-1.9,5.2c0.1,0.2,0.2,0.5,0.3,0.7l6.1-3.8c-0.1-0.1-0.2-0.1-0.3-0.1
	C41,48.7,39.3,48,38.4,46.5z"/>
<path class="st4" d="M37.9,45.7l0.1-0.1c-0.9-1.5-0.9-3.3,0-4.7c0.1-0.2,0-0.5-0.1-0.6l-6.1,3.8C33,46.4,35.8,47.1,37.9,45.7z"/>
<path class="st4" d="M29.1,51.2l0.1-0.1c-0.9-1.5-0.9-3.3,0-4.7c0.1-0.2,0-0.5-0.1-0.6L23,49.7C24.2,51.9,27,52.5,29.1,51.2z"/>
<path class="st4" d="M38.7,25.4c0.9,1.5,2.7,2.4,4.5,2.1l0.1,0c-0.2-1.1,0-2.1,0.5-3L38.7,25.4z"/>
<path class="st4" d="M46.7,34.8c0,0-0.1,0.1-0.1,0.1l-6,3.7c1.3,2.1,4.1,2.8,6.1,1.5l0.1-0.1c-0.9-1.5-0.9-3.3,0-4.7
	C46.9,35.2,46.9,34.9,46.7,34.8z"/>
<path class="st4" d="M64.5,20.7L60,21.5c0.4,0.5,0.9,1,1.6,1.3c2.7,1.2,5.6-0.4,6.2-3.1l0-0.1c-0.2,0-0.5-0.1-0.7-0.2
	C66.4,20,65.6,20.5,64.5,20.7z"/>
<path class="st4" d="M55.3,59l-1.6,4.3c1.5-0.3,2.9-1.4,3.3-3l0-0.1C56.4,59.9,55.8,59.5,55.3,59z"/>
<path class="st4" d="M51.2,26.8c0.3-0.2,0.2-0.7-0.2-0.8c-1.2-0.3-2.2-1.2-2.8-2.3L45,24.2c-0.5,0.7-0.8,1.5-0.9,2.3
	c-0.1,2.9,2.5,5.1,5.2,4.6l0.1,0C49.1,29.4,49.9,27.7,51.2,26.8z"/>
<path class="st4" d="M60.4,37.4c-1.6,0.3-3.3-0.4-4.3-1.8l-0.1,0.1c-1.7,1.2-2.4,3.3-1.6,5.2c0.1,0.2,0.1,0.3,0.2,0.4l6.1-3.8
	C60.7,37.4,60.6,37.4,60.4,37.4z"/>
<path class="st4" d="M68.9,35.9l0-0.1c-1.7-0.5-2.8-1.9-3.1-3.5c-0.1-0.4-0.5-0.4-0.8-0.2c-1.2,0.7-2.4,0.4-2.4,0.4
	c-1.2,1.5,0.2,3.9,0.3,3.9c0.3,0.1,0.4,0.4,0.3,0.7l-0.5,1.4C65.2,39.8,68.2,38.5,68.9,35.9z"/>
<path class="st4" d="M65.9,46.3l0-0.1c-1.7-0.5-2.8-1.9-3.1-3.5c-0.1-0.4-0.6-0.5-0.8-0.2c-0.3,0.3-0.7,0.6-1,0.8l-1.9,5.3
	c0.1,0.1,0.2,0.2,0.4,0.3C62.1,50.2,65.1,48.9,65.9,46.3z"/>
<path class="st4" d="M59.9,50l0-0.1c-0.4-0.1-0.8-0.3-1.2-0.6l-1.2,3.4C58.7,52.2,59.6,51.3,59.9,50z"/>
<path class="st4" d="M54.5,24.4c-0.1,2.9,2.5,5.1,5.2,4.6l0.1,0c-0.3-1.7,0.4-3.4,1.7-4.3c0.3-0.2,0.2-0.7-0.2-0.8
	c-1.1-0.3-2.1-1-2.7-2.1l-3.6,0.7C54.8,23,54.6,23.7,54.5,24.4z"/>
<path class="st4" d="M36.8,34.8c0.3-0.2,0.2-0.7-0.2-0.8c-1.6-0.4-2.9-1.7-3.2-3.4l-0.1,0c-2,0.4-3.6,2-3.6,4.1
	c0,0.8,0.1,1.5,0.5,2.2l5.7-1C36.1,35.4,36.4,35.1,36.8,34.8z"/>
<path class="st4" d="M63.1,56.4l0-0.1c-1.7-0.5-2.8-1.9-3.1-3.5c-0.1-0.4-0.6-0.5-0.8-0.2c-0.5,0.6-1.2,1-2,1.2l-1.6,4.3
	c0.3,0.3,0.6,0.6,1,0.8C59.2,60.4,62.3,59,63.1,56.4z"/>
<path class="st4" d="M51.4,42.9c-1.6,0.2-3.3-0.5-4.2-2l-0.1,0c-1.7,1.1-2.5,3.2-1.8,5.1c0.1,0.3,0.2,0.5,0.4,0.8l6.2-3.8
	C51.7,43,51.6,42.9,51.4,42.9z"/>
<path class="st4" d="M33,29.7l0.1,0c-0.2-1.2,0.1-2.4,0.8-3.4l-5.6,1C29.2,29,31.1,30,33,29.7z"/>
<path class="st4" d="M53.7,25.3l0.1,0c-0.2-1,0-1.9,0.4-2.7l-4.9,0.9C50.2,24.8,51.9,25.6,53.7,25.3z"/>
<path class="st4" d="M23.5,30.9c-0.1,2.9,2.5,5.1,5.2,4.6l0.1,0c-0.3-1.7,0.4-3.4,1.7-4.3c0.3-0.2,0.2-0.7-0.2-0.8
	c-1.4-0.4-2.5-1.4-3-2.8L25,27.9C24.1,28.6,23.5,29.7,23.5,30.9z"/>
<path class="st4" d="M46.9,31.7c-1.6-0.4-2.9-1.7-3.2-3.4l-0.1,0c-2,0.4-3.6,2-3.6,4.1c0,0.8,0.1,1.5,0.4,2.2
	c-0.1,0.1-0.1,0.2-0.1,0.4l5.6-1c0.3-0.5,0.7-1,1.2-1.3C47.3,32.4,47.3,31.8,46.9,31.7z"/>
<path class="st4" d="M60.7,29.8c0.9,2,4,2.1,4.8,0c-2.4-1-3.3-2-3.6-3.9C61.6,26.2,60,28.1,60.7,29.8z"/>
<path class="st4" d="M72.2,16.7c-1.1,0-3-1.1-3.9-3.3l0,2.8c0,0.9-0.3,1.7-0.7,2.4C69.3,18.8,71.4,19,72.2,16.7z"/>
<path class="st6" d="M135.1,43C122.3,12.5,89.8-4.9,57.4,1.2C72.5,23.5,109.1,41,135.1,43z"/>
</svg>
