<?xml version="1.0" encoding="utf-8"?>
<!-- Generator: Adobe Illustrator 24.2.3, SVG Export Plug-In . SVG Version: 6.00 Build 0)  -->
<svg version="1.1" id="Layer_1" xmlns="http://www.w3.org/2000/svg" xmlns:xlink="http://www.w3.org/1999/xlink" x="0px" y="0px"
	 viewBox="0 0 141.5 141.5" style="enable-background:new 0 0 141.5 141.5;" xml:space="preserve">
<style type="text/css">
	.st0{enable-background:new    ;}
	.st1{fill:#231F20;}
</style>
<g id="Layer_2_1_">
	<g id="Icons">
		<g class="st0">
			<path class="st1" d="M38.9,50.4h6.7v9.8h4v5.7h-4v20.9h-6.7V65.9h-3.4v-5.7h3.4V50.4z"/>
		</g>
		<g class="st0">
			<path class="st1" d="M79.5,75.4H58c0.7,3.8,3.5,6.2,7.7,6.2c2.5,0,4.6-0.8,6.4-2.6l5.6,2.7c-2.8,4-6.6,5.8-12,5.8
				c-4.2,0-7.6-1.3-10.2-3.9c-2.6-2.7-4-6-4-9.9c0-4.1,1.3-7.4,3.9-10.1c2.7-2.7,5.9-4.1,9.9-4.1c4.2,0,7.6,1.4,10.2,4.1
				c2.6,2.7,4,6.2,4,10.6V75.4z M72.8,70.1c-0.8-3-3.7-5-7.1-5c-1.9,0-3.5,0.5-4.9,1.6c-0.9,0.6-1.7,1.8-2.5,3.5H72.8z"/>
		</g>
		<g class="st0">
			<path class="st1" d="M84.2,49.9h6.7v36.8h-6.7V49.9z"/>
		</g>
		<g class="st0">
			<path class="st1" d="M96.8,49.9h6.7v36.8h-6.7V49.9z"/>
		</g>
	</g>
</g>
</svg>
