<?xml version="1.0" encoding="utf-8"?>
<!-- Generator: Adobe Illustrator 24.2.3, SVG Export Plug-In . SVG Version: 6.00 Build 0)  -->
<svg version="1.1" id="Layer_1" xmlns="http://www.w3.org/2000/svg" xmlns:xlink="http://www.w3.org/1999/xlink" x="0px" y="0px"
	 viewBox="0 0 141.5 141.5" style="enable-background:new 0 0 141.5 141.5;" xml:space="preserve">
<style type="text/css">
	.st0{enable-background:new    ;}
	.st1{fill:#231F20;}
</style>
<g id="Layer_2_1_">
	<g id="Icons">
		<g class="st0">
			<path class="st1" d="M62.1,59.5c7.5-0.2,14.4,6.5,14.1,14c0.2,7.5-6.3,14.2-14.1,14c-3.8,0-7.1-1.3-9.8-4.1c-2.7-2.8-4-6-4-9.9
				c0-4.1,1.5-7.6,4.6-10.4C55.5,60.7,58.6,59.5,62.1,59.5z M62.2,65.8c-2.1,0-3.8,0.7-5.2,2.2c-1.4,1.5-2,3.2-2,5.5
				c0,2.3,0.7,4.2,2,5.7c1.4,1.4,3.1,2.2,5.2,2.2c4.2,0,7.3-3.2,7.3-7.8C69.4,68.9,66.4,65.8,62.2,65.8z"/>
		</g>
		<g class="st0">
			<path class="st1" d="M80.5,60.2h5.7v3.4c1.2-2.7,3.4-4.1,5.8-4.1c0.9,0,1.8,0.2,2.7,0.7l-2,5.7c-0.8-0.3-1.5-0.5-2-0.5
				c-1,0-1.9,0.7-2.6,1.9c-0.7,1.2-1.1,3.8-1.1,7.5V76v10.8h-6.6V60.2z"/>
		</g>
	</g>
</g>
</svg>
