<?xml version="1.0" encoding="UTF-8"?>
<svg id="Layer_3" xmlns="http://www.w3.org/2000/svg" version="1.1" xmlns:xlink="http://www.w3.org/1999/xlink" viewBox="0 0 185.3 185.3">
  <!-- Generator: Adobe Illustrator 29.2.1, SVG Export Plug-In . SVG Version: 2.1.0 Build 116)  -->
  <polygon points="105.6 143 105.6 111.6 79.6 111.6 79.6 143 55.2 143 92.6 183.8 130.1 143 105.6 143"/>
  <polygon points="79.6 42.1 79.6 73.6 105.6 73.6 105.6 42.1 130.1 42.1 92.6 1.3 55.2 42.1 79.6 42.1"/>
  <polygon points="42 105.6 73.4 105.6 73.4 79.6 42 79.6 42 55.1 1.2 92.6 42 130 42 105.6"/>
  <polygon points="142.9 79.6 111.5 79.6 111.5 105.6 142.9 105.6 142.9 130 183.7 92.6 142.9 55.1 142.9 79.6"/>
</svg>