<?xml version='1.0' encoding='UTF-8'?>
<!-- Generator: Adobe Illustrator 16.0.4, SVG Export Plug-In . SVG Version: 6.00 Build 0)  -->
<!DOCTYPE svg PUBLIC "-//W3C//DTD SVG 1.1//EN" "http://www.w3.org/Graphics/SVG/1.1/DTD/svg11.dtd">
<svg xmlns="http://www.w3.org/2000/svg" xmlns:xlink="http://www.w3.org/1999/xlink" version="1.1" id="Layer_1" x="0px" y="0px" width="140.4px" height="140.4px" viewBox="0 0 140.4 140.4" enable-background="new 0 0 140.4 140.4" xml:space="preserve">
<circle cx="70.2" cy="70.2" r="68.796" fill="#B4E1EF"/><polygon fill="#FFC20E" points="107.793,34.006 50.215,86.071 27.254,76.203 88.613,23.525 " clip-path="url(#circularClip)"/>
<polygon fill="#DBA80E" points="51.34,115.898 17.436,98.096 27.254,76.203 50.215,86.071 " clip-path="url(#circularClip)"/>
<polygon fill="#FFDD8F" points="118.787,52.522 51.34,115.898 50.215,86.071 107.793,34.006 " clip-path="url(#circularClip)"/>
<g clip-path="url(#circularClip)">
	<path fill="#DBA80E" d="M37.067,57.552c-0.321,0.73-1.102,1.186-1.929,1.061l-20.459-3.077c-0.989-0.148-1.672-1.073-1.524-2.064   c0.14-0.989,1.073-1.673,2.065-1.524l20.458,3.076c0.989,0.149,1.673,1.073,1.524,2.065C37.177,57.254,37.132,57.408,37.067,57.552   z"/>
	<path fill="#DBA80E" d="M62.609,35.447c-0.154,0.035-0.314,0.05-0.482,0.043c-1.001-0.049-1.773-0.897-1.728-1.898l0.975-20.664   c0.048-1.001,0.891-1.778,1.897-1.728c1.002,0.049,1.774,0.897,1.728,1.898l-0.974,20.663   C63.984,34.598,63.388,35.274,62.609,35.447z"/>
	<path fill="#DBA80E" d="M54.54,41.289c-0.044,0.031-0.091,0.062-0.139,0.09c-0.864,0.507-1.977,0.218-2.484-0.648L41.789,23.438   c-0.507-0.865-0.219-1.976,0.648-2.482c0.864-0.506,1.978-0.216,2.484,0.649L55.05,38.897   C55.527,39.711,55.296,40.749,54.54,41.289z"/>
	<path fill="#DBA80E" d="M43.689,48.83c-0.691,0.621-1.754,0.622-2.445-0.021L26.554,35.177c-0.734-0.682-0.778-1.83-0.096-2.565   c0.691-0.74,1.829-0.777,2.563-0.096l14.689,13.632c0.735,0.683,0.778,1.83,0.094,2.565C43.77,48.755,43.729,48.794,43.689,48.83z"/>
</g>
<g clip-path="url(#circularClip)">
	<path fill="#FFC20E" d="M83.407,95.142c-0.746,0.285-1.239,1.042-1.155,1.874l2.052,20.587c0.1,0.995,0.989,1.724,1.986,1.625   c0.996-0.09,1.725-0.988,1.626-1.986l-2.053-20.586c-0.1-0.996-0.988-1.725-1.986-1.626C83.711,95.048,83.554,95.086,83.407,95.142   z"/>
	<path fill="#FFC20E" d="M106.758,70.735c-0.042,0.152-0.064,0.312-0.066,0.479c-0.001,1.003,0.808,1.817,1.81,1.82l20.687,0.058   c1.003,0.002,1.821-0.802,1.82-1.809c0.002-1.003-0.807-1.817-1.809-1.82l-20.688-0.058   C107.675,69.403,106.97,69.966,106.758,70.735z"/>
	<path fill="#FFC20E" d="M100.521,78.503c-0.033,0.043-0.067,0.088-0.097,0.134c-0.549,0.839-0.315,1.964,0.524,2.514l16.766,10.979   c0.838,0.549,1.962,0.317,2.511-0.523c0.549-0.839,0.314-1.965-0.524-2.514l-16.766-10.979   C102.146,77.595,101.098,77.775,100.521,78.503z"/>
	<path fill="#FFC20E" d="M92.449,88.965c-0.655,0.659-0.709,1.72-0.103,2.443l12.883,15.35c0.645,0.768,1.789,0.869,2.558,0.224   c0.774-0.653,0.868-1.788,0.224-2.556l-12.883-15.35c-0.646-0.77-1.789-0.869-2.558-0.224   C92.528,88.886,92.487,88.926,92.449,88.965z"/>
</g>
<defs><clipPath id="circularClip"><circle cx="70.2" cy="70.2" r="68.796"/></clipPath></defs></svg>
