<?xml version='1.0' encoding='UTF-8'?>
<!-- Generator: Adobe Illustrator 24.3.0, SVG Export Plug-In . SVG Version: 6.00 Build 0)  -->
<svg xmlns="http://www.w3.org/2000/svg" xmlns:xlink="http://www.w3.org/1999/xlink" version="1.1" id="Layer_1" x="0px" y="0px" viewBox="0 0 140.4 140.4" style="enable-background:new 0 0 140.4 140.4;" xml:space="preserve">
<circle cx="70.2" cy="70.2" r="68.796" fill="#B4E1EF"/><style type="text/css" clip-path="url(#circularClip)">
	.st0{fill:#FFC20E;}
	.st1{fill:#E9513D;}
	.st2{fill:none;stroke:#E9513D;stroke-width:2.65;stroke-linecap:round;stroke-miterlimit:10;}
	.st3{fill:none;stroke:#00A7B8;stroke-width:2;stroke-linecap:round;stroke-miterlimit:10;}
</style>
<g id="Layer_2_1_" clip-path="url(#circularClip)">
	<g id="Icons">
		<path class="st0" d="M101.6,82.8l6,4.8V51.4l-5.8,4.8c-8.6,7.1-19.4,11-30.6,11h-9.5c-4,0-7.6,2.6-8.8,6.5h-8.4v5h8.3    c1,4.1,4.7,6.9,8.9,6.9h12.4c3,0,5.7-2.2,6.1-5.2c0.4-3.3-1.9-6.3-5.2-6.7c-0.2,0-0.5,0-0.7,0H58.5c0.8-0.9,2-1.5,3.2-1.5h9.9    C82.5,72.2,93,75.9,101.6,82.8z M74.3,78.7c0.5-0.1,1.1,0.2,1.2,0.7c0.1,0.5-0.2,1.1-0.7,1.2c-0.2,0-0.4,0-0.5,0H61.7    c-1.4,0-2.8-0.7-3.5-1.9H74.3z"/>
		<path class="st1" d="M47.5,72.9h-0.1c-4.7,0-9.2-2.2-12.2-5.9c-1.9-2.2-4.6-3.5-7.5-3.5h-2c-6.4-0.1-11.9,4.4-13,10.7    c-1.1,7,3.6,13.5,10.6,14.6c0.7,0.1,1.3,0.2,2,0.2h2.4c2.9,0,5.7-1.3,7.6-3.6c3-3.7,7.5-5.9,12.3-5.9l0,0V72.9z"/>
		<line class="st2" x1="46.5" y1="72.9" x2="46.5" y2="79.5"/>
		<line class="st3" x1="116.2" y1="69.6" x2="129.8" y2="69.6"/>
		<line class="st3" x1="116.2" y1="61.8" x2="127.6" y2="56.9"/>
		<line class="st3" x1="127.6" y1="82.4" x2="116.2" y2="77.4"/>
	</g>
</g>
<defs><clipPath id="circularClip"><circle cx="70.2" cy="70.2" r="68.796"/></clipPath></defs></svg>
