<?xml version='1.0' encoding='UTF-8'?>
<!-- Generator: Adobe Illustrator 21.1.0, SVG Export Plug-In . SVG Version: 6.00 Build 0)  -->
<svg xmlns="http://www.w3.org/2000/svg" xmlns:xlink="http://www.w3.org/1999/xlink" version="1.1" id="Layer_1" x="0px" y="0px" viewBox="0 0 140.4 140.4" style="enable-background:new 0 0 140.4 140.4;" xml:space="preserve">
<circle cx="70.2" cy="70.2" r="68.796" fill="#B4E1EF"/><style type="text/css" clip-path="url(#circularClip)">
	.st0{fill:#003654;}
	.st1{fill:#066A98;}
	.st2{fill:#057AAE;}
	.st3{fill:#F7C0AC;}
	.st4{fill:#FFDA87;}
	.st5{fill:#FFCC4E;}
	.st6{fill:#65C6D3;}
	.st7{fill:#91D4DD;}
	.st8{fill:#A2529F;}
	.st9{fill:#F1F1F2;}
	.st10{fill:#DBDCDD;}
	.st11{fill:#FFFFFF;}
	.st12{fill:#BBBDBF;}
	.st13{fill:#883483;}
	.st14{fill:#B174B0;}
	.st15{fill:#9C9EA1;}
	.st16{fill:#ABE0F9;}
	.st17{fill:#D3EEFB;}
	.st18{fill:#FFC20E;}
	.st19{fill:#B0C3DC;}
	.st20{fill:#EF856B;}
	.st21{fill:#85C446;}
	.st22{fill:#D3E7BC;}
	.st23{fill:#A2D074;}
</style>
<ellipse transform="matrix(0.9554 -0.2952 0.2952 0.9554 -17.5924 23.8471)" class="st0" cx="70.2" cy="70.2" rx="70.2" ry="70.2" clip-path="url(#circularClip)"/>
<path class="st1" d="M24.5,97.7C36.7,90.4,47.8,86,47.8,86s-15.4,0.2-26.2,6.5c-1.4,0.8-2,2.6-1.2,4C21.2,97.9,23,98.5,24.5,97.7z" clip-path="url(#circularClip)"/>
<path class="st2" d="M24.1,97.4c1.2-0.6,6.2-6,6.2-6s-7.4,0.9-8.6,1.5s-1.6,2.2-0.9,3.4C21.4,97.6,22.9,98,24.1,97.4z" clip-path="url(#circularClip)"/>
<ellipse transform="matrix(0.6366 -0.7712 0.7712 0.6366 -29.2852 44.8391)" class="st3" cx="32.9" cy="53.5" rx="5" ry="5" clip-path="url(#circularClip)"/>
<g clip-path="url(#circularClip)">
	
		<ellipse transform="matrix(0.6366 -0.7712 0.7712 0.6366 -58.5393 110.1788)" class="st4" cx="87.6" cy="117.2" rx="7.2" ry="7.2"/>
	
		<ellipse transform="matrix(0.6366 -0.7712 0.7712 0.6366 -56.7715 106.9307)" class="st5" cx="85.1" cy="113.7" rx="2.4" ry="2.4"/>
	
		<ellipse transform="matrix(0.6366 -0.7712 0.7712 0.6366 -60.2996 111.4919)" class="st5" cx="88.2" cy="119.7" rx="1.5" ry="1.5"/>
	<path class="st5" d="M94.1,120.5c-0.5-0.1-1.1,0-1.5,0.5c-0.4,0.5-0.4,1.1-0.2,1.6c0.3-0.2,0.6-0.5,0.8-0.8   C93.6,121.4,93.9,121,94.1,120.5z"/>
	
		<ellipse transform="matrix(0.6366 -0.7712 0.7712 0.6366 -54.9503 112.7763)" class="st5" cx="92.2" cy="114.7" rx="0.8" ry="0.8"/>
	<path class="st5" d="M81.5,121.1c0.4,0.6,0.9,1.2,1.5,1.7c0.2,0.2,0.5,0.4,0.7,0.5c0.1,0,0.1-0.1,0.2-0.2c0.6-0.7,0.5-1.7-0.2-2.3   C83.1,120.4,82.1,120.4,81.5,121.1z"/>
</g>
<g clip-path="url(#circularClip)">
	<ellipse transform="matrix(0.9836 -0.1803 0.1803 0.9836 -8.3533 22.2233)" class="st6" cx="118.1" cy="57.1" rx="3.6" ry="3.6"/>
	<ellipse transform="matrix(0.9836 -0.1803 0.1803 0.9836 -8.3441 22.6159)" class="st7" cx="120.2" cy="57.2" rx="1.2" ry="1.2"/>
	<ellipse transform="matrix(0.9836 -0.1803 0.1803 0.9836 -8.2607 22.0093)" class="st7" cx="116.9" cy="56.4" rx="0.7" ry="0.7"/>
	<path class="st7" d="M114.7,58.5c0.2-0.2,0.3-0.4,0.3-0.7c-0.1-0.3-0.3-0.5-0.6-0.6c0,0.2,0,0.4,0.1,0.6   C114.6,58,114.6,58.2,114.7,58.5z"/>
	<ellipse transform="matrix(0.9836 -0.1803 0.1803 0.9836 -8.8211 22.1741)" class="st7" cx="117.6" cy="59.6" rx="0.4" ry="0.4"/>
	<path class="st7" d="M118.6,53.5c-0.4-0.1-0.8,0-1.1,0c-0.2,0-0.3,0.1-0.4,0.1c0,0,0,0.1,0,0.1c0.1,0.4,0.5,0.7,0.9,0.6   C118.3,54.3,118.6,53.9,118.6,53.5z"/>
</g>
<g clip-path="url(#circularClip)">
	<path class="st8" d="M91.9,42.4c0.3,0.8,0.9,2,2.3,3.2c1.5,1.4,3.5,1.8,4.6,1.8c2.2-4.6,2.9-8.3,2-9C99.9,37.6,96.3,39.1,91.9,42.4   "/>
	<path class="st8" d="M91.9,42.4c0.3,0.8,0.9,2,2.3,3.2c1.5,1.4,3.5,1.8,4.6,1.8c2.2-4.6,2.9-8.3,2-9C99.9,37.6,96.3,39.1,91.9,42.4   "/>
	<path class="st9" d="M93.5,51.5c-0.2,1.8-1.7,3.1-3.5,3c-1.8-0.2-3.1-1.7-3-3.5c0.2-1.8,1.7-3.1,3.5-3   C92.4,48.1,93.7,49.7,93.5,51.5 M91.9,42.4c-3.4,2.6-7.3,6.2-10.8,10.5c-3.6,4.4-6.5,9.2-8.4,13.2c-0.4,0.8-1.1,2.5-1.6,3.7   c-1.2,3.2-1.5,5.4-0.8,6c0.7,0.6,3.2-0.4,6.4-2.6c0.9-0.6,2.1-1.5,3.3-2.4c3.3-2.6,7-6.1,10.3-10.1c3.6-4.4,6.5-9.1,8.5-13.2   c-1.1,0-2.9-0.3-4.6-1.8C92.8,44.3,92.2,43.1,91.9,42.4"/>
	<path class="st10" d="M93.5,51.5c-0.2,1.8-1.7,3.1-3.5,3c-1.8-0.2-3.1-1.7-3-3.5c0.2-1.8,1.7-3.1,3.5-3   C92.4,48.1,93.7,49.7,93.5,51.5 M91.9,42.4c-3.4,2.6-7.3,6.2-10.8,10.5c-3.6,4.4-6.5,9.2-8.4,13.2c-0.4,0.8-1.1,2.5-1.6,3.7   c-1.2,3.2-1.5,5.4-0.8,6c0.7,0.6,3.2-0.4,6.4-2.6c0.9-0.6,2.1-1.5,3.3-2.4c3.3-2.6,7-6.3,10.3-10.3c3.6-4.4,6.6-9,8.5-13.1   c-1.1,0-2.9-0.3-4.6-1.8C92.8,44.3,92.2,43.1,91.9,42.4"/>
	<path class="st11" d="M91.9,42.4c-3.4,2.6-7.3,6.2-10.8,10.5c-0.8,1-1.6,2-2.3,3c1.8-1.8,7.4-7.1,13.8-12   C92.3,43.2,92.1,42.8,91.9,42.4"/>
	<path class="st9" d="M91.9,42.4c-3.4,2.6-7.3,6.2-10.8,10.5c-0.8,1-1.6,2-2.3,3c1.8-1.8,7.4-7.1,13.8-12   C92.3,43.2,92.1,42.8,91.9,42.4"/>
	<path class="st10" d="M80,70.7c3.3-2.6,7-6.1,10.3-10.1c3.6-4.4,6.5-9.1,8.5-13.2c-0.1,0-1.1-0.1-1.2-0.1   c-9.5,14.7-16.4,19.4-19.9,20c-3,0.5-4.4-1.2-4.8-1.7c-0.1,0.2-0.2,0.4-0.3,0.5c-0.4,0.8-1.1,2.5-1.6,3.7c-1.2,3.2-1.5,5.4-0.8,6   c0.7,0.6,3.2-0.4,6.4-2.6C77.7,72.5,78.8,71.6,80,70.7"/>
	<path class="st12" d="M80,70.7c3.3-2.6,7-6.1,10.3-10.1c3.6-4.4,6.5-9.1,8.5-13.2c-0.1,0-1.1-0.1-1.2-0.1   c-9.5,14.7-16.4,19.4-19.9,20c-3,0.5-4.4-1.2-4.8-1.7c-0.1,0.2-0.2,0.4-0.3,0.5c-0.4,0.8-1.1,2.5-1.6,3.7c-1.2,3.2-1.5,5.4-0.8,6   c0.7,0.6,3.2-0.4,6.4-2.6C77.7,72.5,78.8,71.6,80,70.7"/>
	<path class="st13" d="M78.9,71.5c1.8,2.3,2.6,5.1-0.8,7.7c-3.4,2.6-1.1-0.6-1.5-3.6c-0.1-0.6-0.7-1.3-1.1-1.7   C76.3,72.7,77.8,71.7,78.9,71.5"/>
	<path class="st13" d="M78.9,71.5c1.8,2.3,2.6,5.1-0.8,7.7c-3.4,2.6-1.1-0.6-1.5-3.6c-0.1-0.6-0.7-1.3-1.1-1.7   C76.3,72.7,77.8,71.7,78.9,71.5"/>
	<path class="st14" d="M72.6,66.4c-2.6-1.3-5.5-1.5-7.3,2.4c-1.9,3.9,0.8,0.9,3.9,0.7c0.6-0.1,1.4,0.4,1.9,0.7   C72,69.2,72.7,67.5,72.6,66.4"/>
	<path class="st14" d="M72.6,66.4c-2.6-1.3-5.5-1.5-7.3,2.4c-1.9,3.9,0.8,0.9,3.9,0.7c0.6-0.1,1.4,0.4,1.9,0.7   C72,69.2,72.7,67.5,72.6,66.4"/>
	<path class="st8" d="M75.7,69c0.2,0.2,0.7,1.1-0.5,2.6c-1.2,1.5-5,5.5-5.6,5c-0.6-0.5,2.5-5.1,3.7-6.5C74.5,68.6,75.5,68.8,75.7,69   "/>
	<path class="st8" d="M75.7,69c0.2,0.2,0.7,1.1-0.5,2.6c-1.2,1.5-5,5.5-5.6,5c-0.6-0.5,2.5-5.1,3.7-6.5C74.5,68.6,75.5,68.8,75.7,69   "/>
	<path class="st12" d="M91.5,43.8c0.1,0.1,0.4,0.1,0.5,0c0.1-0.1,0.1-0.4,0-0.5c-0.1-0.1-0.4-0.1-0.5,0   C91.3,43.5,91.3,43.7,91.5,43.8"/>
	<path class="st12" d="M91.5,43.8c0.1,0.1,0.4,0.1,0.5,0c0.1-0.1,0.1-0.4,0-0.5c-0.1-0.1-0.4-0.1-0.5,0   C91.3,43.5,91.3,43.7,91.5,43.8"/>
	<path class="st12" d="M92.3,45.1c0.1,0.1,0.4,0.1,0.5,0c0.1-0.1,0.1-0.4,0-0.5c-0.1-0.1-0.4-0.1-0.5,0C92.1,44.7,92.2,45,92.3,45.1   "/>
	<path class="st12" d="M92.3,45.1c0.1,0.1,0.4,0.1,0.5,0c0.1-0.1,0.1-0.4,0-0.5c-0.1-0.1-0.4-0.1-0.5,0C92.1,44.7,92.2,45,92.3,45.1   "/>
	<path class="st12" d="M93.5,46.3c0.1,0.1,0.4,0.1,0.5,0c0.1-0.1,0.1-0.4,0-0.5c-0.1-0.1-0.4-0.1-0.5,0C93.3,46,93.4,46.2,93.5,46.3   "/>
	<path class="st12" d="M93.5,46.3c0.1,0.1,0.4,0.1,0.5,0c0.1-0.1,0.1-0.4,0-0.5c-0.1-0.1-0.4-0.1-0.5,0C93.3,46,93.4,46.2,93.5,46.3   "/>
	<path class="st12" d="M94.8,47.3c0.1,0.1,0.4,0.1,0.5,0c0.1-0.1,0.1-0.4,0-0.5c-0.1-0.1-0.4-0.1-0.5,0.1   C94.6,47,94.6,47.2,94.8,47.3"/>
	<path class="st12" d="M94.8,47.3c0.1,0.1,0.4,0.1,0.5,0c0.1-0.1,0.1-0.4,0-0.5c-0.1-0.1-0.4-0.1-0.5,0.1   C94.6,47,94.6,47.2,94.8,47.3"/>
	<path class="st12" d="M96.2,48c0.1,0.1,0.4,0.1,0.5,0c0.1-0.1,0.1-0.4,0-0.5s-0.4-0.1-0.5,0C96.1,47.6,96.1,47.9,96.2,48"/>
	<path class="st12" d="M96.2,48c0.1,0.1,0.4,0.1,0.5,0c0.1-0.1,0.1-0.4,0-0.5s-0.4-0.1-0.5,0C96.1,47.6,96.1,47.9,96.2,48"/>
	<path class="st12" d="M97.7,48.4c0.1,0.1,0.4,0.1,0.5,0c0.1-0.1,0.1-0.4,0-0.5c-0.1-0.1-0.4-0.1-0.5,0C97.5,48,97.5,48.3,97.7,48.4   "/>
	<path class="st15" d="M97.7,48.4c0.1,0.1,0.4,0.1,0.5,0c0.1-0.1,0.1-0.4,0-0.5c-0.1-0.1-0.4-0.1-0.5,0C97.5,48,97.5,48.3,97.7,48.4   "/>
	<path class="st16" d="M88.4,53.5c1.2,1,3,0.8,4-0.4c1-1.2,0.8-3-0.4-4c-1.2-1-3-0.8-4,0.4C87,50.7,87.2,52.5,88.4,53.5"/>
	<path class="st16" d="M88.8,53.1c1,0.9,2.6,0.7,3.4-0.4c0.9-1,0.7-2.6-0.4-3.4c-1-0.9-2.6-0.7-3.4,0.4   C87.5,50.7,87.7,52.3,88.8,53.1"/>
	<path class="st15" d="M88.2,53.8c-1.4-1.1-1.6-3.2-0.5-4.6c1.1-1.4,3.2-1.6,4.6-0.5c1.4,1.1,1.6,3.2,0.5,4.6   C91.7,54.7,89.6,54.9,88.2,53.8z M91.8,49.3c-1-0.9-2.6-0.7-3.4,0.4c-0.9,1-0.7,2.6,0.4,3.4c1,0.9,2.6,0.7,3.4-0.4   C93,51.7,92.9,50.2,91.8,49.3z"/>
	<path class="st17" d="M89.1,50.6c0,0-0.1-0.1-0.1-0.1c0-0.1,0.1-0.2,0.2-0.2l1.8-0.2c0.1,0,0.2,0.1,0.2,0.2c0,0.1-0.1,0.2-0.2,0.2   l-1.8,0.2C89.2,50.7,89.1,50.7,89.1,50.6z"/>
	<path class="st17" d="M88.8,51.4c0,0-0.1-0.1-0.1-0.1c0-0.1,0.1-0.2,0.2-0.2l2.6-0.3c0.1,0,0.2,0.1,0.2,0.2c0,0.1-0.1,0.2-0.2,0.2   l-2.6,0.3C88.9,51.4,88.8,51.4,88.8,51.4z"/>
	<path class="st13" d="M97.7,47.3c0.4,0.1,0.8,0.1,1.1,0.1c1.5-3.1,2.2-5.8,2.3-7.4C100.7,41.2,99.4,44.4,97.7,47.3"/>
	<path class="st13" d="M97.7,47.3c0.4,0.1,0.8,0.1,1.1,0.1c1.5-3.1,2.2-5.8,2.3-7.4C100.7,41.2,99.4,44.4,97.7,47.3"/>
	<path class="st14" d="M100.8,38.4C100.8,38.4,100.8,38.4,100.8,38.4c-0.9-0.8-4.6,0.7-8.9,4c0.2,0.4,0.3,0.9,0.8,1.4   C96.4,40.6,99.7,38.2,100.8,38.4"/>
	<path class="st14" d="M100.8,38.4C100.8,38.4,100.8,38.4,100.8,38.4c-0.9-0.8-4.6,0.7-8.9,4c0.2,0.4,0.3,0.9,0.8,1.4   C96.4,40.6,99.7,38.2,100.8,38.4"/>
</g>
<ellipse transform="matrix(0.9554 -0.2952 0.2952 0.9554 -19.3308 41.7276)" class="st11" cx="128.6" cy="84.9" rx="0.9" ry="0.9" clip-path="url(#circularClip)"/>
<ellipse transform="matrix(0.9554 -0.2952 0.2952 0.9554 -26.3058 17.8348)" class="st11" cx="45.9" cy="96.1" rx="0.9" ry="0.9" clip-path="url(#circularClip)"/>
<ellipse transform="matrix(0.9554 -0.2952 0.2952 0.9554 -16.6125 36.2715)" class="st11" cx="111.8" cy="73.2" rx="0.9" ry="0.9" clip-path="url(#circularClip)"/>
<ellipse transform="matrix(0.9554 -0.2952 0.2952 0.9554 -25.1874 30.0476)" class="st11" cx="86.9" cy="98.5" rx="0.9" ry="0.9" clip-path="url(#circularClip)"/>
<ellipse transform="matrix(0.9554 -0.2952 0.2952 0.9554 -31.9514 18.9709)" class="st11" cx="46.9" cy="115.3" rx="0.9" ry="0.9" clip-path="url(#circularClip)"/>
<ellipse transform="matrix(0.9554 -0.2952 0.2952 0.9554 -1.7508 12.2773)" class="st11" cx="39.8" cy="11.9" rx="0.9" ry="0.9" clip-path="url(#circularClip)"/>
<ellipse transform="matrix(0.9554 -0.2952 0.2952 0.9554 -4.8598 25.9076)" class="st11" cx="83.4" cy="29.1" rx="0.9" ry="0.9" clip-path="url(#circularClip)"/>
<ellipse transform="matrix(0.9554 -0.2952 0.2952 0.9554 -11.634 17.3529)" class="st11" cx="51.7" cy="47.2" rx="0.9" ry="0.9" clip-path="url(#circularClip)"/>
<ellipse transform="matrix(0.9554 -0.2952 0.2952 0.9554 -5.9687 37.611)" class="st11" cx="121.6" cy="38.6" rx="0.9" ry="0.9" clip-path="url(#circularClip)"/>
<ellipse transform="matrix(0.9554 -0.2952 0.2952 0.9554 -27.7798 22.5487)" class="st11" cx="60.8" cy="103.3" rx="0.9" ry="0.9" clip-path="url(#circularClip)"/>
<ellipse transform="matrix(0.9554 -0.2952 0.2952 0.9554 -33.2505 14.1265)" class="st11" cx="30.2" cy="117.2" rx="0.9" ry="0.9" clip-path="url(#circularClip)"/>
<ellipse transform="matrix(0.8781 -0.4784 0.4784 0.8781 -42.6806 22.6095)" class="st18" cx="23" cy="95.1" rx="2.3" ry="2.3" clip-path="url(#circularClip)"/>
<ellipse transform="matrix(0.6366 -0.7712 0.7712 0.6366 -60.186 94.5123)" class="st19" cx="70.2" cy="111.1" rx="0.9" ry="0.9" clip-path="url(#circularClip)"/>
<ellipse transform="matrix(0.6366 -0.7712 0.7712 0.6366 -77.1061 98.2224)" class="st19" cx="65.7" cy="130.9" rx="0.9" ry="0.9" clip-path="url(#circularClip)"/>
<ellipse transform="matrix(0.6366 -0.7712 0.7712 0.6366 -27.7844 99.6879)" class="st19" cx="91.9" cy="79.3" rx="0.9" ry="0.9" clip-path="url(#circularClip)"/>
<ellipse transform="matrix(0.6366 -0.7712 0.7712 0.6366 -43.1279 87.8862)" class="st19" cx="71.7" cy="89.7" rx="0.9" ry="0.9" clip-path="url(#circularClip)"/>
<ellipse transform="matrix(0.6366 -0.7712 0.7712 0.6366 18.6302 93.9625)" class="st19" cx="109" cy="27.2" rx="0.9" ry="0.9" clip-path="url(#circularClip)"/>
<ellipse transform="matrix(0.6366 -0.7712 0.7712 0.6366 -5.8217 38.4668)" class="st19" cx="37.9" cy="25.4" rx="0.9" ry="0.9" clip-path="url(#circularClip)"/>
<g clip-path="url(#circularClip)">
	<path class="st20" d="M34.1,57.2c1-0.1,2-0.3,2.9-0.6c0.3-0.4,0.6-0.9,0.7-1.4c-1.1,0.6-2.4,0.9-3.7,1.1c-2,0.2-4-0.2-5.8-1.1   c0.2,0.5,0.4,1,0.7,1.4c1.3,0.5,2.6,0.7,4,0.7C33.3,57.2,33.7,57.2,34.1,57.2z"/>
	<path class="st20" d="M32.9,51c0.4,0,0.8,0,1.1-0.1c1-0.1,1.9-0.3,2.8-0.6c-0.2-0.3-0.5-0.5-0.7-0.7c0,0-0.1,0-0.1-0.1   c-0.7,0.2-1.4,0.3-2.1,0.4c-1.4,0.1-2.8,0-4.2-0.4c-0.3,0.2-0.5,0.5-0.7,0.7c0,0,0,0,0,0.1C30.3,50.8,31.6,51,32.9,51z"/>
	<path class="st20" d="M34.1,53.9c1.4-0.1,2.6-0.5,3.8-1.1c0-0.3-0.1-0.7-0.2-1c-1.1,0.6-2.4,0.9-3.7,1.1c-2,0.2-4-0.2-5.8-1.1   c-0.1,0.3-0.2,0.7-0.2,1c1.5,0.7,3.2,1.1,5,1.1C33.3,54,33.7,54,34.1,53.9z"/>
</g>
<ellipse transform="matrix(0.6366 -0.7712 0.7712 0.6366 -53.9025 40.6562)" class="st19" cx="16.2" cy="77.5" rx="0.9" ry="0.9" clip-path="url(#circularClip)"/>
<ellipse transform="matrix(0.6366 -0.7712 0.7712 0.6366 25.1114 75.6127)" class="st19" cx="92.8" cy="11.2" rx="0.9" ry="0.9" clip-path="url(#circularClip)"/>
<ellipse transform="matrix(0.6366 -0.7712 0.7712 0.6366 6.1279 123.9371)" class="st19" cx="134.6" cy="55.5" rx="0.9" ry="0.9" clip-path="url(#circularClip)"/>
<ellipse transform="matrix(0.6366 -0.7712 0.7712 0.6366 -18.213 67.6166)" class="st19" cx="62.6" cy="53.1" rx="0.9" ry="0.9" clip-path="url(#circularClip)"/>
<ellipse transform="matrix(0.6366 -0.7712 0.7712 0.6366 -37.4476 60.924)" class="st19" cx="45.9" cy="70.2" rx="0.9" ry="0.9" clip-path="url(#circularClip)"/>
<ellipse transform="matrix(0.6366 -0.7712 0.7712 0.6366 -28.2837 121.1907)" class="st19" cx="114.5" cy="90.6" rx="0.9" ry="0.9" clip-path="url(#circularClip)"/>
<ellipse transform="matrix(0.6366 -0.7712 0.7712 0.6366 20.2909 56.5931)" class="st19" cx="70.2" cy="6.8" rx="0.9" ry="0.9" clip-path="url(#circularClip)"/>
<ellipse transform="matrix(0.6366 -0.7712 0.7712 0.6366 -51.4974 127.0053)" class="st19" cx="109" cy="118.1" rx="0.9" ry="0.9" clip-path="url(#circularClip)"/>
<ellipse transform="matrix(0.6366 -0.7712 0.7712 0.6366 -16.9712 33.4586)" class="st19" cx="27" cy="34.7" rx="0.9" ry="0.9" clip-path="url(#circularClip)"/>
<ellipse transform="matrix(0.6366 -0.7712 0.7712 0.6366 -67.334 41.1612)" class="st19" cx="10" cy="92" rx="0.9" ry="0.9" clip-path="url(#circularClip)"/>
<ellipse transform="matrix(0.6366 -0.7712 0.7712 0.6366 -39.3465 28.8223)" class="st19" cx="10.9" cy="56.2" rx="0.9" ry="0.9" clip-path="url(#circularClip)"/>
<ellipse transform="matrix(0.4893 -0.8721 0.8721 0.4893 10.1566 66.3661)" class="st21" cx="61.7" cy="24.5" rx="6.5" ry="6.5" clip-path="url(#circularClip)"/>
<path class="st22" d="M58,28.2c-2.7,0-4.9-0.6-5.1-2c-0.4-2.2,4-4.1,8.3-4.8c2.2-0.4,4.4-0.5,6.1-0.3c2.5,0.3,3.2,1.2,3.4,1.9  s-0.2,1.8-2.5,3c-1.5,0.8-3.6,1.4-5.8,1.8C60.9,28,59.4,28.2,58,28.2z M65.5,22.4c-1.2,0-2.6,0.1-4.1,0.4c-4.8,0.9-7.2,2.6-7.1,3.1  c0.1,0.5,2.9,1.3,7.7,0.4c2.1-0.4,4-1,5.4-1.7c1.4-0.7,1.7-1.3,1.7-1.4c0-0.1-0.4-0.5-2.1-0.7C66.6,22.4,66.1,22.4,65.5,22.4z" clip-path="url(#circularClip)"/>
<path class="st21" d="M55.3,25.4c-0.5-3.4,1.8-6.6,5.2-7.2c3.4-0.6,6.6,1.5,7.4,4.8C68,23.1,55.4,25.5,55.3,25.4z" clip-path="url(#circularClip)"/>
<path class="st23" d="M61.7,23.3c2-0.4,3.9-1,5.2-1.7c0.2-0.1,0.3-0.2,0.4-0.3c-0.2-0.3-0.4-0.6-0.6-0.8c-0.1,0.1-0.2,0.1-0.3,0.2  c-1.3,0.7-3,1.3-5,1.6c-2.7,0.5-4.7,0.5-5.9,0.2c-0.1,0.3-0.2,0.6-0.2,1c0.6,0.1,1.4,0.2,2.2,0.2C58.8,23.7,60.3,23.6,61.7,23.3z" clip-path="url(#circularClip)"/>
<path class="st23" d="M56.1,21.3c0.4,0,0.8,0.1,1.2,0.1c1.3,0,2.7-0.2,4.1-0.4c1.7-0.3,3.2-0.8,4.4-1.4c-0.3-0.2-0.6-0.5-1-0.7  c-1.1,0.4-2.3,0.8-3.7,1.1c-1.8,0.4-3.3,0.4-4.5,0.4C56.6,20.7,56.3,21,56.1,21.3z" clip-path="url(#circularClip)"/>
<path class="st23" d="M62.2,25.5c2-0.4,3.9-1,5.2-1.7c0.3-0.1,0.5-0.3,0.7-0.4c0,0,0-0.1,0-0.1c-0.1-0.3-0.2-0.6-0.3-0.9  c-0.2,0.2-0.5,0.4-0.9,0.6c-1.3,0.7-3,1.3-5,1.6c-3.4,0.7-5.7,0.4-6.7,0c0,0.4,0,0.7,0.1,1.1c0.7,0.2,1.6,0.3,2.7,0.3  C59.3,25.9,60.8,25.8,62.2,25.5z" clip-path="url(#circularClip)"/>
<path class="st23" d="M63,29.5c1.4-0.3,2.7-0.7,3.9-1.1c0.2-0.2,0.4-0.5,0.5-0.8c0.1-0.2,0.2-0.5,0.3-0.7c-1.3,0.7-3,1.2-4.9,1.6  c-2.7,0.5-4.7,0.5-5.9,0.2c0.4,0.4,0.8,0.8,1.4,1.2c0.2,0,0.4,0,0.6,0C60.2,30,61.6,29.8,63,29.5z" clip-path="url(#circularClip)"/>
<defs><clipPath id="circularClip"><circle cx="70.2" cy="70.2" r="68.796"/></clipPath></defs></svg>
