<?xml version="1.0" encoding="UTF-8"?>
<svg id="Layer_1" data-name="Layer 1" xmlns="http://www.w3.org/2000/svg" viewBox="0 0 170 251">
  <defs>
    <style>
      .cls-1, .cls-2, .cls-3 {
        isolation: isolate;
      }

      .cls-1, .cls-2, .cls-4 {
        opacity: .35;
      }

      .cls-1, .cls-5 {
        fill: #371a45;
      }

      .cls-6, .cls-3 {
        fill: #fff;
      }

      .cls-2, .cls-7 {
        fill: #c7c7c7;
      }

      .cls-8 {
        fill: #535b5f;
      }

      .cls-3, .cls-9 {
        opacity: .7;
      }

      .cls-10 {
        fill: #220f2d;
      }

      .cls-11 {
        fill: #797f82;
      }
    </style>
  </defs>
  <path class="cls-6" d="M101.37,104.75l-16.25,15.19c1.82,10.52,17.08,31.72,35.75,42.44,8.05,4.63,16.74,7.3,25.26,6.33,24.93-2.83,17.08-22.59,8.91-27.72-6.35-4-13.18-5.92-20.4-8.82-10.35-4.16-21.52-10.31-33.26-27.43Z"/>
  <g class="cls-4">
    <path class="cls-1" d="M90.66,114.77l-5.54,5.19c1.82,10.51,17.08,31.72,35.75,42.44,8.05,4.63,16.74,7.3,25.26,6.33,9.25-1.06,13.99-4.43,15.87-8.53-2.54,1.41-5.95,2.45-10.39,2.96-.13.01-.26.03-.4.04-6.46.52-11.29-5.83-9.27-11.99.39-1.19.52-1.93.15-1.75-7.32,3.45-11.96,8.51-15.73,7.38-20.38-6.16-33.57-31.42-35.69-42.06Z"/>
  </g>
  <g class="cls-4">
    <path class="cls-2" d="M101.37,104.75l-16.25,15.19c1.82,10.52,17.08,31.72,35.75,42.44.03-2.1.26-4.15.62-6.12-8.7-6.01-16.39-14.04-21.93-21.68-6.42-8.84-5.24-21.07,2.73-28.53-.3-.43-.6-.86-.91-1.31Z"/>
  </g>
  <path class="cls-7" d="M86.35,127.79c4.26,8.9,12.85,19.72,22.55,27.86,3.71,3.13,7.51,5.81,11.28,7.97,9.14,5.25,17.93,7.44,26.11,6.51,12.83-1.46,16.76-7.17,17.79-11.71,1.6-7-2.99-15.27-8.29-18.61-4.77-3.01-9.72-4.84-14.94-6.78-1.86-.69-3.79-1.4-5.71-2.17-3.68-1.48-6.71-2.91-9.52-4.53-8.71-4.99-16.04-12.1-23.08-22.37-.44-.65-1.32-.81-1.96-.36-.64.44-.81,1.31-.36,1.96,7.28,10.64,14.91,18.01,24,23.22,2.93,1.68,6.07,3.18,9.88,4.7,1.96.78,3.9,1.51,5.78,2.21,5.08,1.88,9.89,3.67,14.42,6.52,4.38,2.76,8.36,9.85,7.04,15.6-1.19,5.24-6.51,8.53-15.37,9.54-7.58.86-15.78-1.21-24.39-6.15-3.63-2.08-7.28-4.66-10.87-7.68-13.45-11.31-22.86-26.06-24.2-33.79-.13-.76-.86-1.28-1.63-1.15-.77.13-1.28.86-1.15,1.63.39,2.25,1.3,4.82,2.62,7.58Z"/>
  <path class="cls-6" d="M7.84,174.38c8.1,10.57,29.21,6.9,29.21,6.9l.19-71.4.03-14.42s-12.04.32-21.18,4.1c-4.41,1.82-8.14,4.44-9.54,8.22-4.86,13.11-5.37,57.91,1.29,66.6Z"/>
  <g class="cls-4">
    <path class="cls-2" d="M2.91,137.56c-.28,15.65,1.2,31.93,4.94,36.81,8.1,10.57,29.21,6.9,29.21,6.9l.21-85.82s-.22,0-.63.03l-.17,66.92s-21.11,3.66-29.21-6.9c-2.19-2.86-3.61-9.65-4.35-17.93Z"/>
  </g>
  <path class="cls-7" d="M28.74,183.32c4.66,0,8.2-.59,8.55-.65.76-.14,1.28-.87,1.15-1.63-.13-.76-.87-1.29-1.63-1.15-.21.04-20.36,3.39-27.85-6.38-6.17-8.04-6.04-51.91-1.09-65.25,3.93-10.59,29.18-11.39,29.44-11.4.78-.02,1.39-.67,1.37-1.45s-.68-1.38-1.45-1.37c-1.11.03-27.42.87-32.01,13.24-2.36,6.35-3.87,20.61-3.76,35.46.05,7.78.68,26.51,5.26,32.48,5.15,6.73,14.91,8.1,22.02,8.1Z"/>
  <path class="cls-6" d="M4.46,144.14l14.38,1.08c1.29.09,2.34,1.05,2.57,2.31.84,4.64,2.22,15.46-2.29,19.03-3.75,2.97-9.82,2.62-13.39-.4-3.99-3.38-4.37-13.98-4.31-19.24,0-1.63,1.41-2.91,3.03-2.79Z"/>
  <g class="cls-4">
    <path class="cls-1" d="M21.4,147.54c.84,4.64,2.22,15.46-2.29,19.02-3.75,2.97-9.82,2.61-13.39-.4-2.45-2.08-3.54-6.89-4-11.5.65,2.31,1.66,4.18,2.93,5.41,7.25,7.05,12.66-1.26,12.66-1.26,0,0,.94,2.01,1.69,2.13,3.13.48,2.49-9.32,2.03-14.38.18.3.31.63.37.99Z"/>
  </g>
  <path class="cls-7" d="M12.78,170.03c2.62,0,5.21-.78,7.21-2.36,4.94-3.91,3.87-14.45,2.8-20.39-.34-1.89-1.93-3.33-3.85-3.46l-14.38-1.08c-1.16-.09-2.32.32-3.18,1.1-.86.79-1.36,1.9-1.37,3.07-.09,7.34.67,16.83,4.81,20.32,2.19,1.86,5.09,2.8,7.96,2.8ZM4.35,145.55l14.38,1.08c.64.05,1.17.52,1.29,1.16,1.61,8.91.94,15.52-1.78,17.68-3.13,2.48-8.44,2.31-11.61-.37-2.5-2.12-3.93-8.9-3.81-18.14,0-.39.17-.76.46-1.03.29-.27.67-.4,1.07-.38Z"/>
  <path class="cls-7" d="M16.03,155.85c-.16,1.8-.15,3.52-.27,5.23-.11,1.71-.3,3.39-.72,4.96-.41,1.57-1.06,3.04-2.05,4.15-.98,1.11-2.28,1.82-3.74,2.17h0c-.75.18-1.23.94-1.05,1.7.18.76.94,1.23,1.7,1.05.03,0,.06-.02.09-.03.94-.29,1.87-.7,2.72-1.26.85-.56,1.59-1.26,2.21-2.05,1.23-1.59,1.88-3.45,2.23-5.25.35-1.81.44-3.62.44-5.38,0-1.77-.11-3.52-.07-5.19v-.02c0-.41-.32-.75-.73-.76-.39,0-.73.29-.76.68Z"/>
  <path class="cls-7" d="M12.95,107.25c1.33.1,2.67.26,4,.44,1.33.18,2.66.39,3.98.64,1.32.24,2.63.52,3.93.84,1.3.3,2.58.67,3.85,1.05h.03c.75.23,1.53-.2,1.76-.94s-.21-1.53-.95-1.76c-.04-.02-.09-.03-.14-.03-1.36-.27-2.73-.51-4.1-.69-1.37-.19-2.73-.34-4.11-.46-1.37-.12-2.74-.21-4.11-.26-1.37-.05-2.73-.08-4.12-.04-.33,0-.6.28-.59.62,0,.32.25.57.56.59h.02Z"/>
  <g class="cls-4">
    <path class="cls-2" d="M16.09,99.55c6.31,4.79,13.51,8.3,21.15,10.32l.03-14.42s-12.04.32-21.18,4.1Z"/>
  </g>
  <path class="cls-6" d="M65.32,233.16c6.16,14.25,32.48,11.91,39.13,6.01,6.81-6.05-5.5-13.6-5.5-13.6,2.57-4.37,3.98-10.6,4.68-17.16.8-7.45.7-15.33.39-21.41-.32-6.27-.85-10.62-.85-10.62l-38.82-21.01c.03,7.9,1.35,14.66,2.53,20.07,2.52,11.5,2.36,20.36,1.34,27.6-.5,3.51-1.19,6.63-1.88,9.5-1.95,8.08-3.85,14.08-1.03,20.63Z"/>
  <g class="cls-4">
    <path class="cls-2" d="M67.4,177.92c.15.81.3,1.62.43,2.41-.13-.79-.27-1.59-.43-2.41Z"/>
  </g>
  <path class="cls-7" d="M86.96,245.18c7.86,0,15.27-2.16,18.43-4.97,1.84-1.64,2.69-3.55,2.5-5.66-.38-4.24-4.88-7.89-7.08-9.45,7.8-15.24,3.94-47.51,3.77-48.9-.1-.77-.8-1.32-1.57-1.23-.77.09-1.32.8-1.23,1.57.04.34,4.12,34.44-4.05,48.31-.39.66-.18,1.52.48,1.92,1.81,1.12,6.58,4.73,6.87,8.04.1,1.19-.41,2.27-1.57,3.3-3.76,3.34-14.94,5.53-24.27,3.45-4.42-.99-10.2-3.33-12.64-8.97-2.39-5.54-1.14-10.61.59-17.64,2.31-9.37,5.18-21.03,1.06-39.82-1.29-5.86-2.48-12.32-2.49-19.78,0-.78-.63-1.41-1.41-1.41h0c-.78,0-1.41.63-1.41,1.41.03,7.72,1.25,14.35,2.56,20.37,3.97,18.15,1.19,29.45-1.05,38.54-1.79,7.28-3.21,13.03-.45,19.43,2.3,5.32,7.35,8.99,14.61,10.6,2.72.6,5.55.87,8.32.87Z"/>
  <g class="cls-4">
    <path class="cls-2" d="M104.61,142.03c.92,8.22,1.45,15.35,1.55,21.3.15-5.55-.39-12.7-1.55-21.3Z"/>
  </g>
  <g class="cls-4">
    <path class="cls-2" d="M22.96,152.27c.03-3.2.23-6.63.59-10.26-.45,3.7-.64,7.13-.59,10.26Z"/>
  </g>
  <path class="cls-6" d="M73.43,197.25c-13.96.98-24.55-3.34-28.19-4.96-9.32-4.14-16.48-11.67-19.98-21.59-5.41-15.33-1.52-49.22,13.17-87.7l47.75-3.04c21.72,41.52,26.55,86.94,17.6,101.87-.9,1.51-1.89,2.96-3.14,4.24-5.12,5.29-13.22,8.4-19.77,9.96"/>
  <path class="cls-2" d="M98.48,172.49l-37.02,1.51c-4.38.18-8.15-2.51-8.38-5.98l-1.01-15.57c-.19-3.04,2.39-5.7,5.98-6.44,2.17,1.02,3.56,1.67,3.56,1.67,2.62,12.43,7.53,18.48,27.18,17.94,8.48-.23,13.77-1.48,17.05-2.99l.21,3.24c.22,3.47-3.18,6.45-7.57,6.63Z"/>
  <path class="cls-7" d="M61.19,176c-2.26,0-4.42-.72-6.13-2.06-1.83-1.43-2.89-3.38-3.02-5.49l-.98-16.49c-.26-4.38,3.63-8.13,8.68-8.35l35.7-1.59c5.05-.22,9.36,3.15,9.62,7.54l.98,16.49c.26,4.38-3.63,8.13-8.68,8.35l-35.7,1.59c-.16,0-.31.02-.47.02ZM95.92,144.55c-.11,0-.21,0-.32,0l-35.7,1.59c-3.43.15-6.08,2.7-5.9,5.67l.98,16.49c.08,1.44.81,2.76,2.05,3.73,1.24.97,2.83,1.47,4.48,1.39l35.7-1.59c1.66-.07,3.18-.71,4.3-1.78,1.12-1.07,1.68-2.46,1.6-3.89l-.98-16.49c-.08-1.44-.81-2.76-2.05-3.73-1.16-.91-2.63-1.4-4.16-1.4Z"/>
  <path class="cls-7" d="M61.18,176c-2.26,0-4.42-.73-6.12-2.07-1.83-1.44-2.89-3.41-3.01-5.54l-.98-16.62c-.13-2.13.71-4.18,2.35-5.78,1.65-1.6,3.89-2.53,6.32-2.65l7.71-.35.42,2.54c-2.91.62-4.9,2.96-4.75,5.57l.98,16.62c.08,1.45.81,2.78,2.05,3.76,1.23.98,2.83,1.48,4.48,1.4l27.98-1.26.44,2.53c-.56.12-1.15.2-1.72.23l-35.67,1.61c-.17,0-.33,0-.49,0ZM62.2,145.81l-2.3.1c-3.43.16-6.07,2.73-5.9,5.73l.98,16.62c.08,1.45.81,2.78,2.05,3.76s2.83,1.48,4.48,1.4l2.56-.12c-1.75-1.43-2.78-3.36-2.9-5.44l-.98-16.62c-.13-2.03.64-3.95,2-5.43Z"/>
  <path class="cls-11" d="M74.51,164c-3.47,0-6.41-2.12-6.6-4.82-.1-1.3.46-2.55,1.55-3.52,1.16-1.02,2.78-1.62,4.57-1.66,1.79-.05,3.49.44,4.79,1.39,1.23.9,1.96,2.11,2.06,3.42.1,1.3-.46,2.55-1.55,3.52-1.16,1.02-2.78,1.62-4.57,1.66-.09,0-.17,0-.25,0Z"/>
  <path class="cls-7" d="M74.51,164c-3.47,0-6.41-2.12-6.6-4.82-.1-1.3.46-2.55,1.55-3.52,1.16-1.02,2.78-1.62,4.57-1.66,1.79-.05,3.49.44,4.79,1.39,1.23.9,1.96,2.11,2.06,3.42.1,1.3-.46,2.55-1.55,3.52-1.16,1.02-2.78,1.62-4.57,1.66-.09,0-.17,0-.25,0ZM74.27,155.48h-.14c-1.05.03-2.03.4-2.76,1.05-.79.7-1.19,1.62-1.12,2.6.14,1.94,2.12,3.47,4.39,3.4,1.05-.03,2.03-.4,2.76-1.05.79-.7,1.19-1.62,1.12-2.6-.07-.97-.6-1.87-1.5-2.52-.77-.57-1.75-.88-2.75-.88Z"/>
  <path class="cls-7" d="M85.69,174c-.65,0-1.19-.4-1.21-.91l-.42-11.62,6.51-3.5-.88-14c-.03-.51.48-.95,1.15-.97.68-.02,1.24.37,1.27.88l.94,15.02-6.53,3.51.38,10.62c.02.51-.51.94-1.18.96,0,0-.02,0-.03,0Z"/>
  <path class="cls-8" d="M76.49,164c-2.94,0-5.43-2.12-5.59-4.82-.08-1.3.39-2.55,1.31-3.52.98-1.02,2.35-1.62,3.87-1.66,1.52-.05,2.95.44,4.06,1.39,1.04.9,1.66,2.11,1.74,3.42.08,1.3-.39,2.55-1.31,3.52-.98,1.02-2.35,1.62-3.87,1.66-.07,0-.15,0-.21,0Z"/>
  <path class="cls-6" d="M105.97,164c-2.13,0-3.95-2.97-4.06-6.74-.06-1.83.28-3.58.96-4.92.71-1.43,1.71-2.26,2.82-2.33,1.1-.08,2.15.62,2.95,1.95.76,1.26,1.21,2.96,1.27,4.78.06,1.83-.28,3.58-.96,4.92-.71,1.43-1.71,2.26-2.81,2.33-.05,0-.11,0-.15,0Z"/>
  <path class="cls-6" d="M39.82,169c-12.5,0-19.91-3.62-20.32-3.83l-.13-.07c-.15-.1-3.66-2.39-3.47-7.78.17-4.62,3.88-7.57,4.03-7.69l.82-.64.89.55c9.84,6.04,31.13,3.27,31.34,3.24l.54-.07.46.29c2.15,1.34,3.42,3.12,3.79,5.28.74,4.32-2.59,8.5-2.73,8.68l-.33.41-.52.11c-5.32,1.11-10.14,1.52-14.38,1.52Z"/>
  <path class="cls-7" d="M76.49,164c-2.94,0-5.43-2.12-5.59-4.82-.08-1.3.39-2.55,1.31-3.52.98-1.02,2.35-1.62,3.87-1.66,1.52-.05,2.95.44,4.06,1.39,1.04.9,1.66,2.11,1.74,3.42.08,1.3-.39,2.55-1.31,3.52-.98,1.02-2.35,1.62-3.87,1.66-.07,0-.15,0-.21,0ZM76.29,155.48h-.12c-.89.03-1.72.4-2.34,1.05-.67.7-1.01,1.62-.95,2.6.12,1.94,1.79,3.47,3.72,3.4.89-.03,1.72-.4,2.34-1.05.67-.7,1.01-1.62.95-2.6-.06-.97-.51-1.87-1.27-2.52-.65-.57-1.48-.88-2.33-.88Z"/>
  <path class="cls-7" d="M105.97,164c-2.13,0-3.95-2.97-4.06-6.74-.06-1.83.28-3.58.96-4.92.71-1.43,1.71-2.26,2.82-2.33,1.1-.08,2.15.62,2.95,1.95.76,1.26,1.21,2.96,1.27,4.78.06,1.83-.28,3.58-.96,4.92-.71,1.43-1.71,2.26-2.81,2.33-.05,0-.11,0-.15,0ZM105.82,152.07h-.09c-.65.04-1.25.56-1.7,1.47-.49.98-.73,2.27-.69,3.63.09,2.72,1.3,4.86,2.7,4.76.65-.04,1.25-.56,1.7-1.46.49-.98.73-2.27.69-3.64-.04-1.36-.37-2.62-.92-3.53-.47-.8-1.08-1.23-1.69-1.23Z"/>
  <path class="cls-2" d="M19.06,158.18c-.17,3.56,2.72,5.01,2.72,5.01,0,0,12.63,5,32.89,1.68,0,0,1.96-1.92,2.38-4.17-.1.11-.16.17-.16.17-14.81,2.43-25.54.41-30.24-.85-3.27-.88-5.45-3.17-5.37-5.73v-.11c0-.06,0-.12.02-.18-.95.88-2.15,2.33-2.24,4.18Z"/>
  <path class="cls-7" d="M39.82,169c-12.5,0-19.91-3.62-20.32-3.83l-.13-.07c-.15-.1-3.66-2.39-3.47-7.78.17-4.62,3.88-7.57,4.03-7.69l.82-.64.89.55c9.84,6.04,31.13,3.27,31.34,3.24l.54-.07.46.29c2.15,1.34,3.42,3.12,3.79,5.28.74,4.32-2.59,8.5-2.73,8.68l-.33.41-.52.11c-5.32,1.11-10.14,1.52-14.38,1.52ZM20.93,162.63c1.14.52,13.32,5.87,32.08,2.12.68-.98,2.26-3.59,1.84-6-.21-1.18-.88-2.18-2.04-3.01-3.52.42-21.59,2.24-31.73-3.15-.84.9-2.14,2.63-2.22,4.84-.13,3.39,1.71,4.93,2.07,5.21Z"/>
  <path class="cls-7" d="M101.24,119.05c-.06.51-.07,1.01-.05,1.5,0,.49.05.98.1,1.45.09.96.28,1.89.47,2.82.36,1.87.86,3.7,1.31,5.55.46,1.84.83,3.7,1.18,5.57.35,1.87.65,3.74.94,5.62,1.1,7.5,1.72,15.1,1.35,22.61-.2,3.75-.63,7.49-1.59,11.05-.48,1.77-1.09,3.51-1.91,5.07-.41.76-.9,1.57-1.4,2.31-.51.76-1.05,1.46-1.64,2.11-2.43,2.61-5.56,4.66-8.89,6.27-.83.4-1.68.78-2.55,1.13-.86.35-1.76.62-2.65.89-.89.28-1.77.59-2.62.98-.43.2-.86.4-1.28.67-.42.26-.83.54-1.23.93l-.02.02c-.21.21-.21.54,0,.75.07.07.15.12.24.15,1.06.28,2.07.26,3.05.12.98-.16,1.93-.42,2.85-.76.92-.35,1.82-.76,2.73-1.12.91-.38,1.82-.77,2.7-1.2,3.55-1.72,6.96-3.9,9.76-6.91.69-.77,1.32-1.59,1.89-2.42.57-.84,1.07-1.66,1.57-2.59.96-1.83,1.61-3.73,2.14-5.65,1.03-3.85,1.48-7.75,1.68-11.64.38-7.78-.27-15.53-1.38-23.17-.29-1.91-.6-3.82-.96-5.71-.17-.95-.36-1.9-.55-2.85l-.55-2.84c-.35-1.89-.75-3.79-1.31-5.63-.55-1.85-1.24-3.67-2.44-5.32-.16-.22-.48-.28-.7-.1-.11.08-.18.21-.2.34h-.03Z"/>
  <path class="cls-7" d="M69.31,198.8c1.38,0,2.79-.04,4.23-.15.78-.05,1.36-.73,1.3-1.5-.05-.78-.72-1.36-1.5-1.3-11.86.83-21.51-2.18-27.51-4.84-9.1-4.05-15.93-11.43-19.23-20.78-4.74-13.42-2.58-45.14,12.84-85.89l46.85-2.98c.78-.05,1.36-.72,1.32-1.5-.05-.78-.72-1.36-1.5-1.32l-47.75,3.04c-.55.03-1.03.39-1.23.9-13.83,36.21-19.13,71.85-13.18,88.67,3.56,10.09,10.92,18.05,20.74,22.42,5.55,2.48,14.11,5.23,24.62,5.23Z"/>
  <path class="cls-7" d="M69.31,198.8c1.37,0,2.79-.04,4.23-.15.78-.05,1.36-.73,1.3-1.5-.05-.78-.72-1.36-1.5-1.3-11.87.83-21.51-2.18-27.51-4.84-9.1-4.05-15.93-11.43-19.23-20.77-5.22-14.8-1.29-45.47,10.02-78.11.26-.74-.14-1.53-.87-1.79-.74-.26-1.53.14-1.79.87-11.5,33.21-15.44,64.6-10.01,79.97,3.56,10.09,10.92,18.04,20.74,22.41,5.56,2.46,14.12,5.21,24.63,5.21Z"/>
  <path class="cls-7" d="M79.88,226.19c1.56-.51,3.15-.88,4.74-1.09,1.59-.23,3.18-.3,4.74-.23.78,0,1.55.14,2.31.21.76.15,1.53.24,2.26.44.37.1.75.15,1.11.27.36.12.73.22,1.1.33.37.09.73.23,1.09.37.36.13.73.25,1.11.36l.14.04c.75.22,1.53-.2,1.75-.94.2-.65-.1-1.34-.69-1.65-1.55-.83-3.24-1.48-5-1.77-.87-.2-1.76-.23-2.64-.3-.44-.02-.88,0-1.32.02-.44,0-.87.04-1.31.09-1.74.17-3.45.55-5.07,1.14-1.61.59-3.15,1.35-4.53,2.37-.09.07-.11.2-.04.28.05.07.15.09.22.07l.03.02Z"/>
  <g class="cls-4">
    <path class="cls-1" d="M22.96,152.27c.08,5.38,18.53-22.47,18.53-18.77,0,8.11-2.67,20.25-2.01,31.32.17,2.85.45,5.55.71,7.96.6,5.4,2.06,9.38,5.06,10.47,3.21,1.17,11.86,4.07,23.45,4.18,1.53.02,3.11-.02,4.74-.11,6.82-.4,22.67-3.44,29.27-11.21.39-.46.76-.94,1.09-1.45,1.46-2.24,2.23-6.06,2.37-11.34.17,8.9-.58,15.15-2.37,18.5-.03.04-.05.09-.08.14.11,1.47.22,3.16.32,5.03-.08.17-.15.33-.24.49-4.05,7.58-13.84,11.87-21.81,13.93-3.75.97-6.73,3.88-7.71,7.64-2.31,8.91-6.56,13.46-4.39,20.06,4.43,13.48,27.31,9.46,36.3,4.18.67,1.92.42,3.98-1.72,5.88-6.64,5.9-32.98,8.25-39.13-6.01-3.82-8.86,1.02-16.71,2.91-30.12.11-.81.21-1.62.31-2.47.03-.2.04-.39.06-.59.03-.22.04-.43.06-.64.03-.25.04-.5.06-.75.03-.38.05-.76.08-1.15v-.04c-11.64-.11-20.33-3.67-23.55-5.1-9.32-4.14-16.48-11.67-19.98-21.59-1.62-4.6-2.41-10.87-2.31-18.43Z"/>
  </g>
  <path class="cls-6" d="M27.49,238.46c6.16,14.26,32.49,11.91,39.13,6.01,6.81-6.05-5.49-13.59-5.49-13.59,4.34-5.07,6.4-12.05,7.24-18.94,1.54-12.52-.91-24.77-.91-24.77l-40.92-26.5c.03,7.9,1.35,14.66,2.53,20.08,3,13.69,2.2,23.62.67,31.54-2.13,11.09-5.67,18.22-2.25,26.17Z"/>
  <g class="cls-4">
    <path class="cls-2" d="M29.07,180.75c3,13.69,2.2,23.62.67,31.54,23.55,8.25,38.24-.13,38.63-.35.1-.84.19-1.69.26-2.52-.07.02-.13.03-.2.05-14.94,4.1-30.05-6.38-31.3-21.83-.29-3.59-.86-7.49-1.79-11.76-.73-3.31-1.5-7.11-2-11.37l-6.82-3.86c.04,7.92,1.36,14.68,2.55,20.09Z"/>
  </g>
  <g class="cls-4">
    <path class="cls-1" d="M29.07,180.83c7.18,32.84-7.46,44.08-1.58,57.72,6.15,14.25,32.49,11.91,39.13,6.01,1.78-1.59,2.25-3.27,1.98-4.9-8.93,4.71-31.34,5.53-36.95-7.48-2.02-4.69,10.22-13.82,10.3-24.02.07-8.55-2.32-17.28-4.83-24.04-2.01-5.44-3.26-22.37-14.14-28.31.15,5.8.88,10.71,2.17,14.51.63.2,1.34.4,2.12.61.5,3.67,1.17,6.98,1.81,9.89Z"/>
  </g>
  <path class="cls-7" d="M66.99,187.35c-.03,3.81.16,7.54.29,11.26.09,3.73.12,7.45-.16,11.14-.13,1.85-.37,3.69-.7,5.49-.33,1.81-.76,3.6-1.33,5.33-.57,1.73-1.23,3.44-2.07,5.01-.84,1.59-1.83,3.09-2.97,4.45-.51.6-.43,1.5.18,2.01.05.04.09.08.15.11h0c.54.35,1.13.77,1.67,1.18.55.42,1.08.86,1.59,1.32,1.01.93,1.95,1.92,2.62,3,.68,1.07,1.09,2.21.97,3.21-.12.99-.74,1.95-1.7,2.74-.93.77-2.15,1.41-3.41,1.91-1.27.51-2.61.91-3.97,1.23-2.73.63-5.55.95-8.38,1-1.41.02-2.82-.03-4.22-.15-1.4-.15-2.79-.34-4.15-.64-2.72-.61-5.34-1.58-7.59-3.07-1.11-.75-2.13-1.62-3-2.61-.85-1.01-1.54-2.13-2.08-3.33-1.05-2.49-1.46-5.16-1.24-7.91.19-2.75.85-5.54,1.53-8.36.69-2.82,1.41-5.68,1.98-8.59.57-2.91,1-5.86,1.24-8.82.24-2.97.28-5.95.15-8.92-.13-2.97-.44-5.92-.87-8.85-.45-2.91-1.1-5.85-1.68-8.66-.58-2.83-.91-5.69-1.31-8.52-.4-2.85-.76-5.67-1.55-8.56-.07-.26-.33-.41-.6-.34-.17.05-.3.18-.34.34-.76,2.94-.75,5.95-.47,8.9.27,2.96.94,5.85,1.52,8.74.61,2.91,1.22,5.68,1.66,8.52.42,2.84.72,5.69.85,8.55.27,5.72-.21,11.44-1.35,17.07-.55,2.82-1.26,5.62-1.95,8.46-.69,2.85-1.38,5.76-1.6,8.84-.11,1.53-.07,3.11.17,4.67.24,1.56.68,3.1,1.29,4.53.65,1.47,1.5,2.84,2.54,4.06,1.05,1.21,2.27,2.24,3.57,3.12,2.62,1.74,5.57,2.81,8.54,3.47,1.48.34,2.99.54,4.49.69,1.51.13,3.02.19,4.52.17,3.01-.05,6.02-.39,8.98-1.07,1.47-.35,2.94-.79,4.38-1.36,1.43-.58,2.85-1.29,4.17-2.38.17-.13.32-.28.47-.43.15-.15.31-.29.45-.46.28-.33.57-.67.81-1.06.49-.76.84-1.68.94-2.63.11-.95-.03-1.89-.29-2.73-.27-.85-.66-1.6-1.1-2.3-.88-1.39-1.97-2.53-3.11-3.57-.57-.52-1.17-1.01-1.77-1.47-.62-.47-1.22-.9-1.91-1.34l.33,2.12c1.29-1.54,2.39-3.22,3.33-4.97.94-1.75,1.65-3.6,2.26-5.46.62-1.86,1.05-3.77,1.43-5.67.2-.95.33-1.91.49-2.87.12-.96.25-1.92.34-2.88.4-3.85.45-7.72.15-11.56-.14-1.92-.37-3.83-.74-5.72-.38-1.89-.82-3.76-1.55-5.57-.09-.25-.38-.37-.62-.27-.19.08-.3.25-.3.44h0Z"/>
  <path class="cls-7" d="M49.27,216.79c6.28,0,13.22-.94,19.55-3.9.53-.25.75-.87.51-1.41-.25-.53-.87-.75-1.41-.51-16.31,7.61-37.68.99-37.9.92-.56-.18-1.15.13-1.33.69-.18.56.13,1.15.69,1.33.57.19,9.26,2.89,19.88,2.89Z"/>
  <path class="cls-7" d="M39.9,233.66c.27,0,.54-.08.78-.24.36-.24,8.73-5.63,19.92-1.16.72.29,1.54-.06,1.83-.79.29-.72-.06-1.54-.79-1.83-12.63-5.04-22.13,1.17-22.54,1.43-.64.43-.82,1.31-.39,1.95.27.42.72.63,1.17.63Z"/>
  <path class="cls-6" d="M9.15,165.3c.29,18.15,8.39,20.36,18.64,20.31,8.56-.04,9.12-6.6,9.12-6.6,0,0,3.14-.8,4.02-4.37.8-3.23-2.56-8.14-3.6-9.54-.19-.26-.3-.39-.3-.39,0,0-.35-2.14-.35-5.83,0-.72,0-1.5.04-2.32.21-5.63,1.27-13.77,4.77-23.05l-8.45-30.57c-14.98,16.14-21.68,31.37-23.49,52.87-.09.98-.16,1.96-.22,2.97-.03.48-.06.96-.09,1.45-.09,1.82-.13,3.51-.09,5.08Z"/>
  <g class="cls-4">
    <path class="cls-1" d="M9.15,165.3c.29,18.15,8.39,20.36,18.64,20.31,8.56-.04,9.12-6.6,9.12-6.6,0,0,3.14-.8,4.02-4.37.28-1.14.04-2.49-.42-3.82-1.19,2.55-3.91.85-3.91.85,0,0-.26,8.86-8.8,8.91-9.99.05-17.94-2.06-18.6-18.99-.06,1.3-.07,2.55-.04,3.71Z"/>
  </g>
  <g class="cls-9">
    <path class="cls-3" d="M9.33,158.76c9.94-.59,22.01-.15,27.35.11,0-.93.03-1.97.08-3.09-6.14-.22-15.28-.4-23.09.07,1.31-21.1,6.94-36.18,19.86-51.5l-.5-1.42c-15.66,16.88-22.26,32.75-23.7,55.84Z"/>
  </g>
  <path class="cls-7" d="M38.3,153.65c.29-1.66.5-3.33.73-5,.23-1.66.44-3.34.71-5.01.27-1.67.57-3.34.89-5.02.33-1.68.69-3.35,1.04-5.06.03-.11-.04-.21-.15-.24-.09-.02-.18.03-.22.1-.86,1.52-1.59,3.1-2.27,4.71-.67,1.61-1.26,3.26-1.77,4.94-.51,1.68-.95,3.38-1.25,5.11-.3,1.73-.51,3.48-.51,5.24,0,.78.63,1.41,1.41,1.41.69,0,1.28-.51,1.4-1.18h0Z"/>
  <path class="cls-7" d="M27.42,187.01h.37c7.69-.03,9.79-4.9,10.34-6.96,1.23-.57,3.4-1.96,4.17-5.08.97-3.96-2.83-9.38-3.93-10.84-.13-1.01-.46-4.28-.17-9.03.05-.78-.54-1.45-1.32-1.49-.78-.04-1.45.54-1.49,1.32-.38,6.1.22,9.84.25,9.99.03.23.14.46.28.64,1.71,2.17,4.19,6.46,3.63,8.74-.65,2.68-2.91,3.33-3.01,3.35-.57.15-.99.65-1.05,1.24-.05.53-.75,5.27-7.72,5.31-4.84.03-9.76-.41-12.93-3.75-3.35-3.51-4.72-10.11-4.2-20.16,1.24-23.78,7.81-39.6,23.42-56.41.53-.57.5-1.47-.08-1.99-.57-.53-1.47-.5-1.99.08-16.11,17.35-22.89,33.66-24.17,58.17-.57,11.02,1,18.1,4.97,22.25,3.82,4,9.27,4.6,14.62,4.6Z"/>
  <path class="cls-7" d="M35.81,171.26l-.3,7.59v.03c-.03.78.57,1.44,1.35,1.47.78.03,1.44-.57,1.47-1.36,0-.08,0-.15,0-.23l-.94-7.57c-.05-.43-.45-.74-.88-.69-.39.05-.68.37-.69.75h0Z"/>
  <path class="cls-6" d="M139.99,150.13c5.81-.94,7.5-8.1,7.5-8.1,0,0,10.61.65,11.15-4.07.28-2.53-8.03-5.19-12.39-4.64-4.36.55-7.97,2.26-7.97,2.26"/>
  <path class="cls-7" d="M140.02,150.36c.25.01.52,0,.78,0,.13,0,.26,0,.4-.02.13-.02.25-.04.38-.07.26-.06.54-.09.79-.18l.76-.29c.99-.44,1.9-1.08,2.67-1.86.76-.77,1.39-1.65,1.92-2.58.26-.47.49-.94.7-1.44.11-.24.2-.49.29-.75.09-.26.17-.49.26-.82l-1.57,1.17c1.6.1,3.09.04,4.65-.16,1.54-.21,3.1-.52,4.67-1.24.78-.36,1.59-.85,2.27-1.64.18-.18.31-.42.47-.63.12-.24.27-.47.34-.73l.13-.38.08-.4c.05-.19.09-.74,0-1.07-.17-.77-.55-1.25-.89-1.63-.35-.38-.71-.68-1.07-.92-.72-.51-1.44-.87-2.17-1.2-1.46-.65-2.95-1.11-4.49-1.41-.77-.15-1.54-.26-2.34-.32-.79-.07-1.6-.07-2.43.01-.21.02-.43.05-.63.08l-.58.1c-.39.07-.76.16-1.13.26-.75.21-1.48.45-2.18.74-1.41.6-2.76,1.33-3.93,2.37-.1.09-.11.24-.02.34.06.06.14.09.21.08h.02c1.5-.17,2.92-.4,4.33-.6.7-.1,1.4-.19,2.09-.28.34-.04.69-.08,1.04-.12l.51-.06c.17-.02.3-.02.46-.02.62-.01,1.28.04,1.95.11.67.08,1.34.2,2.01.32,1.33.28,2.68.65,3.91,1.14.61.25,1.21.53,1.7.85.25.15.46.33.61.49.16.15.21.29.2.24,0-.01,0-.02,0-.05,0,0,.02-.05,0-.01v.07s-.04.15-.04.15c-.02.05-.03.09-.05.14-.01.09-.08.17-.11.26-.07.08-.1.17-.18.25-.27.34-.74.65-1.28.89-1.11.48-2.47.72-3.83.84-.68.06-1.38.09-2.07.11-.68.02-1.41.01-2.06,0h-.1c-.72-.02-1.34.49-1.47,1.17-.03.15-.1.38-.16.58l-.21.62c-.13.42-.3.83-.47,1.23-.34.81-.76,1.58-1.23,2.31-.48.72-1.04,1.37-1.69,1.98-.65.6-1.44,1.05-2.32,1.5h-.02c-.12.07-.17.21-.11.33.05.07.13.12.21.13Z"/>
  <g class="cls-4">
    <path class="cls-2" d="M76.78,50.12c-.6,1.76-1.1,3.53-1.52,5.32-3.17,13.55-1.22,27.75,5.27,39.85.51.95,1.05,1.9,1.62,2.83,1.57,2.55,3.34,5,5.33,7.3,1.64,1.9,3.43,3.73,5.34,5.43.35.31.7.61,1.07.92,1.71,1.44,3.52,2.8,5.44,4.07.24.16.48.32.72.47.86.54,1.73,1.06,2.6,1.56,1.8,1.01,3.62,1.92,5.47,2.71,3.75,1.62,7.61,2.81,11.51,3.58-4.67-3.37-9.47-7.84-14.38-14.1,6.31-6.38,12.44-13.42,18.12-21.02l-23.35-41.76c-8.12.66-15.9,1.63-23.24,2.85Z"/>
  </g>
  <path class="cls-6" d="M124.18,76.13c-3.2,8.94-8.64,17.13-16.12,23.63-1.53,1.33-3.13,2.58-4.82,3.76-.82.57-1.66,1.13-2.53,1.67-2.61,1.62-5.3,3.01-8.04,4.16-2.37,1-4.77,1.83-7.2,2.48-2.93.8-5.91,1.35-8.88,1.65-1.09.11-2.17.19-3.26.24-19.87.91-39.63-8.65-50.89-26.74C5.86,60.35,14.02,25.31,40.64,8.72c5.13-3.19,10.58-5.48,16.14-6.88.65-.17,1.3-.32,1.96-.45,1.76-.38,3.52-.67,5.3-.88,4.1-.48,8.2-.51,12.26-.09,4.05.4,8.06,1.24,11.92,2.5,1.23.39,2.44.84,3.65,1.32,1.8.73,3.57,1.54,5.31,2.45,8.63,4.53,16.2,11.35,21.73,20.23,9.54,15.34,10.9,33.43,5.26,49.21Z"/>
  <path class="cls-7" d="M70.74,113.94c.87,0,1.73-.02,2.61-.06,1.09-.05,2.19-.14,3.27-.24,3.02-.32,6.02-.87,8.91-1.65,2.47-.67,4.9-1.51,7.22-2.49,2.77-1.17,5.49-2.56,8.06-4.18.94-.59,1.77-1.14,2.54-1.68,1.65-1.16,3.28-2.43,4.83-3.77,7.3-6.36,12.89-14.55,16.15-23.69,5.9-16.49,3.97-34.47-5.27-49.32-5.35-8.59-12.88-15.6-21.78-20.28-1.68-.89-3.47-1.72-5.31-2.46-1.18-.47-2.41-.92-3.66-1.33-3.87-1.26-7.9-2.1-11.95-2.5-4.09-.41-8.23-.38-12.29.09-1.77.21-3.56.51-5.31.88-.7.15-1.35.3-1.97.46-5.67,1.42-11.12,3.75-16.18,6.89C13.92,25.22,5.74,60.42,22.34,87.08c10.41,16.73,28.78,26.86,48.4,26.86ZM70.6.29c1.89,0,3.8.09,5.69.28,4.04.4,8.03,1.24,11.89,2.49,1.24.4,2.47.85,3.64,1.32,1.83.74,3.62,1.56,5.29,2.45,8.86,4.65,16.36,11.62,21.68,20.17,9.2,14.77,11.11,32.66,5.25,49.07-3.25,9.1-8.81,17.25-16.07,23.57-1.54,1.34-3.15,2.6-4.8,3.75-.75.53-1.59,1.08-2.52,1.67-2.56,1.6-5.26,2.99-8.02,4.15-2.31.98-4.72,1.81-7.18,2.48-2.88.78-5.85,1.34-8.86,1.65-1.08.11-2.17.19-3.25.24-.87.04-1.73.06-2.59.06-19.53,0-37.8-10.07-48.17-26.73C6.07,60.4,14.21,25.37,40.74,8.85c5.03-3.13,10.45-5.43,16.1-6.86.62-.16,1.26-.31,1.95-.45,1.75-.38,3.52-.67,5.28-.87,2.16-.25,4.35-.38,6.53-.38Z"/>
  <g class="cls-4">
    <path class="cls-1" d="M22.45,87c11.26,18.09,31.02,27.65,50.89,26.74,1.09-.05,2.17-.13,3.26-.24,2.97-.31,5.95-.86,8.88-1.65,2.43-.66,4.84-1.48,7.2-2.48,2.74-1.15,5.43-2.54,8.04-4.16.86-.55,1.71-1.1,2.53-1.67,1.69-1.18,3.29-2.43,4.82-3.76,7.48-6.51,12.92-14.69,16.12-23.63,1.76-4.91,2.84-10.06,3.2-15.27-3.24,8.47-8.53,16.19-15.66,22.41-1.53,1.33-3.13,2.58-4.82,3.76-.82.57-1.66,1.13-2.53,1.67-2.61,1.62-5.3,3.01-8.04,4.17-2.37.99-4.77,1.82-7.2,2.48-2.93.8-5.91,1.34-8.88,1.65-1.09.11-2.18.19-3.26.24-19.87.91-39.62-8.65-50.89-26.74-6.58-10.55-9.26-22.42-8.45-33.93-6.16,16.05-4.99,34.69,4.8,50.41Z"/>
  </g>
  <path class="cls-7" d="M78.54,112.74c4.86,0,9.78-.58,14.64-1.76.07-.02.15-.04.21-.07,2.83-1.19,5.62-2.62,8.25-4.26.97-.61,1.82-1.17,2.59-1.71,1.69-1.18,3.36-2.48,4.94-3.85,7.48-6.5,13.2-14.87,16.55-24.22,6.04-16.86,4.06-35.23-5.4-50.41-5.48-8.78-13.19-15.94-22.31-20.72-.09-.04-.18-.08-.27-.11-7.22-2.05-15.3-2.43-24.02-1.12-15.52,2.31-30.37,11.76-39.72,25.27-8.6,12.41-11.7,26.77-8.74,40.42,3.21,14.84,11.33,26.69,23.47,34.28,8.73,5.45,19.12,8.28,29.81,8.28ZM92.4,108.26c-14.78,3.57-30.14,1.33-42.17-6.18-11.48-7.17-19.16-18.4-22.21-32.48-2.79-12.88.16-26.46,8.3-38.23,8.91-12.88,23.05-21.88,37.81-24.09,8.25-1.23,15.89-.9,22.69,1.01,8.61,4.54,15.9,11.34,21.09,19.64,9.01,14.44,10.88,31.93,5.14,47.97-3.19,8.9-8.62,16.86-15.74,23.05-1.5,1.31-3.09,2.55-4.71,3.67-.75.52-1.56,1.05-2.47,1.64-2.47,1.53-5.08,2.88-7.75,4Z"/>
  <path class="cls-6" d="M7.33,71.21c-1.62-11.1,3.61-21.06,11.68-22.23,8.07-1.17,15.92,6.88,17.53,17.98,1.62,11.1-3.61,21.06-11.68,22.23-8.07,1.17-15.92-6.88-17.53-17.98Z"/>
  <path class="cls-6" d="M5.52,73.34c-1.58-8.76,2.43-16.83,8.97-18.01,6.54-1.18,13.12,4.97,14.7,13.73,1.58,8.76-2.43,16.83-8.97,18.01-6.54,1.18-13.12-4.97-14.7-13.73Z"/>
  <path class="cls-7" d="M18.65,87.37c1.77,0,3.49-.51,5.07-1.53,5.81-3.77,7.72-13.41,4.23-21.47-1.95-4.52-5.23-7.76-9.01-8.9-2.78-.84-5.51-.46-7.92,1.11-5.82,3.77-7.72,13.41-4.23,21.47,1.95,4.52,5.23,7.76,9.01,8.9.97.28,1.92.43,2.86.43ZM16.08,55.33c.91,0,1.83.14,2.77.42,3.69,1.11,6.9,4.3,8.82,8.74,3.43,7.94,1.58,17.4-4.12,21.11-2.33,1.51-4.98,1.88-7.67,1.07-3.69-1.11-6.9-4.3-8.82-8.74-3.43-7.94-1.58-17.4,4.12-21.11,1.52-.99,3.18-1.49,4.9-1.49Z"/>
  <path class="cls-5" d="M120.68,89.32c-30.52,28.51-79.7,18.89-88.52-21.05-6.01-27.17,16.59-53.89,43.68-57.86,24.85-3.63,45.8,8.42,53.2,31.38,2.79,8.68,2.71,14.29,1.35,23.3-1.16,7.69-2.64,12.04-6.37,18.85-1.18,2.16-3.33,5.36-3.33,5.36Z"/>
  <path class="cls-10" d="M32.45,68.38c8.49,39.31,55.77,48.79,85.12,20.72l.65-1.07c-35.2,12.05-74.61-4.05-83.94-43.63-2.78,7.52-3.61,15.73-1.83,23.99Z"/>
  <g class="cls-4">
    <path class="cls-2" d="M29.3,76.96c.47-3.02.11-6.18-.87-9.09-1.65,6.8-7.39,10.03-13.34,7.27-3.84-1.78-6.88-5.67-8.41-10.16-.1.43-.19.87-.27,1.33-1.19,7.69,2.97,16.3,9.29,19.24,6.32,2.95,12.4-.9,13.6-8.59Z"/>
  </g>
  <path class="cls-7" d="M18.56,88.68c.11,0,.22,0,.33,0,2.63-.1,5.05-1.32,6.98-3.52,3.03-3.47,4.52-9.04,3.95-14.91-.94-9.81-7.3-17.58-14.21-17.32-2.63.1-5.05,1.32-6.98,3.52-3.03,3.47-4.52,9.04-3.95,14.91l1.41-.14-1.41.14c.93,9.65,7.12,17.33,13.88,17.33ZM15.97,55.72c5.33,0,10.26,6.56,11.06,14.78.49,5.1-.73,9.88-3.27,12.78-1.41,1.61-3.13,2.49-4.96,2.56-.08,0-.16,0-.24,0-5.33,0-10.26-6.56-11.06-14.78-.49-5.1.73-9.88,3.27-12.78,1.41-1.61,3.13-2.49,4.96-2.56.08,0,.16,0,.24,0Z"/>
  <g class="cls-9">
    <path class="cls-3" d="M66.14,23.31s25.72-2.19,41.93,10.37c.02.02.03.03.05.04,3.41,2.65,6.04,6.17,7.65,10.18,2.12,5.3,2.8,9.27,3.28,12.77,1.42,10.68.09,15.95.09,15.95,5.32-6.45,7.9-13.31,6.8-22.22-.11-.87-.26-1.78-.44-2.7-.04-.21-.09-.42-.14-.63,0,0,0,0,0,0-.5-1.83-1.24-4.23-2.3-6.86-3.19-7.93-9.28-18.01-20.23-21.61-20.47-6.74-37.7,3.72-36.67,4.71Z"/>
  </g>
  <g class="cls-9">
    <path class="cls-3" d="M45.89,60.92c-4.16-.54-7.02-4.91-6.39-9.75.63-4.85,4.51-8.33,8.67-7.79,4.16.54,7.02,4.91,6.39,9.75-.63,4.85-4.51,8.33-8.67,7.79Z"/>
  </g>
  <g class="cls-9">
    <path class="cls-3" d="M44.19,71.65c-1.69-.37-2.72-2.26-2.29-4.23.43-1.97,2.15-3.27,3.84-2.9,1.69.37,2.72,2.26,2.29,4.23-.43,1.97-2.15,3.27-3.84,2.9Z"/>
  </g>
</svg>