<?xml version="1.0" encoding="utf-8"?>
<!-- Generator: Adobe Illustrator 27.9.1, SVG Export Plug-In . SVG Version: 6.00 Build 0)  -->
<svg version="1.1" id="Layer_1" xmlns="http://www.w3.org/2000/svg" xmlns:xlink="http://www.w3.org/1999/xlink" x="0px" y="0px"
	 viewBox="0 0 1920 1080" style="enable-background:new 0 0 1920 1080;" xml:space="preserve">
<style type="text/css">
	.st0{clip-path:url(#SVGID_00000090271320790295304930000010574568618579680662_);}
	.st1{fill:#A2499C;}
	.st2{fill:#FFFFFF;filter:url(#Adobe_OpacityMaskFilter);}
	.st3{mask:url(#mask0_2246_1948_00000002363008059671326220000001752047247596918400_);}
	.st4{fill:#A958A4;}
</style>
<g>
	<defs>
		<rect id="SVGID_1_" width="1920" height="1080"/>
	</defs>
	<clipPath id="SVGID_00000013182748768330853670000014385096212853530807_">
		<use xlink:href="#SVGID_1_"  style="overflow:visible;"/>
	</clipPath>
	<g style="clip-path:url(#SVGID_00000013182748768330853670000014385096212853530807_);">
		<path class="st1" d="M1920,0H0v1080h1920V0z"/>
		<defs>
			<filter id="Adobe_OpacityMaskFilter" filterUnits="userSpaceOnUse" x="-94.3" y="-98.4" width="2060.7" height="1188.4">
				<feColorMatrix  type="matrix" values="1 0 0 0 0  0 1 0 0 0  0 0 1 0 0  0 0 0 1 0"/>
			</filter>
		</defs>
		
			<mask maskUnits="userSpaceOnUse" x="-94.3" y="-98.4" width="2060.7" height="1188.4" id="mask0_2246_1948_00000002363008059671326220000001752047247596918400_">
			<path class="st2" d="M1920,0.9H0v1080h1920V0.9z"/>
		</mask>
		<g class="st3">
			<path class="st4" d="M95.6,204.3l-27-99.3l23.9-6.5l4,14.6h2c3.1-13,11.6-21.3,25.5-25.1c11.5-3.1,20.7-2.3,27.8,2.5
				c7.1,4.8,12.2,13.1,15.5,25.1l17.5,64.5l-25,6.8l-16.7-61.5c-1.8-6.6-4.4-11-7.8-13.2c-3.4-2.2-8-2.5-13.9-0.9
				c-7.1,1.9-12.1,5.8-14.8,11.5c-2.7,5.7-2.8,13.5-0.1,23.4l14,51.4L95.6,204.3z M81,85.4c-2.3-8.4-2.5-15-0.6-19.8
				s5.3-7.9,10.4-9.3c2.5-0.7,4.8-0.9,7-0.6c2.2,0.3,4.6,1,7.2,2.1l4.1,2c1.8,0.8,3.1,1.3,3.8,1.6c0.7,0.2,1.4,0.2,2,0.1
				c1-0.3,1.6-1,1.8-2.3c0.2-1.2-0.2-3.4-1-6.6l-0.8-2.8l15-4.1l0.7,2.5c2.3,8.5,2.5,15.1,0.7,19.9c-1.8,4.8-5.3,7.9-10.4,9.3
				c-2.5,0.7-4.9,0.9-7.2,0.7c-2.2-0.2-4.6-1-7.2-2.2l-4-2c-1.6-0.8-2.8-1.3-3.6-1.5c-0.8-0.2-1.5-0.2-2.1-0.1c-1,0.3-1.6,1-1.8,2.3
				c-0.2,1.2,0.2,3.4,1,6.5l0.8,2.8l-15,4.1L81,85.4z"/>
			<path class="st4" d="M1839.6,654.6l-18.3-67.5l16.3-4.4l2.7,9.9h1.4c2.1-8.8,7.9-14.5,17.3-17.1c7.8-2.1,14.1-1.5,18.9,1.7
				c4.8,3.2,8.3,8.9,10.5,17l11.9,43.9l-17,4.6l-11.4-41.8c-1.2-4.5-3-7.5-5.3-9c-2.3-1.5-5.5-1.7-9.4-0.6
				c-4.9,1.3-8.2,3.9-10.1,7.8s-1.9,9.2,0,15.9l9.5,34.9L1839.6,654.6z M1829.7,573.8c-1.6-5.7-1.7-10.2-0.4-13.5
				c1.3-3.3,3.6-5.4,7-6.3c1.7-0.5,3.3-0.6,4.8-0.4s3.1,0.7,4.9,1.4l2.8,1.3c1.2,0.5,2.1,0.9,2.6,1.1c0.5,0.1,0.9,0.2,1.4,0
				c0.7-0.2,1.1-0.7,1.2-1.5s-0.1-2.3-0.7-4.5l-0.5-1.9l10.2-2.8l0.5,1.7c1.6,5.8,1.7,10.3,0.5,13.5c-1.2,3.3-3.6,5.3-7.1,6.3
				c-1.7,0.5-3.3,0.6-4.9,0.5c-1.5-0.2-3.1-0.7-4.9-1.5l-2.7-1.4c-1.1-0.5-1.9-0.9-2.4-1c-0.5-0.1-1-0.2-1.5,0
				c-0.7,0.2-1.1,0.7-1.2,1.6c-0.1,0.8,0.1,2.3,0.7,4.4l0.5,1.9l-10.2,2.8L1829.7,573.8z"/>
			<path class="st4" d="M1498.4,289.8l15.9-68.1l16.4,3.8l-2.3,10l1.2,0.6c6-6.8,13.8-9,23.3-6.8c7.9,1.8,13.1,5.3,15.8,10.5
				c2.7,5.1,3.1,11.8,1.2,20l-10.3,44.3l-17.1-4l9.8-42.2c1.1-4.5,0.9-8-0.4-10.4c-1.3-2.4-4-4.1-8-5c-4.9-1.1-9.1-0.4-12.6,2.1
				s-6,7.2-7.6,14l-8.2,35.3L1498.4,289.8z M1528.1,213.9c1.3-5.8,3.3-9.8,6-12.1c2.7-2.3,5.7-3,9.2-2.2c1.7,0.4,3.2,1,4.4,1.9
				c1.2,0.9,2.5,2.1,3.6,3.6l1.8,2.5c0.8,1.1,1.4,1.8,1.7,2.2c0.3,0.4,0.7,0.6,1.2,0.7c0.7,0.2,1.3-0.1,1.8-0.8
				c0.5-0.7,1-2.1,1.5-4.3l0.4-1.9l10.3,2.4l-0.4,1.7c-1.4,5.8-3.4,9.8-6,12.1c-2.6,2.3-5.7,3-9.2,2.2c-1.7-0.4-3.2-1-4.5-1.9
				c-1.3-0.9-2.5-2.1-3.6-3.6l-1.8-2.5c-0.7-1-1.3-1.7-1.7-2c-0.4-0.4-0.8-0.6-1.3-0.7c-0.7-0.2-1.3,0.1-1.8,0.8s-1,2.1-1.5,4.2
				l-0.4,1.9l-10.3-2.4L1528.1,213.9z"/>
			<path class="st4" d="M304.8,195.9l-5.6,23.9c-1.3,5.6,0.7,9.1,5.9,10.3c3.4,0.8,6.7,1.2,9.8,1.1s6.3-0.4,9.5-1L331,202l17.8,4.1
				l-15.2,65.2l-17.8-4.1l6-25.9c-3.1,0.9-6.6,1.5-10.5,1.9s-8.1,0.1-12.6-1c-6.8-1.6-11.8-4.6-15-9c-3.3-4.4-4.1-10.2-2.4-17.2
				l5.6-24.2L304.8,195.9z"/>
			<path class="st4" d="M394.5,215.4c8.8,2,15,5.5,18.8,10.4c3.8,4.9,4.8,11.2,3,19l-10.2,43.4l-12.4-2.9l-1.4-9.6l-0.5-0.1
				c-3.6,2.8-7.1,4.7-10.6,5.6c-3.5,0.9-7.9,0.7-13.3-0.6c-5.8-1.4-10.3-4.2-13.3-8.4c-3-4.2-3.7-9.9-2.1-17
				c1.6-6.9,5.2-11.5,10.8-13.6c5.6-2.1,13.3-2.3,23.1-0.4l11.4,2.3l0.7-2.9c0.8-3.4,0.5-6.1-1-8.1c-1.4-2-3.7-3.4-6.9-4.1
				c-3.2-0.7-6.4-1-9.6-0.8c-3.2,0.2-6.5,0.6-9.9,1.3l-3-13.4c3.8-0.9,8-1.5,12.5-1.5C385.3,213.9,389.9,214.3,394.5,215.4z
				 M395.5,253.9l-7-1.4c-5.8-1.2-10-1.1-12.7,0.3c-2.7,1.4-4.4,3.6-5.1,6.7c-0.6,2.7-0.3,4.8,1,6.4c1.3,1.5,3.3,2.6,5.8,3.2
				c3.8,0.9,7.3,0.5,10.5-1.2c3.2-1.7,5.2-4.6,6.2-8.7L395.5,253.9z"/>
			<path class="st4" d="M450.6,299.8c-9.7-2.2-16.6-6.7-20.7-13.2c-4.1-6.6-4.7-15.6-2-27.3c1.9-8,4.7-14.1,8.6-18.5
				c3.9-4.4,8.5-7.2,13.8-8.5c5.4-1.3,11.2-1.2,17.5,0.3c4.4,1,8.2,2.4,11.3,4c3.1,1.6,5.8,3.3,7.9,5.1l-8.5,12.5
				c-2.5-1.8-4.9-3.3-7.2-4.6c-2.3-1.3-4.6-2.2-7-2.8c-9.2-2.1-15.4,3.3-18.4,16.5c-1.5,6.5-1.4,11.6,0.3,15.3c1.7,3.7,4.8,6,9.1,7
				c3.7,0.9,7.2,1.1,10.2,0.8c3.1-0.3,6.2-1.1,9.3-2.2l-3.5,15.2c-3.1,1.1-6.3,1.7-9.4,1.8C459,301.4,455.1,300.9,450.6,299.8z"/>
			<path class="st4" d="M1690.6,703.3l-8.4,36.1c-2,8.5,1,13.7,9,15.6c5.2,1.2,10.1,1.8,14.8,1.7c4.7-0.1,9.5-0.6,14.4-1.5l9.9-42.6
				l26.9,6.3l-22.9,98.5l-26.9-6.3l9.1-39.1c-4.7,1.3-10,2.3-15.9,2.9c-5.9,0.6-12.2,0.1-19.1-1.5c-10.2-2.4-17.8-6.9-22.7-13.6
				c-4.9-6.7-6.1-15.3-3.6-26.1l8.5-36.6L1690.6,703.3z"/>
			<path class="st4" d="M1826.3,732.8c13.2,3.1,22.7,8.3,28.4,15.7c5.7,7.3,7.2,16.9,4.5,28.7l-15.3,65.7l-18.8-4.4l-2.1-14.6
				l-0.7-0.2c-5.5,4.3-10.8,7.1-16.1,8.5c-5.2,1.3-12,1-20.1-0.9c-8.8-2-15.5-6.3-20.1-12.7c-4.6-6.4-5.6-14.9-3.1-25.7
				c2.4-10.5,7.9-17.3,16.4-20.5c8.5-3.2,20.1-3.4,34.9-0.6l17.3,3.4l1-4.3c1.2-5.2,0.7-9.3-1.4-12.3s-5.6-5.1-10.4-6.2
				c-4.8-1.1-9.7-1.5-14.6-1.2s-9.9,1-14.9,1.9l-4.6-20.3c5.8-1.4,12.1-2.2,19-2.3C1812.4,730.4,1819.3,731.1,1826.3,732.8z
				 M1827.8,790.9l-10.5-2.1c-8.7-1.8-15.1-1.6-19.2,0.5c-4,2.1-6.6,5.5-7.7,10.2c-1,4.1-0.4,7.3,1.5,9.6c2,2.3,4.9,3.9,8.8,4.8
				c5.8,1.3,11.1,0.8,15.8-1.7c4.8-2.5,7.9-6.9,9.3-13.1L1827.8,790.9z"/>
			<path class="st4" d="M1911.1,860.4c-14.7-3.4-25.1-10.1-31.2-20c-6.1-9.9-7.1-23.7-3-41.2c2.8-12,7.1-21.3,13-28
				c5.9-6.6,12.8-10.9,20.9-12.8c8.1-1.9,16.9-1.8,26.5,0.4c6.7,1.6,12.4,3.6,17.1,6.1c4.7,2.5,8.7,5.1,12,7.7l-12.8,18.9
				c-3.8-2.7-7.4-5-10.8-6.9c-3.4-1.9-6.9-3.3-10.5-4.2c-14-3.2-23.2,5.1-27.9,24.9c-2.3,9.9-2.2,17.6,0.4,23.1
				c2.6,5.5,7.2,9.1,13.8,10.6c5.7,1.3,10.8,1.7,15.5,1.2c4.7-0.5,9.4-1.6,14.1-3.3l-5.3,22.9c-4.7,1.7-9.5,2.6-14.2,2.7
				C1923.7,862.7,1917.9,862,1911.1,860.4z"/>
			<path class="st4" d="M1229-92.2l-8.4,36.1c-2,8.5,1,13.7,9,15.6c5.2,1.2,10.1,1.8,14.8,1.7c4.7-0.1,9.5-0.6,14.4-1.5l9.9-42.6
				l26.9,6.3l-22.9,98.5l-26.9-6.3l9.1-39.1c-4.7,1.3-10,2.3-15.9,2.9c-5.9,0.6-12.2,0.1-19.1-1.5c-10.2-2.4-17.8-6.9-22.7-13.6
				c-4.9-6.7-6.1-15.3-3.6-26.1l8.5-36.6L1229-92.2z"/>
			<path class="st4" d="M1364.6-62.7c13.2,3.1,22.7,8.3,28.4,15.7c5.7,7.3,7.2,16.9,4.5,28.7l-15.3,65.7l-18.8-4.4l-2.1-14.6
				l-0.7-0.2c-5.5,4.3-10.8,7.1-16.1,8.5c-5.2,1.3-12,1-20.1-0.9c-8.8-2-15.5-6.3-20.1-12.7c-4.6-6.4-5.6-14.9-3.1-25.7
				c2.4-10.5,7.9-17.3,16.4-20.5s20.1-3.4,34.9-0.6l17.3,3.4l1-4.3c1.2-5.2,0.7-9.3-1.4-12.3s-5.6-5.1-10.4-6.2
				c-4.8-1.1-9.7-1.5-14.6-1.2c-4.9,0.3-9.9,1-14.9,1.9l-4.6-20.3c5.8-1.4,12.1-2.2,19-2.3C1350.7-65.1,1357.6-64.3,1364.6-62.7z
				 M1366.1-4.5l-10.5-2.1c-8.7-1.8-15.1-1.6-19.2,0.5c-4,2.1-6.6,5.5-7.7,10.2c-1,4.1-0.4,7.3,1.5,9.6c2,2.3,4.9,3.9,8.8,4.8
				c5.8,1.3,11.1,0.8,15.8-1.7c4.8-2.5,7.9-6.9,9.3-13.1L1366.1-4.5z"/>
			<path class="st4" d="M1449.4,64.9c-14.7-3.4-25.1-10.1-31.2-20c-6.1-9.9-7.1-23.7-3-41.2c2.8-12,7.1-21.3,13-28
				c5.9-6.6,12.8-10.9,20.9-12.8c8.1-1.9,16.9-1.8,26.5,0.4c6.7,1.6,12.4,3.6,17.1,6.1c4.7,2.5,8.7,5.1,12,7.7L1491.9-4
				c-3.8-2.7-7.4-5-10.8-6.9c-3.4-1.9-6.9-3.3-10.5-4.2c-14-3.2-23.2,5.1-27.9,24.9c-2.3,9.9-2.2,17.6,0.4,23.1s7.2,9.1,13.8,10.6
				c5.7,1.3,10.8,1.7,15.5,1.2c4.7-0.5,9.4-1.6,14.1-3.3l-5.3,22.9c-4.7,1.7-9.5,2.6-14.2,2.7C1462.1,67.2,1456.2,66.5,1449.4,64.9z
				"/>
			<path class="st4" d="M273.4,612.3c-2.6-7.9-10.1-19.8-16.3-28.4l-15.3,5.9c6.3,8.9,12.9,21.4,15.2,29L273.4,612.3z M246.3,643.4
				c-5.5,6.1-11.8,11.6-18.6,16.7c0.1-7.9,0.6-16.7,1.5-25.8l38.1,8.9l3.9-16.6l-39.9-9.3c1.8-13.2,4.4-26.9,7.9-40.5l-18.3-4.2
				c-3,13.4-5.7,27.1-7.6,40.6l-28.1-6.6l4.6-19.8c8.9,0.2,17.4,0.2,25.3-0.3l-8.3-17.5c-16.1,1.4-39.9,0.8-61.1-1.2
				c1,4.4,1.8,11.4,1.6,15.8c7.7,0.9,16,1.7,24.2,2.2l-3.9,16.7l-27.7-6.5l-3.9,16.6l27.7,6.5l-4.6,19.6c-12.1-0.6-23-1.5-31.7-2.1
				l0.2,18.6c8.1,0.3,17.6,0.6,27.5,0.8l-4.9,21.3c-0.5,2.3-1.6,2.9-4.2,2.3c-2.7-0.5-11.2-2.3-19.3-4.7c1.4,5.4,2.5,14,2.1,19
				c11.8,2.9,20.8,4.2,27.2,2.8c6.5-1.4,9.7-5.6,11.9-15.2l5.8-25.1l25,0.7l2.4-16.1c-7.8-0.4-15.7-0.7-23.5-1.1l3.9-16.7l29.8,6.9
				c-1.6,14.8-2.2,28.7-1.7,41c-12.1,6-25,10.6-37.5,13.1c3.3,4.9,6.8,12.1,8.3,16.8c10.5-2.7,21.1-6.5,31.3-11.6
				c3,15.8,9.1,26.5,19.8,29c13.3,3.1,20.3-2.1,29-27.1c-4.2-3-9.2-8.3-12-13.3c-4.8,17.1-8.2,23.8-11.2,23c-4.4-1-7.4-8.8-8.7-21
				c11.7-7.3,22.4-16.1,31.8-26.4L246.3,643.4z"/>
			<path class="st4" d="M1769.4,36.2c-2.6-7.9-10.1-19.8-16.3-28.4l-15.3,5.9c6.3,8.9,12.9,21.4,15.2,29L1769.4,36.2z M1742.3,67.4
				c-5.5,6.1-11.8,11.6-18.6,16.7c0.1-7.9,0.6-16.7,1.5-25.8l38.1,8.9l3.9-16.6l-39.9-9.3c1.8-13.2,4.4-26.9,7.9-40.5l-18.3-4.3
				c-3,13.4-5.7,27.1-7.6,40.6l-28.1-6.6l4.6-19.8c8.9,0.2,17.4,0.2,25.3-0.3l-8.3-17.5c-16.1,1.4-39.9,0.8-61.1-1.2
				c1,4.4,1.8,11.4,1.6,15.8c7.7,0.9,16,1.7,24.2,2.2l-3.9,16.7l-27.7-6.5l-3.9,16.6l27.7,6.5l-4.6,19.6c-12.1-0.6-23-1.5-31.7-2.1
				l0.2,18.6c8.1,0.3,17.6,0.6,27.5,0.8l-4.9,21.3c-0.5,2.3-1.6,2.9-4.2,2.3c-2.7-0.5-11.2-2.3-19.3-4.7c1.4,5.4,2.5,14,2.1,19
				c11.8,2.9,20.8,4.2,27.2,2.8c6.5-1.4,9.7-5.6,11.9-15.2l5.8-25.1l25,0.7l2.4-16.1c-7.8-0.4-15.7-0.7-23.5-1.1l3.9-16.7l29.8,6.9
				c-1.6,14.8-2.2,28.7-1.7,41c-12.1,6-25,10.6-37.5,13.1c3.3,4.9,6.8,12.1,8.3,16.8c10.5-2.7,21.1-6.5,31.3-11.6
				c3,15.8,9.1,26.5,19.8,29c13.3,3.1,20.3-2.1,29-27.1c-4.2-3-9.2-8.3-12-13.3c-4.8,17.1-8.2,23.8-11.2,23c-4.4-1-7.4-8.8-8.7-21
				c11.7-7.3,22.4-16.1,31.8-26.4L1742.3,67.4z"/>
			<path class="st4" d="M646.8-2.9c-7.9-6.8-23.6-14.9-35.7-20.2L598.4-7c12.5,5.6,27.7,14.8,35,21.6L646.8-2.9z M637.6,48
				c-1.9,10.1-5.3,20.1-9.3,29.9c-4.9-8.6-10-18.4-14.9-28.8l46.8-14.9l-6.5-20.3l-49,15.5c-6.5-15.4-12.5-31.9-17.5-48.8l-22.5,7.1
				c5.4,16.3,11.2,32.9,17.8,48.6l-34.6,11L540.2,23c9.8-5.5,18.9-11,27.1-16.5L547.1-7.1c-16.5,11.8-42.6,26.4-66.7,37.8
				c3.9,4.1,9.3,11.1,11.8,16.1c8.8-4,18.3-8.4,27.5-13.1l6.5,20.5l-34,10.8l6.5,20.3l34-10.8l7.7,24.1c-13.4,7-25.8,13.1-35.5,18
				l12.1,19.9c9-4.8,19.4-10.7,30.2-16.7l8.3,26.1c0.9,2.9,0.1,4.1-3.1,5.2c-3.2,1.2-13.6,4.7-23.8,7.4c4.9,5,11.6,13.5,14.4,19.2
				c14.6-4.4,25.1-8.8,31.1-14.4c6.1-5.7,6.8-12.3,3.1-24l-9.8-30.8l27.5-15.3l-7.8-18.9c-8.7,4.5-17.4,9.3-26.1,13.8l-6.5-20.5
				L591,56c7.8,17,16,32.4,24.5,45.3c-9.2,14.2-20.2,27.4-32.1,38.1c6.8,3.2,15,8.7,19.7,12.8c9.6-9.6,18.6-20.6,26.3-32.5
				c13.3,15.2,26.8,22.8,40,18.6c16.4-5.2,20.5-15.2,14-47.8c-6.5-0.5-15.2-3.1-21.5-6.6c5.8,21.5,6.4,30.9,2.6,32.1
				c-5.4,1.7-13.6-4.8-22.9-17.1c8-15.4,13.9-31.8,17.4-48.9L637.6,48z"/>
			<path class="st4" d="M1798.9,967.4l-13.3,3l16.6,72.5l-19,4.3l-4-17.7c-2.9,2.5-6,4.6-9.3,6.3c-3.3,1.6-7.5,3.1-12.7,4.3
				c-5.3,1.2-10.3,1.4-15.1,0.5c-4.8-0.9-9-2.9-12.5-6.2c-3.5-3.2-5.9-7.7-7.2-13.3c-1.2-5.2-0.9-10,0.8-14.5s4.6-8.3,8.6-11.4
				c4-3.2,9.1-5.4,15.1-6.8c3.9-0.9,7.4-1.6,10.5-2.1c3.1-0.5,5.5-0.8,7.2-0.8l2.1,15.5c-3.7,0.1-7.6,0.6-11.9,1.5
				c-0.7,0.2-1.3,0.3-1.8,0.4l16.9,13.5c0.9-1,1.8-2.1,2.6-3.1c0.8-1.1,1.6-2.2,2.3-3.5l-8-35.1l-57.5,13.1l-3.6-15.6l89.7-20.5
				L1798.9,967.4z M1740.7,1016.9c0.9,4.1,2.8,6.6,5.6,7.5s6.1,1,9.9,0.1c1.8-0.4,3.5-1,5.1-1.8l-18.4-14.7
				C1740.7,1010.5,1739.8,1013.4,1740.7,1016.9z"/>
			<path class="st4" d="M1761.2,960.7c-2.4-2.9-4.3-5.6-5.6-8.2c-1.3-2.5-2.2-5.1-2.8-7.6c-1.6-7-0.5-13.1,3.4-18.3
				c3.9-5.3,10-8.8,18.4-10.8c7.6-1.7,14.2-1.4,20.1,0.9c5.8,2.3,11,6.1,15.5,11.2c4.5,5.1,8.5,11.1,12.1,17.8l14.8-3.4l3.6,15.6
				l-13.4,3.1l16.6,72.5l-18.9,4.3l-16.6-72.5l-11.3,2.6l-3.6-15.6l12-2.8c-4.1-7-8.2-12.1-12.3-15.4c-4.1-3.2-8.4-4.3-13-3.3
				c-3.4,0.8-5.7,2.3-6.9,4.6s-1.5,4.9-0.8,7.8c0.6,2.8,1.6,5.3,2.9,7.5c1.3,2.1,2.7,4.1,4.2,6L1761.2,960.7z"/>
			<path class="st4" d="M21,755.6c-2.8,0.4-5.3-0.1-7.3-1.6s-3.2-3.6-3.6-6.3c-0.4-2.7,0.2-5,1.7-7s3.7-3.2,6.6-3.6
				c1.9-0.3,3.6-0.1,5.2,0.5s2.9,1.5,3.9,2.8s1.6,2.8,1.9,4.6c0.3,1.8,0.1,3.4-0.5,5c-0.6,1.5-1.6,2.8-3,3.8
				C24.5,754.7,22.9,755.3,21,755.6z M22.8,854c-4.6,0.7-8.4,0.6-11.4-0.2l0.2-12.7l1-0.5c1.6,0.5,3.4,0.6,5.5,0.3
				c4.6-0.7,6.5-3.7,5.8-9.2l-9.6-67.6l15.7-2.2l9.6,67.2c1,7.3,0.1,13-2.7,17.2C34,850.6,29.3,853.1,22.8,854z"/>
			<path class="st4" d="M105.9,787.3L65.6,793c1.2,5.4,3.3,9.2,6.4,11.3c3,2.1,6.8,2.8,11.4,2.2c3.6-0.5,6.4-1.6,8.5-3.3
				c2-1.7,3.6-4,4.5-6.9l1.2-0.2l11.4,5.2c-1.4,4.7-4,8.7-7.7,12c-3.7,3.3-9.1,5.5-16,6.4c-6.5,0.9-12.3,0.5-17.3-1.3
				c-5.1-1.8-9.2-4.9-12.5-9.4s-5.4-10.3-6.4-17.3c-1-7.1-0.5-13.3,1.5-18.6c2-5.3,5.1-9.4,9.4-12.5c4.2-3.1,9.2-5,14.9-5.8
				c8.9-1.3,16,0.1,21.4,4.2c5.4,4,8.7,10.6,10,19.7c0.5,3.3,0.7,5.9,0.7,7.7L105.9,787.3z M90.9,779c-0.8-4.7-2.4-8.1-4.8-9.9
				c-2.4-1.9-5.6-2.6-9.5-2c-8,1.1-12,6.4-12.1,15.7L90.9,779z"/>
			<path class="st4" d="M1211.2,111.3c-3.9,0.6-7.2-0.2-9.9-2.2c-2.8-2-4.4-4.9-4.9-8.6c-0.5-3.7,0.3-6.8,2.3-9.5
				c2.1-2.7,5.1-4.3,8.9-4.9c2.6-0.4,5-0.1,7.1,0.7c2.2,0.8,4,2.1,5.3,3.8c1.4,1.7,2.2,3.8,2.6,6.2c0.3,2.4,0.1,4.7-0.7,6.8
				c-0.8,2.1-2.2,3.8-4.1,5.2C1216,110.1,1213.8,110.9,1211.2,111.3z M1213.7,245.5c-6.3,0.9-11.5,0.8-15.5-0.3l0.2-17.3l1.4-0.7
				c2.2,0.7,4.7,0.8,7.5,0.4c6.3-0.9,8.9-5.1,7.9-12.5l-13.1-92.2l21.5-3.1l13,91.5c1.4,10,0.2,17.8-3.7,23.5
				C1228.9,240.7,1222.5,244.2,1213.7,245.5z"/>
			<path class="st4" d="M1326.9,153.8l-54.9,7.8c1.7,7.4,4.6,12.5,8.7,15.3c4.1,2.9,9.3,3.8,15.5,3c4.9-0.7,8.8-2.2,11.5-4.5
				c2.8-2.3,4.9-5.4,6.2-9.4l1.6-0.2l15.6,7.1c-1.9,6.4-5.5,11.8-10.6,16.4c-5.1,4.5-12.4,7.4-21.8,8.8c-8.8,1.3-16.7,0.7-23.6-1.8
				c-6.9-2.4-12.5-6.7-17-12.9c-4.5-6.2-7.3-14-8.7-23.5c-1.4-9.7-0.7-18.1,2-25.3c2.7-7.2,7-12.9,12.7-17
				c5.8-4.2,12.6-6.8,20.4-7.9c12.1-1.7,21.8,0.2,29.1,5.7c7.3,5.5,11.9,14.4,13.7,26.8c0.6,4.5,1,8,1,10.5L1326.9,153.8z
				 M1306.5,142.5c-1.1-6.5-3.3-11-6.6-13.6c-3.2-2.6-7.6-3.5-13-2.7c-10.8,1.5-16.3,8.7-16.5,21.4L1306.5,142.5z"/>
			<path class="st4" d="M190.3,472.8v-47.7h18.4v33.1l-9.2,14.6H190.3z"/>
			<path class="st4" d="M219.6,498.9v-15.5h22.9v-36.5c0-2-0.4-3.6-1.2-4.6c-0.8-1.1-2.3-1.6-4.4-1.6h-13.2v-15.4h18.6
				c6,0,10.6,1.7,13.8,5c3.2,3.3,4.8,8.1,4.8,14.3V499h-41.3V498.9z"/>
			<path class="st4" d="M278,498.9v-20.5c0-6.7,1.1-12.8,3.4-18.3c2.3-5.5,5.7-9.5,10.3-12.1L275,425.2h21.1l25.9,37.6
				c1.6-1.7,2.7-4.1,3.4-7.1c0.7-3,1.1-6.6,1.1-10.7v-19.9h18.4v19.1c0,6.9-1.2,13.1-3.6,18.6c-2.4,5.5-5.9,9.5-10.6,12.1l18.1,24
				h-21.1l-27.1-38.5c-2.9,3.7-4.3,9.4-4.3,17.2v21.3H278z"/>
			<path class="st4" d="M195.8,2.5v-47.7h18.4v33.1L205,2.5H195.8z"/>
			<path class="st4" d="M225.1,28.6V13H248v-36.5c0-2-0.4-3.6-1.2-4.6c-0.8-1.1-2.3-1.6-4.4-1.6h-13.2v-15.4h18.6
				c6,0,10.6,1.7,13.8,5c3.2,3.3,4.8,8.1,4.8,14.3v54.4H225.1z"/>
			<path class="st4" d="M283.5,28.6V8c0-6.7,1.1-12.8,3.4-18.3c2.3-5.5,5.7-9.5,10.3-12.1l-16.7-22.8h21.1l25.9,37.6
				c1.6-1.7,2.7-4.1,3.4-7.1c0.7-3,1.1-6.6,1.1-10.7v-19.9h18.4v19.1c0,6.9-1.2,13.1-3.6,18.6c-2.4,5.5-5.9,9.5-10.6,12.1l18.1,24
				h-21.1L306.1-10c-2.9,3.7-4.3,9.4-4.3,17.2v21.3L283.5,28.6z"/>
			<path class="st4" d="M1696.1,322.5l-20.8-70.6l27.2-8l14.5,49l-7.2,25.6L1696.1,322.5z"/>
			<path class="st4" d="M1751.1,348.4l-6.8-23.1l34-10l-16-54.1c-0.9-3-2.2-5.1-3.9-6.3c-1.7-1.2-4.1-1.4-7.2-0.4l-19.6,5.8
				l-6.8-22.9l27.6-8.1c8.8-2.6,16.4-2.1,22.6,1.4c6.2,3.6,10.7,9.9,13.4,19.1l23.8,80.6L1751.1,348.4z"/>
			<path class="st4" d="M1837.5,322.9l-9-30.5c-2.9-9.9-3.9-19.5-2.9-28.6c1-9.1,4.3-16.6,10-22.5l-34.7-26.5l31.2-9.2l54.8,44.5
				c1.5-3.2,2.2-7.2,2-12c-0.2-4.8-1.2-10.2-3-16.3l-8.7-29.4l27.2-8l8.4,28.3c3,10.2,3.9,19.9,2.8,29.1
				c-1.1,9.2-4.6,16.7-10.5,22.5l37.4,27.7l-31.2,9.2l-57-45.2c-2.6,6.7-2.2,15.8,1.1,27.3l9.3,31.6L1837.5,322.9z"/>
			<path class="st4" d="M30.4,986.2l18.3-78.4l30.2,7l-12.7,54.4l-20.7,20.5L30.4,986.2z"/>
			<path class="st4" d="M68.7,1040.4l6-25.6l37.7,8.8l14-60.1c0.8-3.4,0.7-6.1-0.2-8.1c-0.9-2.1-3.2-3.5-6.7-4.3L97.7,946l5.9-25.4
				l30.6,7.1c9.8,2.3,16.7,6.8,20.8,13.5c4,6.7,4.8,15.2,2.5,25.4l-20.8,89.5L68.7,1040.4z"/>
			<path class="st4" d="M164.6,1062.7l7.9-33.9c2.6-11,6.8-20.6,12.7-28.7c5.9-8.1,13.1-13.5,21.6-16l-18.7-43.9l34.7,8.1l28.1,71.8
				c3.2-2.2,6-5.7,8.4-10.4c2.4-4.7,4.3-10.4,5.9-17.1l7.6-32.7l30.2,7l-7.3,31.5c-2.6,11.3-7,21-13,29.2
				c-6,8.2-13.4,13.4-22.1,15.8l20.6,46.5l-34.6-8.1l-29.8-73.7c-6.1,5-10.7,13.8-13.6,26.6l-8.2,35.1L164.6,1062.7z"/>
			<path class="st4" d="M92.6,293.5L62,296.1l9.8,115.2l30.6-2.6L92.6,293.5z M-65,367.2c-1.3-15.7,7.2-25.3,20.5-26.4
				c13.7-1.2,23.8,6.9,25.1,22.5c1.4,15.9-7.2,26-20.9,27.2C-53.6,391.6-63.7,383.1-65,367.2z M23.3,372.5l3.5,41.4l30.1-2.6
				l-9.4-109.8l-30.1,2.6l3.6,42.7L6.5,348c-7.3-22.1-27.9-34.9-53.4-32.7c-29.9,2.5-49.7,25-47.2,54.4
				c2.5,29.9,25.9,48.7,55.8,46.1c25.7-2.2,43.8-18.5,47-42L23.3,372.5z M-11.1,501.8l-1.2-13.7l120.6-10.3l-5.2-60.8l-153.4,13.1
				l2.1,25l121.1-10.3l1,12.3l-120.6,10.3l5.3,62.3l160-13.6l-2.1-25L-11.1,501.8z"/>
			<path class="st4" d="M1787,454.1l-16.8-6.4l-24.2,63.1l16.8,6.4L1787,454.1z M1685.3,452.6c3.3-8.6,10.3-11.5,17.5-8.7
				c7.5,2.9,10.8,9.7,7.5,18.3c-3.3,8.7-10.4,11.9-17.9,9C1685.1,468.4,1682,461.3,1685.3,452.6z M1730.4,477.9l-8.7,22.7l16.5,6.3
				l23.1-60.1l-16.5-6.3l-9,23.4l-7.9-3c1.8-13.5-5.8-25.5-19.7-30.8c-16.4-6.3-32.5,0.5-38.7,16.6c-6.3,16.4,1.2,32.2,17.6,38.5
				c14.1,5.4,27.8,1.4,35.4-10.1L1730.4,477.9z M1679.3,537.2l2.9-7.5l66,25.4l12.8-33.3l-84-32.3l-5.3,13.7l66.3,25.5l-2.6,6.7
				l-66-25.4l-13.1,34.1l87.6,33.6l5.3-13.7L1679.3,537.2z"/>
			<path class="st4" d="M1037.8,33l-17.7,3.2l12.2,66.5l17.7-3.2L1037.8,33z M950.2,84.6c-1.7-9.1,2.8-15.1,10.4-16.5
				c7.9-1.4,14.2,2.7,15.9,11.7c1.7,9.2-2.7,15.5-10.6,17C958.3,98.2,951.9,93.8,950.2,84.6z M1001.8,82.8l4.4,23.9l17.4-3.2
				L1012,40.1l-17.4,3.2l4.5,24.6l-8.3,1.5C985.4,57,972.7,50.7,958,53.3c-17.3,3.2-27.5,17.3-24.4,34.3c3.2,17.3,17.8,26.9,35,23.7
				c14.8-2.7,24.5-13.2,25-27.1L1001.8,82.8z M989.1,160l-1.4-7.9l69.6-12.7l-6.4-35.1l-88.5,16.2l2.6,14.4l69.9-12.8l1.3,7.1
				l-69.6,12.7l6.6,35.9l92.3-16.9l-2.6-14.4L989.1,160z"/>
			<path class="st4" d="M1880.9,99.1c-6-1.4-10.9-3.8-14.9-7.3c-3.9-3.5-6.6-7.9-8-13.2s-1.3-11.3,0.3-18c1.6-6.7,4.1-12.1,7.7-16.3
				s7.9-7,13-8.4c5.1-1.4,10.6-1.4,16.6,0c6,1.4,10.9,3.8,14.9,7.3c3.9,3.5,6.6,7.9,8,13.3c1.4,5.3,1.3,11.3-0.2,18
				c-1.6,6.7-4.2,12.1-7.8,16.3c-3.6,4.1-7.9,6.9-13,8.3C1892.4,100.4,1886.9,100.4,1880.9,99.1z M1883.9,86.1
				c9.5,2.2,15.6-2.9,18.5-15.3c1.5-6.4,1.4-11.4-0.4-15c-1.7-3.6-4.9-5.9-9.5-7c-9.5-2.2-15.6,2.9-18.5,15.4
				C1871.2,76.6,1874.5,83.9,1883.9,86.1z M1901.5,32l-10.4-2.4l0.3-1.2l12-15.4l17.1,4l-0.3,1.2L1901.5,32z"/>
			<path class="st4" d="M730.2,273.3c-8-1.9-14.6-5.1-19.9-9.8c-5.3-4.7-8.9-10.6-10.7-17.7c-1.9-7.1-1.7-15.2,0.4-24.1
				c2.1-9,5.5-16.2,10.3-21.8c4.8-5.6,10.6-9.3,17.4-11.2c6.8-1.9,14.2-1.9,22.2,0c8,1.9,14.6,5.1,19.9,9.8
				c5.3,4.7,8.9,10.6,10.7,17.8c1.9,7.1,1.8,15.2-0.3,24.2s-5.6,16.3-10.4,21.8c-4.8,5.6-10.6,9.3-17.5,11.1
				C745.6,275.1,738.2,275.1,730.2,273.3z M734.3,255.9c12.7,3,20.9-3.9,24.8-20.5c2-8.6,1.8-15.3-0.5-20.1
				c-2.3-4.8-6.6-7.9-12.7-9.3c-12.7-3-21,3.9-24.8,20.6C717.2,243.1,721.6,252.9,734.3,255.9z M757.9,183.4l-13.9-3.2l0.4-1.5
				l16-20.6l23,5.3l-0.4,1.5L757.9,183.4z"/>
		</g>
	</g>
</g>
</svg>
