<?xml version="1.0" encoding="UTF-8"?><svg id="Full_Logos" xmlns="http://www.w3.org/2000/svg" viewBox="0 0 800 215.68"><defs><style>.cls-1{fill:#7db40a;}</style></defs><path class="cls-1" d="M86.87,103.12s-.1-.03-.16-.03c-.15,0-.31,.07-.42,.19-.3,.3-.3,.87,0,1.55,.2,.47,.57,.89,1.05,1.24v-1.68c0-.67-.18-1.16-.46-1.27Z"/><path class="cls-1" d="M95.53,105.06s.03,.05,.04,.07c.03,.05,.06,.09,.09,.14,.03-.05,.06-.1,.1-.15,.69-1.19,.57-1.84,.41-1.97-.19-.15-.41-.14-.53-.13-.22,.03-.41,.15-.52,.32-.15,.22-.24,.81,.37,1.65,.02,.02,.03,.05,.05,.07Z"/><path class="cls-1" d="M105.04,104.83c.3-.68,.3-1.25,0-1.55-.12-.12-.28-.19-.42-.19-.06,0-.11,0-.16,.03-.29,.12-.46,.6-.46,1.27v1.68c.48-.35,.84-.77,1.05-1.24Z"/><path class="cls-1" d="M141.75,44.08H49.58c-9.25,0-16.74,7.5-16.74,16.74v92.17c0,9.25,7.5,16.74,16.74,16.74h92.17c9.25,0,16.74-7.5,16.74-16.74V60.82c0-9.25-7.5-16.74-16.74-16.74Zm-50.87,11.56c0-2.64,2.14-4.79,4.79-4.79s4.79,2.14,4.79,4.79v5.69c0,2.64-2.14,4.79-4.79,4.79s-4.79-2.14-4.79-4.79v-5.69Zm-33.98,50.63h-5.69c-2.64,0-4.79-2.14-4.79-4.79s2.14-4.79,4.79-4.79h5.69c2.64,0,4.79,2.14,4.79,4.79s-2.14,4.79-4.79,4.79Zm7.25-29.86l-4.35-4.38c-1.86-1.88-1.85-4.91,.02-6.77,1.88-1.86,4.91-1.86,6.77,.02l4.35,4.38c1.86,1.88,1.85,4.91-.02,6.77-.93,.93-2.15,1.39-3.37,1.39s-2.46-.47-3.4-1.41Zm56.31,24.25c0,7.59-2.9,11.76-5.46,15.44-2.27,3.26-4.23,6.08-4.4,10.95,0,.22,0,.74,0,.74,0,2.34-1.93,4.26-4.3,4.26h-14.65c-2.37,0-4.3-1.91-4.3-4.27v-18.6c-1.66-.69-2.94-1.82-3.56-3.26-.75-1.73-.54-3.43,.56-4.56,.95-.97,2.35-1.28,3.57-.78,1.36,.55,2.16,1.98,2.16,3.81v2.7c.21,.03,.42,.05,.64,.06,.98,.06,1.91-.06,2.71-.32-.06-.1-.13-.19-.18-.29-1.36-1.92-1.09-3.71-.38-4.75,.54-.79,1.4-1.33,2.36-1.48,.94-.15,1.9,.1,2.63,.68,1.15,.9,1.82,2.82,.27,5.49-.07,.12-.14,.24-.22,.35,.8,.26,1.73,.38,2.71,.32,.22-.01,.43-.03,.64-.06v-2.7c0-1.83,.81-3.26,2.17-3.81,1.22-.5,2.62-.19,3.57,.78,1.1,1.12,1.31,2.83,.56,4.56-.62,1.43-1.89,2.57-3.56,3.26v15.49c0,.76-.61,1.37-1.37,1.37s-1.37-.61-1.37-1.37v-14.82c-.16,.02-.32,.03-.48,.04-1.92,.11-3.7-.27-5.11-1.05-1.42,.78-3.19,1.17-5.11,1.05-.16,0-.32-.02-.48-.04v17.93c0,.84,.7,1.53,1.56,1.53h14.65c.86,0,1.56-.69,1.56-1.53,0,0,0-.58,.01-.82,.19-5.68,2.58-9.11,4.89-12.42,2.56-3.68,4.97-7.15,4.97-13.88,0-.01,0-.02,0-.04,0-.01,0-.02,0-.04,0-12.01-9.89-21.78-22.05-21.78s-22.05,9.77-22.05,21.78v.07c0,6.72,2.46,10.19,5.05,13.87,2.45,3.46,4.98,7.04,4.98,13.18v6.3c0,.84,.7,1.53,1.56,1.53h21.07c2.34,0,4.25,1.87,4.3,4.19v.04h0v.08c-.04,2.32-1.95,4.19-4.3,4.19h-21.07c-.86,0-1.55,.68-1.56,1.51,0,.84,.71,1.51,1.56,1.51h21.07c2.34,0,4.25,1.87,4.3,4.19v.04h0v.08c-.04,2.32-1.96,4.19-4.3,4.19h-17.83c2.13,1.93,5.19,4.1,7.88,4.1,.76,0,1.37,.61,1.37,1.37s-.61,1.37-1.37,1.37c-5.99,0-11.93-7.03-12.18-7.33-.34-.41-.41-.97-.19-1.46,.23-.48,.71-.79,1.24-.79h21.07c.86,0,1.55-.68,1.56-1.51,0-.84-.71-1.51-1.56-1.51h-21.07c-2.34,0-4.25-1.87-4.3-4.19,0-.01,0-.03,0-.04h0v-.03s0-.03,0-.04c.04-2.32,1.95-4.19,4.3-4.19h21.07c.86,0,1.55-.68,1.56-1.51,0-.84-.71-1.51-1.56-1.51h-21.07c-2.37,0-4.3-1.91-4.3-4.27v-6.3c0-5.26-2.08-8.2-4.48-11.6-2.6-3.68-5.56-7.85-5.56-15.45v-.07c0-13.52,11.12-24.51,24.79-24.51s24.79,11,24.79,24.51v.07Zm3.34-22.85c-1.23,0-2.46-.47-3.39-1.41-1.86-1.87-1.86-4.91,.02-6.77l4.38-4.35c1.87-1.86,4.9-1.85,6.77,.02,1.86,1.87,1.86,4.91-.02,6.77l-4.38,4.35c-.93,.93-2.16,1.39-3.38,1.39Zm16.34,28.47h-5.69c-2.64,0-4.79-2.14-4.79-4.79s2.14-4.79,4.79-4.79h5.69c2.64,0,4.79,2.14,4.79,4.79s-2.14,4.79-4.79,4.79Z"/><path class="cls-1" d="M197.64,101.96c-3.37-2.88-5.45-4.77-6.12-5.63-.49-.67-.73-1.41-.73-2.14,0-1.47,1.53-2.82,3.73-2.82s4.47,1.53,6.61,4.53l6.18-5.51c-4.59-5.39-8.26-7.04-12.67-7.04-3.43,0-6.3,1.1-8.63,3.31-2.26,2.14-3.43,4.77-3.43,7.77,0,2.14,.67,4.22,2.08,6.37,1.41,2.14,4.47,5.14,9.24,9.06,2.51,2.02,4.16,3.55,4.89,4.59,.73,.98,1.1,1.96,1.1,2.94,0,2.2-2.2,4.16-5.08,4.16s-5.14-1.96-7.28-5.81l-7.04,4.22c3.37,6.61,7.83,9.55,14.14,9.55,3.98,0,7.22-1.16,9.73-3.49,2.51-2.39,3.73-5.39,3.73-8.99s-1.22-6.61-4.65-10.04c-.67-.67-2.63-2.38-5.81-5.02Z"/><path class="cls-1" d="M232.1,102.64c3.37,0,5.57,.86,8.2,3.55l6.73-3.73c-3.24-4.71-8.57-7.4-14.99-7.4-10.4-.25-18.6,7.77-18.36,17.19,0,4.59,1.59,8.57,4.83,11.93,3.24,3.37,7.71,5.08,13.4,5.08,6.36,0,11.32-2.26,14.81-6.79l-6.42-4.41c-2.02,2.51-4.9,3.73-8.57,3.73-5.87,0-9.85-3.85-9.85-9.42,0-2.88,.92-5.2,2.81-6.98,1.9-1.84,4.41-2.75,7.4-2.75Z"/><path class="cls-1" d="M257.62,82.5c-2.94,0-5.2,2.33-5.2,5.2s2.33,5.39,5.26,5.39c2.75,0,5.14-2.33,5.14-5.26s-2.33-5.33-5.2-5.33Z"/><rect class="cls-1" x="253.52" y="95.91" width="8.2" height="32.49"/><path class="cls-1" d="M284.36,95.05c-4.83,0-8.81,1.65-12.06,4.95-3.18,3.24-4.77,7.34-4.77,12.3s1.59,8.87,4.83,12.12c3.24,3.24,7.4,4.83,12.48,4.83,6.55,0,11.2-2.26,14.62-7.16l-6.85-3.24c-2.2,2.14-4.83,3.18-7.83,3.18-5.14,0-8.57-2.88-9.36-7.53h26.25v-1.53c0-5.38-1.59-9.73-4.83-12.97-3.18-3.3-7.34-4.95-12.48-4.95Zm-8.57,13.03c.92-2.02,1.96-3.43,3-4.22,1.71-1.28,3.73-1.9,6-1.9,4.16,0,7.65,2.51,8.69,6.12h-17.68Z"/><path class="cls-1" d="M326.04,95.05c-3.18,0-5.94,1.04-9.67,4.16v-3.3h-8.14v32.49h8.14v-13.04c0-3.36,.12-5.57,.37-6.61,.92-3.92,3.37-6.24,6.73-6.24,2.51,0,4.34,1.28,5.02,3.91,.37,1.29,.55,3.86,.55,7.71v14.26h8.08v-21.48c0-3.73-.98-6.61-2.88-8.51-2.26-2.26-4.96-3.36-8.2-3.36Z"/><path class="cls-1" d="M361.84,102.64c3.37,0,5.57,.86,8.2,3.55l6.73-3.73c-3.24-4.71-8.57-7.4-14.99-7.4-10.4-.25-18.6,7.77-18.36,17.19,0,4.59,1.59,8.57,4.83,11.93,3.24,3.37,7.71,5.08,13.4,5.08,6.36,0,11.32-2.26,14.81-6.79l-6.42-4.41c-2.02,2.51-4.9,3.73-8.57,3.73-5.87,0-9.85-3.85-9.85-9.42,0-2.88,.92-5.2,2.81-6.98,1.9-1.84,4.41-2.75,7.4-2.75Z"/><path class="cls-1" d="M399.42,95.05c-4.83,0-8.81,1.65-12.06,4.95-3.18,3.24-4.77,7.34-4.77,12.3s1.59,8.87,4.83,12.12c3.24,3.24,7.4,4.83,12.48,4.83,6.55,0,11.2-2.26,14.62-7.16l-6.85-3.24c-2.2,2.14-4.83,3.18-7.83,3.18-5.14,0-8.57-2.88-9.36-7.53h26.25v-1.53c0-5.38-1.59-9.73-4.83-12.97-3.18-3.3-7.34-4.95-12.48-4.95Zm-8.57,13.03c.92-2.02,1.96-3.43,3-4.22,1.71-1.28,3.73-1.9,6-1.9,4.16,0,7.65,2.51,8.69,6.12h-17.68Z"/><path class="cls-1" d="M455.72,95.05c-4.22,0-8.02,1.47-11.26,4.41-3.73,3.36-5.57,7.65-5.57,12.73,0,4.71,1.65,8.75,4.9,12.12,3.3,3.3,7.28,4.96,11.93,4.96,9.48,.31,17.44-7.96,17.26-17.14,.31-9.12-8.08-17.32-17.26-17.07Zm.06,26.62c-2.51,0-4.65-.86-6.3-2.63-1.65-1.77-2.51-4.04-2.51-6.92s.86-4.95,2.51-6.73c1.71-1.77,3.85-2.63,6.36-2.63,5.14,0,8.87,3.79,8.87,9.36s-3.79,9.55-8.93,9.55Z"/><path class="cls-1" d="M478.86,88.32c-.12,.8-.18,3.31-.24,7.59h-2.88v6.91h2.88v25.58h8.2v-25.58h5.14v-6.91h-5.14v-4.1c0-.92,.18-1.53,.49-1.84,.43-.43,1.16-.61,2.08-.61,.8,0,1.71,.18,2.88,.55v-6.24c-2.14-.8-4.04-1.17-5.69-1.17-4.71,0-7.28,2.2-7.71,5.81Z"/><path class="cls-1" d="M541.46,97.19c0-5.45-2.69-9.73-6.85-11.45-2.08-.86-5.57-1.28-10.4-1.28h-8.87v43.94h8.38v-18.6h.8l9.85,18.6h9.18l-10.4-19.52c5.57-2.02,8.32-5.88,8.32-11.69Zm-15.11,4.41h-2.63v-8.93h2.33c4.41,0,5.57,.55,6.55,1.96,.55,.67,.8,1.53,.8,2.51,0,3.18-1.71,4.47-7.04,4.47Z"/><path class="cls-1" d="M564.65,95.05c-4.83,0-8.81,1.65-12.05,4.95-3.18,3.24-4.77,7.34-4.77,12.3s1.59,8.87,4.83,12.12c3.24,3.24,7.4,4.83,12.48,4.83,6.55,0,11.2-2.26,14.63-7.16l-6.85-3.24c-2.2,2.14-4.83,3.18-7.83,3.18-5.14,0-8.57-2.88-9.36-7.53h26.25v-1.53c0-5.38-1.59-9.73-4.83-12.97-3.18-3.3-7.34-4.95-12.48-4.95Zm-8.57,13.03c.92-2.02,1.96-3.43,3-4.22,1.71-1.28,3.73-1.9,6-1.9,4.16,0,7.65,2.51,8.69,6.12h-17.68Z"/><path class="cls-1" d="M612.57,99.46c-2.94-2.94-6.36-4.41-10.28-4.41-4.22,0-7.83,1.59-10.83,4.83-2.94,3.18-4.41,7.28-4.41,12.3s1.53,8.93,4.59,12.18c3.06,3.24,6.67,4.9,10.89,4.9,3.73,0,6.85-1.28,10.04-4.28v3.43h8.14v-32.49h-8.14v3.55Zm-2.2,19.64c-1.65,1.78-3.79,2.69-6.36,2.69s-4.59-.92-6.3-2.69c-1.65-1.83-2.51-4.16-2.51-6.98s.86-5.08,2.51-6.85c1.65-1.77,3.8-2.69,6.3-2.69,5.14,0,8.93,3.85,8.93,9.49,0,2.88-.86,5.26-2.57,7.04Z"/><path class="cls-1" d="M652.96,99.46c-2.94-2.94-6.36-4.41-10.28-4.41-4.22,0-7.83,1.59-10.83,4.83-2.94,3.18-4.41,7.28-4.41,12.3s1.53,8.93,4.59,12.18c3.06,3.24,6.67,4.9,10.89,4.9,3.73,0,6.85-1.28,10.04-4.28v3.43h8.14v-45.04h-8.14v16.1Zm-2.2,19.64c-1.65,1.78-3.79,2.69-6.36,2.69s-4.59-.92-6.3-2.69c-1.65-1.83-2.51-4.16-2.51-6.98s.86-5.08,2.51-6.85c1.65-1.77,3.8-2.69,6.3-2.69,5.14,0,8.93,3.85,8.93,9.49,0,2.88-.86,5.26-2.57,7.04Z"/><path class="cls-1" d="M672.55,82.5c-2.94,0-5.2,2.33-5.2,5.2s2.33,5.39,5.26,5.39c2.75,0,5.14-2.33,5.14-5.26s-2.32-5.33-5.2-5.33Z"/><rect class="cls-1" x="668.45" y="95.91" width="8.2" height="32.49"/><path class="cls-1" d="M701.8,95.05c-3.18,0-5.94,1.04-9.67,4.16v-3.3h-8.14v32.49h8.14v-13.04c0-3.36,.12-5.57,.37-6.61,.92-3.92,3.37-6.24,6.73-6.24,2.51,0,4.34,1.28,5.02,3.91,.37,1.29,.55,3.86,.55,7.71v14.26h8.08v-21.48c0-3.73-.98-6.61-2.88-8.51-2.26-2.26-4.96-3.36-8.2-3.36Z"/><path class="cls-1" d="M744.76,95.91v3.55c-3.37-3.12-6.61-4.41-10.28-4.41-4.04,0-7.47,1.4-10.34,4.22-3.24,3.12-4.83,7.28-4.83,12.48,0,4.83,1.53,8.81,4.53,11.93,3,3.12,6.73,4.71,11.08,4.71,3.98,0,6.98-1.16,9.85-4.04,0,2.63-.31,4.53-.86,5.57-.55,1.04-1.47,1.9-2.81,2.57-1.28,.67-3.06,1.04-5.26,1.04-3.43,0-6-.86-7.53-2.75h-8.99c2.2,6.67,7.53,10.34,16.83,10.34,6,0,10.46-1.77,13.46-5.26,2.2-2.57,3.31-6.61,3.31-12.12v-27.84h-8.14Zm-2.08,22.58c-1.65,1.65-3.73,2.51-6.24,2.51s-4.71-.86-6.42-2.57c-1.71-1.78-2.57-3.98-2.57-6.67s.86-4.77,2.51-6.49c1.65-1.71,3.8-2.57,6.37-2.57,5.2,0,8.87,3.73,8.87,9.12,0,2.76-.86,4.96-2.51,6.67Z"/></svg>