<svg width="141" height="141" viewBox="0 0 141 141" fill="none" xmlns="http://www.w3.org/2000/svg">
<path d="M109.9 37.3002L77.3 48.6002L76.5 46.8002L101.8 31.3002C104.4 29.7002 105.2 26.3002 103.6 23.7002C102 21.1002 98.6 20.3002 96 21.9002L68.9 38.6002C63.5 41.6002 61.9 41.2002 60.3 40.6002C58.7 40.1002 57.8 38.1002 60.3 34.9002L70.6 24.9002C72.8 22.8002 72.8 19.3002 70.7 17.1002C68.6 14.9002 65.1 14.9002 62.9 17.0002L42.4 36.7002C42.1 37.0002 41.9 37.3002 41.7 37.6002L30.5 54.0002L17.4 64.7002L17.3 64.8002H17.2L16.1 65.7002C15.9 65.8002 15.8 66.0002 15.7 66.2002L0.900024 79.8002C2.90002 94.2002 9.30002 107.1 18.6 117.3L45.9 88.0002L49.3 85.3002L66.7 84.1002L97.4 88.7002C100.4 89.1002 103.2 87.1002 103.7 84.1002C104.1 81.1002 102.1 78.3002 99.1 77.8002L79 74.8002L79.4 72.1002L110.6 68.8002C113.6 68.5002 115.8 65.8002 115.5 62.7002C115.2 59.7002 112.5 57.5002 109.4 57.8002L80 60.9002L79.9 59.4002L113.5 47.8002C116.4 46.8002 117.9 43.7002 116.9 40.8002C115.9 37.9002 112.8 36.3002 109.9 37.3002Z" fill="#8A5D3B"/>
<path d="M58.2 44.7002C61.6 56.4002 50.4 69.6002 50.4 69.6002" stroke="#754C28" stroke-width="1.2641" stroke-miterlimit="10" stroke-linecap="round"/>
<path d="M64.9 43.8999C59 57.2999 63.8 77.6999 63.8 77.6999" stroke="#754C28" stroke-width="1.2641" stroke-miterlimit="10" stroke-linecap="round"/>
<path d="M84.5 57.4002C88.1 50.7002 84.5 46.2002 80.2 42.8002C75.9 39.5002 70.5 37.9002 63 38.2002C55.8 38.5002 44.7 45.2002 47.2 53.7002C49.7 62.2002 43.6 64.6002 46.1 71.0002C46.9 73.0002 47.7 74.2002 48.6 75.1002C49.8 76.4002 50.5 78.1002 50.5 79.9002V97.9002C50.5 100.5 52.4 102.8 55 103.1C58 103.4 60.5 101 60.5 98.1002V85.4002C60.5 85.0002 60.8 84.7002 61.2 84.7002C61.6 84.7002 62 85.0002 62 85.4002V112.8C62 115.4 63.9 117.7 66.5 118C69.5 118.3 72 115.9 72 113V86.4002C72 86.0002 72.3 85.6002 72.8 85.7002C73.2 85.7002 73.5 86.0002 73.5 86.4002V95.5002C73.5 98.1002 75.4 100.4 78 100.7C81 101 83.5 98.6002 83.5 95.7002V85.3002C83.5 83.7002 84 82.1002 84.9 80.8002C85.9 79.4002 86.5 77.8002 86.9 76.2002C88 71.4002 80.9 64.1002 84.5 57.4002Z" fill="#85C446"/>
</svg>
