<?xml version="1.0" encoding="UTF-8"?>
<svg xmlns="http://www.w3.org/2000/svg" version="1.1" viewBox="0 0 13.7 39.8">
  <defs>
    <style>
      .cls-1 {
        fill: #fff;
      }

      .cls-2 {
        fill: #dbdddd;
      }

      .cls-3 {
        fill: #f2f2f2;
      }

      .cls-4 {
        fill: #bbbdbf;
      }

      .cls-5 {
        fill: #a253a0;
      }

      .cls-6 {
        fill: #893584;
      }

      .cls-7 {
        fill: #b175b1;
      }

      .cls-8 {
        fill: #9c9ea1;
      }

      .cls-9 {
        fill: #ade0f9;
      }

      .cls-10 {
        fill: #d3eefb;
      }
    </style>
  </defs>
  <!-- Generator: Adobe Illustrator 28.7.2, SVG Export Plug-In . SVG Version: 1.2.0 Build 154)  -->
  <g>
    <g id="Layer_1_copy">
      <g id="Layer_1">
        <g id="Icons">
          <path class="cls-5" d="M3.5,7c.6.3,1.6.8,3.1.8,1.7,0,3.1-.6,3.8-1.2C9.4,2.6,8,0,7.1,0s-2.6,2.8-3.6,7"/>
          <path class="cls-5" d="M3.5,7c.6.3,1.6.8,3.1.8,1.7,0,3.1-.6,3.8-1.2C9.4,2.6,8,0,7.1,0s-2.6,2.8-3.6,7"/>
          <path class="cls-3" d="M9.1,11.9c.8,1.2.5,2.8-.7,3.6-1.2.8-2.8.5-3.7-.7-.8-1.2-.5-2.8.7-3.6,1.3-.8,2.9-.5,3.7.7M3.5,7c-.8,3.4-1.4,7.6-1.4,12s.6,9,1.5,12.5c.2.7.6,2.2.9,3.2.9,2.6,1.8,4.2,2.5,4.2s1.8-1.9,2.7-4.9c.3-.9.5-2,.8-3.2.7-3.3,1.3-7.4,1.3-11.6s-.6-9-1.4-12.6c-.7.6-2,1.3-3.8,1.2-1.6,0-2.6-.4-3.1-.8"/>
          <path class="cls-2" d="M9.1,11.9c.8,1.2.5,2.8-.7,3.6-1.2.8-2.8.5-3.7-.7-.8-1.2-.5-2.8.7-3.6,1.3-.8,2.9-.5,3.7.7M3.5,7c-.8,3.4-1.4,7.6-1.4,12s.6,9,1.5,12.5c.2.7.6,2.2.9,3.2.9,2.6,1.8,4.2,2.5,4.2s1.8-1.9,2.7-4.9c.3-.9.5-2,.8-3.2.7-3.3,1.2-7.5,1.2-11.7s-.5-8.9-1.3-12.5c-.7.6-2,1.3-3.8,1.2-1.6,0-2.6-.4-3.1-.8"/>
          <path class="cls-1" d="M3.5,7c-.8,3.4-1.4,7.6-1.4,12.1s0,2,0,3c.2-2,1-8.2,2.5-14.5-.5-.2-.9-.4-1.2-.6"/>
          <path class="cls-3" d="M3.5,7c-.8,3.4-1.4,7.6-1.4,12.1s0,2,0,3c.2-2,1-8.2,2.5-14.5-.5-.2-.9-.4-1.2-.6"/>
          <path class="cls-2" d="M10.4,30.8c.7-3.3,1.3-7.4,1.3-11.6s-.6-9-1.4-12.6c0,0-.7.5-.8.5,1.6,14.1-.4,20.5-2.3,22.6-1.6,1.8-3.4,1.5-3.9,1.4v.5c.2.7.6,2.2.9,3.2.9,2.6,1.8,4.2,2.5,4.2s1.8-1.9,2.7-4.9c.4-1,.6-2.1.9-3.3"/>
          <path class="cls-6" d="M10.1,31.9c2.3.5,4.2,1.8,3.4,5.2s-1,.2-2.8-1.5c-.4-.3-1.1-.5-1.5-.5-.1-1.1.4-2.6.9-3.2"/>
          <path class="cls-7" d="M3.6,31.9c-2.3.5-4.2,1.8-3.4,5.2.8,3.4,1,.2,2.8-1.5.4-.3,1.1-.5,1.5-.5.2-1.1-.3-2.6-.9-3.2"/>
          <path class="cls-5" d="M6.9,31.9c.3,0,1,.3,1,1.9s-.4,6-1,6-1-4.4-1-6,.7-1.9,1-1.9"/>
          <path class="cls-4" d="M3.9,8.2c.2,0,.3-.1.3-.3s0-.3-.3-.3-.3,0-.3.3.2.3.3.3"/>
          <path class="cls-4" d="M3.9,8.2c.2,0,.3-.1.3-.3s0-.3-.3-.3-.3,0-.3.3.2.3.3.3"/>
          <path class="cls-4" d="M5.1,8.5c.2,0,.3-.1.3-.3s0-.3-.3-.3-.3,0-.3.3,0,.3.3.3"/>
          <path class="cls-4" d="M5.1,8.5c.2,0,.3-.1.3-.3s0-.3-.3-.3-.3,0-.3.3,0,.3.3.3"/>
          <path class="cls-4" d="M6.5,8.7c.2,0,.3-.1.3-.3s0-.3-.3-.3-.3.1-.3.3,0,.3.3.3"/>
          <path class="cls-4" d="M6.5,8.7c.2,0,.3-.1.3-.3s0-.3-.3-.3-.3.1-.3.3,0,.3.3.3"/>
          <path class="cls-4" d="M7.8,8.7c.2,0,.3-.1.3-.3s0-.3-.3-.3-.3.1-.3.3,0,.3.3.3"/>
          <path class="cls-4" d="M7.8,8.7c.2,0,.3-.1.3-.3s0-.3-.3-.3-.3.1-.3.3,0,.3.3.3"/>
          <path class="cls-4" d="M9,8.4c.2,0,.3-.1.3-.3s0-.3-.3-.3-.3,0-.3.3.2.3.3.3"/>
          <path class="cls-4" d="M9,8.4c.2,0,.3-.1.3-.3s0-.3-.3-.3-.3,0-.3.3.2.3.3.3"/>
          <path class="cls-4" d="M10.1,7.9c.2,0,.3,0,.3-.3s0-.3-.3-.3-.2,0-.2.3,0,.3.2.3"/>
          <path class="cls-9" d="M6.9,15.8c1.3,0,2.3-1,2.3-2.3s-1-2.3-2.3-2.3-2.3,1-2.3,2.3,1.1,2.3,2.3,2.3"/>
          <path class="cls-9" d="M7,15.4c1.1,0,2-.9,2-2s-.9-2-2-2-2,.9-2,2,.9,2,2,2"/>
          <path class="cls-8" d="M7,16c-1.5,0-2.6-1.2-2.6-2.6s1.2-2.6,2.6-2.6,2.6,1.2,2.6,2.6-1.2,2.6-2.6,2.6ZM7,11.4c-1.1,0-2,.9-2,2s.9,2,2,2,2-.9,2-2-.9-2-2-2Z"/>
          <path class="cls-10" d="M5.9,13.6h0c-.2-.1-.2-.2,0-.2l1-1c0,0,0,0,.2,0,.1,0,.1.1,0,.2l-1,1h-.2Z"/>
          <path class="cls-10" d="M6.1,14.3s0-.1,0,0c-.2-.1-.2-.2,0-.2l1.5-1.5c0,0,0,0,.2,0,.1,0,.1.1,0,.2l-1.5,1.5c0-.1,0,0,0,0h0Z"/>
          <path class="cls-6" d="M9.6,7.2c.3-.2.6-.3.8-.5-.7-2.7-1.5-4.8-2.3-5.8.3.9,1.1,3.6,1.5,6.3"/>
          <path class="cls-6" d="M9.6,7.2c.3-.2.6-.3.8-.5-.7-2.7-1.5-4.8-2.3-5.8.3.9,1.1,3.6,1.5,6.3"/>
          <path class="cls-7" d="M7,0h0c-1,0-2.5,2.8-3.6,7,.3.2.7.4,1.2.5.8-3.9,1.6-7,2.4-7.5"/>
          <path class="cls-7" d="M7,0h0c-1,0-2.5,2.8-3.6,7,.3.2.7.4,1.2.5.8-3.9,1.6-7,2.4-7.5"/>
          <path class="cls-4" d="M10.4,30.8c.7-3.3,1.3-7.4,1.3-11.6s-.6-9-1.4-12.6c0,0-.7.5-.8.5,1.6,14.1-.4,20.5-2.3,22.6-1.6,1.8-3.4,1.5-3.9,1.4v.5c.2.7.6,2.2.9,3.2.9,2.6,1.8,4.2,2.5,4.2s1.8-1.9,2.7-4.9c.4-1,.6-2.1.9-3.3"/>
          <path class="cls-6" d="M10.1,31.9c2.3.5,4.2,1.8,3.4,5.2s-1,.2-2.8-1.5c-.4-.3-1.1-.5-1.5-.5-.1-1.1.4-2.6.9-3.2"/>
          <path class="cls-7" d="M3.6,31.9c-2.3.5-4.2,1.8-3.4,5.2.8,3.4,1,.2,2.8-1.5.4-.3,1.1-.5,1.5-.5.2-1.1-.3-2.6-.9-3.2"/>
          <path class="cls-5" d="M6.9,31.9c.3,0,1,.3,1,1.9s-.4,6-1,6-1-4.4-1-6,.7-1.9,1-1.9"/>
          <path class="cls-8" d="M10.1,7.9c.2,0,.3,0,.3-.3s0-.3-.3-.3-.2,0-.2.3,0,.3.2.3"/>
        </g>
      </g>
      <g id="Layer_1-2" data-name="Layer_1">
        <g id="Icons-2" data-name="Icons">
          <path class="cls-9" d="M6.9,17.8c1.9,0,3.3-1.4,3.3-3.3s-1.4-3.3-3.3-3.3-3.3,1.4-3.3,3.3,1.6,3.3,3.3,3.3"/>
          <path class="cls-9" d="M7,17.3c1.6,0,2.9-1.3,2.9-2.9s-1.3-2.9-2.9-2.9-2.9,1.3-2.9,2.9,1.3,2.9,2.9,2.9"/>
          <path class="cls-8" d="M7,18.1c-2.1,0-3.7-1.7-3.7-3.7s1.7-3.7,3.7-3.7,3.7,1.7,3.7,3.7-1.7,3.7-3.7,3.7ZM7,11.5c-1.6,0-2.9,1.3-2.9,2.9s1.3,2.9,2.9,2.9,2.9-1.3,2.9-2.9-1.3-2.9-2.9-2.9Z"/>
          <path class="cls-10" d="M5.4,14.7h0c-.3-.1-.3-.3,0-.3l1.4-1.4c0,0,0,0,.3,0,.2,0,.2.2,0,.3l-1.4,1.4h-.3Z"/>
          <path class="cls-10" d="M5.7,15.7s-.1-.1,0,0c-.3-.1-.3-.3,0-.3l2.1-2.1c0,0,0,0,.3,0,.2,0,.2.2,0,.3l-2.1,2.1c0-.1-.1,0-.1,0h-.1Z"/>
        </g>
      </g>
    </g>
  </g>
</svg>